<svg width="512" height="512" viewBox="0 0 512 512" fill="none" xmlns="http://www.w3.org/2000/svg">
<mask id="mask0_2560_728" style="mask-type:luminance" maskUnits="userSpaceOnUse" x="85" y="154" width="342" height="204">
<path d="M426.667 154.666H85.3333V357.556H426.667V154.666Z" fill="white"/>
</mask>
<g mask="url(#mask0_2560_728)">
<mask id="mask1_2560_728" style="mask-type:luminance" maskUnits="userSpaceOnUse" x="85" y="154" width="342" height="204">
<path d="M426.394 154.584H85.604V357.638H426.394V154.584Z" fill="white"/>
</mask>
<g mask="url(#mask1_2560_728)">
<mask id="mask2_2560_728" style="mask-type:luminance" maskUnits="userSpaceOnUse" x="85" y="154" width="342" height="204">
<path d="M426.394 154.584H85.604V357.638H426.394V154.584Z" fill="white"/>
</mask>
<g mask="url(#mask2_2560_728)">
<path d="M192.216 155.198C200.355 155.198 210.716 155.092 223.298 154.883C235.836 154.674 244.152 154.568 248.244 154.568C283.264 154.568 310.541 164.404 330.074 184.074C332.748 186.761 335.24 189.512 337.548 192.329H307.412C294.442 176.173 275.576 168.095 250.818 168.094H249.233C226.048 168.094 213.157 169.73 210.562 173.002C207.751 176.686 206.343 183.128 206.338 192.329H178.322C178.155 182.451 177.398 175.086 176.048 170.234C175.432 168.598 172.264 167.067 166.544 165.641C160.869 164.215 156.646 163.502 153.874 163.502C152.994 163.502 152.554 162.265 152.554 159.79C152.554 157.148 152.994 155.407 153.874 154.568C165.005 154.988 177.785 155.198 192.216 155.198ZM329.81 327.831C310.013 347.712 282.714 357.652 247.914 357.652C245.362 357.652 237.684 357.442 224.882 357.022C212.123 356.603 201.432 356.498 192.81 356.708L153.874 357.652C153.214 357.022 152.884 355.471 152.884 352.996C152.884 350.144 153.214 348.718 153.874 348.718C156.646 348.718 160.782 348.005 166.281 346.579C171.737 345.153 174.992 343.518 176.048 341.672C177.356 339.57 178.108 332.31 178.305 319.891H206.606C207.189 326.184 208.728 331.997 211.222 337.331C212.057 339.386 217.799 340.938 228.446 341.986C239.092 342.993 247.297 343.496 253.061 343.496C278.216 343.496 296.972 335.628 309.33 319.891H336.962C334.742 322.619 332.358 325.266 329.81 327.831Z" fill="#006FEE"/>
<mask id="mask3_2560_728" style="mask-type:luminance" maskUnits="userSpaceOnUse" x="85" y="208" width="342" height="96">
<path d="M426.394 208.57H85.604V303.65H426.394V208.57Z" fill="white"/>
</mask>
<g mask="url(#mask3_2560_728)">
<mask id="mask4_2560_728" style="mask-type:luminance" maskUnits="userSpaceOnUse" x="85" y="208" width="342" height="96">
<path d="M426.394 208.57H85.604V303.65H426.394V208.57Z" fill="white"/>
</mask>
<g mask="url(#mask4_2560_728)">
<mask id="mask5_2560_728" style="mask-type:luminance" maskUnits="userSpaceOnUse" x="85" y="208" width="342" height="96">
<path d="M426.394 208.57H85.604V303.65H426.394V208.57Z" fill="white"/>
</mask>
<g mask="url(#mask5_2560_728)">
<mask id="mask6_2560_728" style="mask-type:luminance" maskUnits="userSpaceOnUse" x="217" y="221" width="210" height="70">
<path d="M426.393 221.711H217.078V290.51H426.393V221.711Z" fill="white"/>
</mask>
<g mask="url(#mask6_2560_728)">
<mask id="mask7_2560_728" style="mask-type:luminance" maskUnits="userSpaceOnUse" x="217" y="221" width="210" height="70">
<path d="M426.393 221.711H217.078V290.51H426.393V221.711Z" fill="white"/>
</mask>
<g mask="url(#mask7_2560_728)">
<mask id="mask8_2560_728" style="mask-type:luminance" maskUnits="userSpaceOnUse" x="217" y="221" width="210" height="70">
<path d="M426.393 221.711H217.078V290.51H426.393V221.711Z" fill="white"/>
</mask>
<g mask="url(#mask8_2560_728)">
<mask id="mask9_2560_728" style="mask-type:luminance" maskUnits="userSpaceOnUse" x="217" y="221" width="210" height="70">
<path d="M426.393 221.711H217.078V290.51H426.393V221.711Z" fill="white"/>
</mask>
<g mask="url(#mask9_2560_728)">
<path d="M230.277 222.528C232.985 222.528 236.433 222.493 240.621 222.423C244.793 222.353 247.561 222.318 248.922 222.318C260.577 222.318 269.654 225.592 276.155 232.138C282.67 238.684 285.927 246.382 285.927 255.23C285.927 265.113 282.641 273.362 276.067 279.978C269.478 286.594 260.393 289.902 248.813 289.902C247.963 289.902 245.409 289.832 241.148 289.692C236.902 289.553 233.344 289.518 230.475 289.588L217.517 289.902C217.298 289.692 217.188 289.176 217.188 288.352C217.188 287.403 217.298 286.928 217.517 286.928C218.44 286.928 219.816 286.692 221.646 286.217C223.461 285.742 224.545 285.198 224.897 284.584C225.409 283.76 225.665 280.557 225.665 274.974V236.325C225.665 232.305 225.409 229.374 224.897 227.532C224.691 226.987 223.637 226.478 221.734 226.003C219.845 225.528 218.44 225.291 217.517 225.291C217.225 225.291 217.078 224.88 217.078 224.056C217.078 223.177 217.225 222.598 217.517 222.318C221.221 222.458 225.475 222.528 230.277 222.528ZM234.977 234.901V275.372C234.977 278.233 235.519 280.822 236.602 283.139C236.88 283.823 238.791 284.34 242.334 284.688C245.877 285.024 248.607 285.191 250.525 285.191C266.982 285.191 275.21 275.072 275.21 254.833C275.21 247.058 273.043 240.45 268.709 235.006C264.391 229.548 258.08 226.82 249.779 226.82H249.252C241.536 226.82 237.246 227.364 236.382 228.453C235.445 229.681 234.977 231.83 234.977 234.901ZM307.142 222.528C310.363 222.528 315.941 222.388 323.877 222.109C331.812 221.844 337.778 221.711 341.775 221.711C342.068 223.679 342.625 226.282 343.445 229.52C344.264 232.759 344.747 234.79 344.894 235.613C344.543 235.948 343.898 236.116 342.961 236.116C342.039 236.116 341.541 235.878 341.468 235.404C340.399 231.663 338.899 229.262 336.966 228.202C335.033 227.141 332.383 226.61 329.016 226.61H321.834C315.685 226.61 312.545 227.057 312.413 227.95C312.047 229.583 311.864 232.444 311.864 236.534V252.886C311.864 253.29 313.401 253.493 316.476 253.493H322.164C324.169 253.493 325.619 253.493 326.512 253.493C327.405 253.493 328.349 253.36 329.345 253.095C330.341 252.816 330.985 252.642 331.278 252.572C331.556 252.516 331.929 252.076 332.398 251.253C332.866 250.429 333.137 249.829 333.211 249.452C333.283 249.089 333.533 248.119 333.957 246.542C334.03 246.068 334.565 245.83 335.56 245.83C336.424 245.83 337.031 246.004 337.383 246.354V265.657C337.105 265.936 336.534 266.076 335.67 266.076C334.747 266.076 334.177 265.804 333.957 265.259C333.459 263.417 333.027 262.035 332.661 261.114C332.31 260.192 332.047 259.648 331.871 259.481C331.695 259.313 331.387 259.09 330.948 258.811C330.026 258.266 326.241 257.994 319.594 257.994C314.441 257.994 311.864 258.302 311.864 258.916V274.764C311.864 279.189 312.186 282.288 312.83 284.06C313.05 284.744 315.48 285.086 320.121 285.086H325.282C331.929 285.086 336.431 284.507 338.789 283.348C339.857 282.804 341.051 281.597 342.368 279.726C343.701 277.856 344.755 275.623 345.531 273.027C345.677 272.622 346.182 272.42 347.046 272.42C348.408 272.42 349.301 272.622 349.725 273.027C349.359 273.906 348.803 275.323 348.056 277.277C347.309 279.217 346.724 280.78 346.299 281.967C345.86 283.167 345.391 284.549 344.894 286.112C344.396 287.676 344.074 288.974 343.927 290.006C340.282 290.006 334.528 289.936 326.666 289.797C318.803 289.658 312.369 289.588 307.362 289.588L294.383 289.902C294.177 289.692 294.075 289.148 294.075 288.268C294.075 287.375 294.177 286.928 294.383 286.928C295.319 286.928 296.696 286.692 298.511 286.217C300.341 285.742 301.432 285.198 301.783 284.584C302.281 283.76 302.53 280.557 302.53 274.974V236.325C302.53 232.305 302.281 229.374 301.783 227.532C301.579 226.987 300.525 226.478 298.621 226.003C296.733 225.528 295.319 225.291 294.383 225.291C294.104 225.291 293.965 224.88 293.965 224.056C293.965 223.177 294.104 222.598 294.383 222.318C298.101 222.458 302.355 222.528 307.142 222.528ZM366.657 222.423C368.371 222.423 372.807 222.256 379.966 221.92C380.098 222.186 380.149 222.744 380.12 223.596C380.076 224.447 379.952 224.872 379.747 224.872C379.249 224.872 378.568 224.942 377.704 225.082C376.841 225.222 375.911 225.564 374.915 226.108C373.919 226.652 373.422 227.364 373.422 228.244C373.422 230.226 377.924 241.712 386.928 262.705C388.861 267.339 390.398 270.947 391.54 273.529C391.759 273.878 392.06 273.969 392.441 273.802C392.836 273.62 393.107 273.362 393.253 273.027L409.329 236.011C410.691 232.675 411.371 230.295 411.371 228.872C411.371 227.908 410.8 227.085 409.658 226.401C408.516 225.731 407.425 225.305 406.386 225.124C405.347 224.956 404.505 224.872 403.861 224.872C403.582 224.872 403.443 224.447 403.443 223.596C403.443 222.744 403.582 222.186 403.861 221.92C410.507 222.256 414.336 222.423 415.346 222.423C415.419 222.423 419.029 222.256 426.173 221.92C426.319 222.325 426.393 222.835 426.393 223.449C426.393 224.398 426.247 224.872 425.953 224.872C422.747 224.872 420.602 225.829 419.519 227.741C417.879 230.602 416.129 234.112 414.27 238.272L392.814 287.138C391.891 289.385 390.647 290.509 389.08 290.509C388.568 290.509 388.209 290.306 388.004 289.902L366.021 237.037C364.235 232.542 362.624 229.269 361.189 227.218C360.691 226.478 359.652 225.898 358.071 225.48C356.504 225.075 355.26 224.872 354.337 224.872C354.045 224.872 353.898 224.433 353.898 223.554C353.898 222.73 354.045 222.186 354.337 221.92C355.479 221.976 356.833 222.039 358.4 222.109C359.967 222.179 361.379 222.248 362.639 222.318C363.883 222.388 365.223 222.423 366.657 222.423Z" fill="#006FEE"/>
</g>
</g>
</g>
</g>
<mask id="mask10_2560_728" style="mask-type:luminance" maskUnits="userSpaceOnUse" x="85" y="208" width="116" height="96">
<path d="M200.043 208.57H85.604V303.65H200.043V208.57Z" fill="white"/>
</mask>
<g mask="url(#mask10_2560_728)">
<mask id="mask11_2560_728" style="mask-type:luminance" maskUnits="userSpaceOnUse" x="85" y="208" width="116" height="96">
<path d="M200.043 208.57H85.604V303.65H200.043V208.57Z" fill="white"/>
</mask>
<g mask="url(#mask11_2560_728)">
<path d="M108.775 255.999L133.084 272.486V288.063L85.604 255.862L133.084 224.506V239.946L108.775 255.999Z" fill="#006FEE"/>
<path d="M200.042 256.74L168.462 235.764L164.651 248.624L177.203 256.88L157.945 269.701L152.187 287.504V288.948L200.042 256.74Z" fill="#006FEE"/>
<path d="M169.632 211.723L158.206 208.57L130.299 300.498L141.726 303.65L169.632 211.723Z" fill="#006FEE"/>
</g>
</g>
</g>
</g>
</g>
</g>
</g>
</g>
</svg>
