<svg width="512" height="512" viewBox="0 0 512 512" fill="none" xmlns="http://www.w3.org/2000/svg">
<g clip-path="url(#clip0_1651_2)">
<g clip-path="url(#clip1_1651_2)">
<g clip-path="url(#clip2_1651_2)">
<path d="M160.324 104.564C172.533 104.564 188.074 104.406 206.948 104.092C225.755 103.778 238.228 103.62 244.366 103.62C296.896 103.62 337.812 118.373 367.112 147.879C371.122 151.909 374.86 156.036 378.323 160.261H333.118C313.663 136.027 285.365 123.91 248.227 123.909H245.85C211.072 123.909 191.736 126.362 187.843 131.27C183.627 136.796 181.515 146.46 181.507 160.261H139.484C139.233 145.444 138.097 134.397 136.072 127.118C135.148 124.665 130.397 122.368 121.817 120.229C113.304 118.09 106.969 117.02 102.812 117.02C101.492 117.02 100.832 115.165 100.832 111.452C100.832 107.489 101.492 104.878 102.812 103.62C119.508 104.249 138.678 104.564 160.324 104.564ZM366.716 363.514C337.02 393.335 296.071 408.245 243.871 408.245C240.043 408.245 228.527 407.931 209.323 407.301C190.185 406.672 174.149 406.515 161.215 406.829L102.812 408.245C101.822 407.301 101.327 404.974 101.327 401.261C101.327 396.984 101.822 394.845 102.812 394.845C106.97 394.845 113.174 393.775 121.422 391.636C129.606 389.497 134.488 387.044 136.072 384.275C138.034 381.122 139.162 370.233 139.458 351.604H181.909C182.784 361.044 185.092 369.763 188.833 377.764C190.086 380.846 198.699 383.174 214.669 384.747C230.639 386.257 242.946 387.012 251.592 387.012C289.324 387.012 317.459 375.209 335.996 351.604H377.443C374.114 355.696 370.538 359.666 366.716 363.514Z" fill="#006FEE"/>
<g clip-path="url(#clip3_1651_2)">
<g clip-path="url(#clip4_1651_2)">
<g clip-path="url(#clip5_1651_2)">
<g clip-path="url(#clip6_1651_2)">
<g clip-path="url(#clip7_1651_2)">
<g clip-path="url(#clip8_1651_2)">
<g clip-path="url(#clip9_1651_2)">
<path d="M217.415 205.559C221.478 205.559 226.65 205.507 232.931 205.402C239.19 205.297 243.341 205.245 245.383 205.245C262.865 205.245 276.481 210.155 286.232 219.974C296.005 229.793 300.891 241.34 300.891 254.613C300.891 269.437 295.961 281.81 286.1 291.734C276.217 301.658 262.59 306.62 245.219 306.62C243.945 306.62 240.113 306.515 233.722 306.306C227.353 306.097 222.016 306.044 217.712 306.149L198.276 306.62C197.947 306.306 197.782 305.531 197.782 304.296C197.782 302.872 197.947 302.16 198.276 302.16C199.66 302.16 201.724 301.805 204.469 301.093C207.192 300.381 208.818 299.564 209.345 298.643C210.113 297.408 210.498 292.603 210.498 284.228V226.255C210.498 220.225 210.113 215.828 209.345 213.065C209.037 212.248 207.456 211.484 204.601 210.772C201.768 210.06 199.66 209.704 198.276 209.704C197.837 209.704 197.617 209.087 197.617 207.852C197.617 206.533 197.837 205.664 198.276 205.245C203.832 205.454 210.212 205.559 217.415 205.559ZM224.465 224.119V284.825C224.465 289.117 225.278 293.001 226.903 296.476C227.32 297.502 230.186 298.277 235.501 298.8C240.815 299.303 244.911 299.554 247.788 299.554C272.473 299.554 284.815 284.375 284.815 254.017C284.815 242.355 281.565 232.442 275.064 224.276C268.586 216.09 259.12 211.997 246.668 211.997H245.878C234.304 211.997 227.869 212.814 226.573 214.447C225.168 216.289 224.465 219.513 224.465 224.119ZM332.713 205.559C337.545 205.559 345.912 205.35 357.815 204.931C369.718 204.533 378.667 204.334 384.663 204.334C385.102 207.286 385.937 211.191 387.167 216.048C388.396 220.906 389.121 223.952 389.341 225.187C388.814 225.69 387.847 225.941 386.442 225.941C385.058 225.941 384.312 225.585 384.202 224.873C382.599 219.262 380.348 215.661 377.449 214.07C374.55 212.479 370.575 211.683 365.524 211.683H354.751C345.528 211.683 340.817 212.353 340.619 213.693C340.07 216.142 339.796 220.434 339.796 226.569V251.096C339.796 251.703 342.102 252.007 346.714 252.007H355.246C358.254 252.007 360.429 252.007 361.768 252.007C363.108 252.007 364.524 251.808 366.018 251.41C367.511 250.991 368.477 250.73 368.917 250.625C369.334 250.541 369.894 249.882 370.597 248.647C371.299 247.411 371.706 246.511 371.816 245.946C371.925 245.401 372.299 243.946 372.936 241.58C373.045 240.869 373.847 240.513 375.34 240.513C376.636 240.513 377.547 240.774 378.075 241.298V270.253C377.657 270.672 376.801 270.881 375.505 270.881C374.121 270.881 373.265 270.473 372.936 269.656C372.189 266.893 371.541 264.82 370.992 263.438C370.465 262.056 370.07 261.24 369.806 260.989C369.543 260.737 369.081 260.402 368.422 259.984C367.039 259.167 361.362 258.759 351.391 258.759C343.661 258.759 339.796 259.22 339.796 260.141V283.914C339.796 290.551 340.279 295.199 341.245 297.858C341.575 298.884 345.22 299.397 352.182 299.397H359.923C369.894 299.397 376.647 298.528 380.183 296.79C381.786 295.974 383.576 294.163 385.552 291.357C387.551 288.552 389.132 285.202 390.296 281.308C390.516 280.7 391.273 280.397 392.569 280.397C394.612 280.397 395.951 280.7 396.588 281.308C396.039 282.627 395.204 284.752 394.084 287.683C392.964 290.593 392.086 292.938 391.449 294.718C390.79 296.518 390.087 298.591 389.341 300.936C388.594 303.281 388.111 305.228 387.891 306.777C382.423 306.777 373.792 306.672 361.999 306.463C350.205 306.254 340.553 306.149 333.043 306.149L313.574 306.62C313.266 306.306 313.113 305.489 313.113 304.17C313.113 302.83 313.266 302.16 313.574 302.16C314.979 302.16 317.044 301.805 319.767 301.093C322.512 300.381 324.148 299.564 324.675 298.643C325.422 297.408 325.795 292.603 325.795 284.228V226.255C325.795 220.225 325.422 215.828 324.675 213.065C324.368 212.248 322.787 211.484 319.932 210.772C317.099 210.06 314.979 209.704 313.574 209.704C313.156 209.704 312.948 209.087 312.948 207.852C312.948 206.533 313.156 205.664 313.574 205.245C319.152 205.454 325.532 205.559 332.713 205.559ZM421.986 205.402C424.556 205.402 431.21 205.151 441.949 204.648C442.147 205.046 442.224 205.884 442.18 207.161C442.114 208.438 441.928 209.076 441.62 209.076C440.873 209.076 439.852 209.181 438.556 209.39C437.261 209.6 435.866 210.113 434.373 210.929C432.879 211.746 432.133 212.814 432.133 214.133C432.133 217.106 438.886 234.336 452.392 265.825C455.291 272.776 457.597 278.188 459.31 282.061C459.639 282.585 460.09 282.721 460.661 282.47C461.254 282.197 461.66 281.81 461.879 281.308L485.993 225.784C488.036 220.78 489.057 217.21 489.057 215.075C489.057 213.63 488.2 212.395 486.487 211.369C484.774 210.364 483.138 209.725 481.579 209.453C480.02 209.202 478.757 209.076 477.791 209.076C477.373 209.076 477.165 208.438 477.165 207.161C477.165 205.884 477.373 205.046 477.791 204.648C487.761 205.151 493.504 205.402 495.019 205.402C495.129 205.402 500.543 205.151 511.26 204.648C511.479 205.255 511.589 206.02 511.589 206.941C511.589 208.365 511.37 209.076 510.93 209.076C506.121 209.076 502.903 210.511 501.278 213.379C498.819 217.671 496.194 222.936 493.405 229.175L461.221 302.475C459.837 305.845 457.97 307.531 455.62 307.531C454.852 307.531 454.314 307.227 454.006 306.62L421.031 227.323C418.352 220.581 415.936 215.671 413.784 212.594C413.037 211.484 411.478 210.615 409.106 209.987C406.756 209.38 404.89 209.076 403.506 209.076C403.067 209.076 402.847 208.417 402.847 207.098C402.847 205.863 403.067 205.046 403.506 204.648C405.219 204.732 407.25 204.826 409.6 204.931C411.95 205.036 414.069 205.14 415.958 205.245C417.825 205.35 419.834 205.402 421.986 205.402Z" fill="#006FEE"/>
</g>
</g>
</g>
</g>
<g clip-path="url(#clip10_1651_2)">
<g clip-path="url(#clip11_1651_2)">
<path d="M35.1633 255.764L71.6255 280.495V303.86L0.40625 255.559L71.6255 208.525V231.685L35.1633 255.764Z" fill="#006FEE"/>
<path d="M172.063 256.877L124.693 225.412L118.976 244.703L137.804 257.086L108.918 276.318L100.281 303.023V305.188L172.063 256.877Z" fill="#006FEE"/>
<path d="M126.448 189.352L109.309 184.623L67.4492 322.514L84.5886 327.242L126.448 189.352Z" fill="#006FEE"/>
</g>
</g>
</g>
</g>
</g>
</g>
</g>
</g>
<defs>
<clipPath id="clip0_1651_2">
<rect width="512" height="304.335" fill="white" transform="translate(0 103.765)"/>
</clipPath>
<clipPath id="clip1_1651_2">
<rect width="511.185" height="304.581" fill="white" transform="translate(0.40625 103.642)"/>
</clipPath>
<clipPath id="clip2_1651_2">
<rect width="511.185" height="304.581" fill="white" transform="translate(0.40625 103.642)"/>
</clipPath>
<clipPath id="clip3_1651_2">
<rect width="511.185" height="142.62" fill="white" transform="translate(0.40625 184.623)"/>
</clipPath>
<clipPath id="clip4_1651_2">
<rect width="511.185" height="142.62" fill="white" transform="translate(0.40625 184.623)"/>
</clipPath>
<clipPath id="clip5_1651_2">
<rect width="511.185" height="142.62" fill="white" transform="translate(0.40625 184.623)"/>
</clipPath>
<clipPath id="clip6_1651_2">
<rect width="313.972" height="103.198" fill="white" transform="translate(197.617 204.333)"/>
</clipPath>
<clipPath id="clip7_1651_2">
<rect width="313.972" height="103.198" fill="white" transform="translate(197.617 204.333)"/>
</clipPath>
<clipPath id="clip8_1651_2">
<rect width="313.972" height="103.198" fill="white" transform="translate(197.617 204.333)"/>
</clipPath>
<clipPath id="clip9_1651_2">
<rect width="313.972" height="103.198" fill="white" transform="translate(197.617 204.333)"/>
</clipPath>
<clipPath id="clip10_1651_2">
<rect width="171.658" height="142.62" fill="white" transform="translate(0.40625 184.623)"/>
</clipPath>
<clipPath id="clip11_1651_2">
<rect width="171.658" height="142.62" fill="white" transform="translate(0.40625 184.623)"/>
</clipPath>
</defs>
</svg>
