<svg fill="currentColor" viewBox="0 0 24 24" xmlns="http://www.w3.org/2000/svg">
    <path
        d="M6.765 11.53c0 .296.03.536.087.713.063.175.144.367.255.576a.35.35 0 01.055.184c0 .08-.048.161-.15.24l-.503.336a.382.382 0 01-.208.072c-.08 0-.16-.038-.24-.11a2.478 2.478 0 01-.287-.377 6.212 6.212 0 01-.247-.473c-.623.737-1.405 1.106-2.347 1.106-.67 0-1.206-.194-1.596-.578-.392-.383-.591-.896-.591-1.537 0-.681.24-1.233.726-1.65.488-.417 1.134-.624 1.956-.624.27 0 .55.024.846.063.295.04.6.105.918.177v-.585c0-.609-.128-1.034-.375-1.281-.255-.249-.687-.369-1.302-.369-.279 0-.566.033-.861.105-.294.07-.582.16-.862.272-.091.04-.184.076-.28.104a.489.489 0 01-.127.024c-.112 0-.168-.08-.168-.248v-.393c0-.128.015-.226.056-.28a.598.598 0 01.224-.169 4.54 4.54 0 011.005-.36c.39-.105.806-.152 1.245-.152.95 0 1.644.216 2.091.649.44.431.663 1.088.663 1.97v2.595h.017zm-3.241 1.217c.262 0 .534-.048.822-.144.287-.096.542-.273.757-.513.129-.147.222-.322.272-.511.048-.194.08-.425.08-.698v-.336a6.639 6.639 0 00-1.485-.184c-.535 0-.925.104-1.189.32-.264.217-.39.521-.39.921 0 .375.095.656.294.85.192.199.471.295.838.295zm6.409.866c-.144 0-.24-.024-.303-.082-.065-.048-.12-.159-.168-.312L7.587 7.03a1.407 1.407 0 01-.072-.321c0-.128.063-.2.19-.2h.784c.15 0 .254.024.31.08.065.048.113.16.16.312l1.341 5.303L11.546 6.9c.04-.159.088-.264.152-.312a.548.548 0 01.32-.08h.639c.15 0 .255.024.317.08.065.048.12.16.153.312l1.26 5.367 1.38-5.367a.69.69 0 01.161-.312.52.52 0 01.312-.08h.742c.128 0 .2.065.2.2 0 .04-.009.081-.015.129a1.152 1.152 0 01-.057.2l-1.925 6.19c-.046.16-.103.265-.166.313a.51.51 0 01-.305.08h-.685c-.152 0-.255-.024-.32-.08-.064-.056-.12-.16-.151-.32l-1.238-5.165-1.23 5.159c-.039.16-.087.263-.15.319-.064.057-.177.081-.319.081h-.687v-.002zm10.257.216c-.414 0-.827-.048-1.23-.145-.399-.095-.71-.2-.918-.32-.128-.073-.215-.152-.248-.226a.57.57 0 01-.046-.223v-.408c0-.168.063-.249.183-.249a.45.45 0 01.144.024c.048.017.12.048.2.081.27.12.567.216.877.28.32.063.63.096.95.096.503 0 .893-.088 1.165-.264a.863.863 0 00.416-.761.78.78 0 00-.216-.56c-.143-.153-.415-.29-.806-.417l-1.158-.36c-.582-.184-1.014-.458-1.276-.818a1.912 1.912 0 01-.4-1.16c0-.336.072-.633.215-.89.144-.255.336-.48.576-.657a2.55 2.55 0 01.83-.416c.319-.096.654-.136 1.005-.136.177 0 .36.008.535.032.33.04.657.113.974.217.143.048.255.096.335.144a.692.692 0 01.24.2c.052.078.077.17.071.264v.376c0 .168-.063.256-.183.256a.828.828 0 01-.303-.095 3.642 3.642 0 00-1.533-.313c-.454 0-.814.072-1.062.225-.248.15-.375.385-.375.713 0 .223.08.415.24.568.159.152.454.303.878.44l1.134.36c.574.184.99.441 1.237.77.248.328.366.704.366 1.121 0 .346-.07.656-.207.929-.141.274-.34.514-.582.705-.247.2-.543.345-.887.449a3.78 3.78 0 01-1.141.168zM21.698 17.72c-2.625 1.945-6.441 2.979-9.722 2.979-4.598 0-8.74-1.706-11.87-4.541-.247-.225-.023-.53.27-.353 3.386 1.97 7.56 3.164 11.88 3.164 2.912 0 6.113-.609 9.059-1.859.44-.199.814.288.383.61z" />
    <path
        d="M22.791 16.47c-.335-.43-2.218-.207-3.072-.104-.255.034-.296-.192-.065-.36 1.5-1.057 3.968-.752 4.255-.4.288.36-.08 2.835-1.485 4.02-.215.184-.422.09-.326-.15.318-.795 1.029-2.58.693-3.005v-.001z" />
</svg>