<svg role="img" fill="currentColor" viewBox="0 0 24 24" xmlns="http://www.w3.org/2000/svg">
	<title>Java</title>
	<path
		d="M11.5 12.887s-1.337-2.578-1.288-4.462c.037-1.346 3.072-2.677 4.264-4.609C15.665 1.883 14.327 0 14.327 0s.298 1.388-.495 2.824c-.793 1.438-3.72 2.282-4.859 4.76-1.138 2.478 2.528 5.303 2.528 5.303z" />
	<path
		d="M16.509 5.055s-4.56 1.736-4.56 3.717c0 1.984 1.238 2.628 1.438 3.271.198.646-.347 1.736-.347 1.736s1.784-1.24 1.485-2.677c-.298-1.438-1.685-1.885-.891-3.32.53-.964 2.875-2.727 2.875-2.727z" />
	<path
		d="M11.007 15.506c4.213-.15 5.75-1.48 5.75-1.48-2.725.743-9.963.694-10.014.15-.048-.545 2.23-.992 2.23-.992s-3.567 0-3.865.892c-.298.892 1.688 1.578 5.899 1.43zM17.103 17.595s4.124-.88 3.716-3.12c-.494-2.727-3.37-1.19-3.37-1.19s2.034 0 2.23 1.238c.2 1.239-2.576 3.072-2.576 3.072zM15.07 16.407s-1.038.272-2.578.445c-2.064.232-4.56.049-4.759-.298-.195-.347.347-.545.347-.545-2.479.595-1.122 1.634 1.783 1.834 2.49.17 6.198-.743 6.198-.743l-.99-.694zM8.678 18.572s-1.125.031-1.19.627c-.066.591.691 1.122 3.468 1.287 2.776.165 4.727-.759 4.727-.759l-1.256-.762s-.794.167-2.017.332c-1.223.165-3.732-.133-3.831-.363-.101-.232.099-.363.099-.363z" />
	<path
		d="M19.481 21.248c.43-.463-.133-.827-.133-.827s.198.232-.064.496c-.264.263-2.677.924-6.544 1.122-3.866.2-8.063-.363-8.196-.859-.128-.495 2.15-.89 2.15-.89-.264.032-3.436.098-3.537.958-.099.858 1.387 1.553 7.338 1.553 5.947-.001 8.559-1.092 8.986-1.553z" />
	<path
		d="M17.169 23.197c-2.611.527-10.54.195-10.54.195s5.153 1.223 11.035.2c2.812-.49 2.976-1.851 2.976-1.851s-.86.926-3.471 1.456z" />
</svg>