<svg fill="currentColor" viewBox="0 0 24 24" xmlns="http://www.w3.org/2000/svg"><path d="M17.967 0H6.014C2.703 0 0 2.705 0 6.02V18c0 3.295 2.703 6 6.014 6h11.972C21.297 24 24 21.295 24 17.981V6.019C23.981 2.705 21.278 0 17.967 0zM7.994 19.429H4.568V9.524h3.426v9.905zM6.262 8C5.29 8 4.51 7.22 4.51 6.248s.78-1.753 1.75-1.753c.971 0 1.752.781 1.752 1.753C7.993 7.219 7.213 8 6.262 8zm13.17 11.429h-2.874v-4.8c0-1.162-.152-2.648-1.732-2.648-1.617 0-1.884 1.257-1.884 2.571v4.877h-2.855V9.524h2.665v1.333h.076c.419-.762 1.39-1.352 2.912-1.352 3.14 0 3.692 1.81 3.692 4.495v5.429z"/></svg>