<svg fill="currentColor" viewBox="0 0 24 24" xmlns="http://www.w3.org/2000/svg"><path d="M2.365 10.119c.581.155 1.102.465 1.615.771.345.202.717.415 1.131.337.218-.068.415-.177.615-.286l.142-.076c.353-.19.695-.394 1.03-.613.211-.132.362-.15.609-.134.245.104.245.104.328.188.004.087.006.175.005.263v.546l-.002.498v.508l-.003.997H6.616c-.015-.433-.03-.866-.047-1.312l-.653.361-.125.069-.126.07a1.727 1.727 0 01-1.186.127 3.19 3.19 0 01-.347-.159l-.086-.044c-.532-.274-.532-.274-.758-.424-.015.433-.03.866-.047 1.312H2.023a197.282 197.282 0 01-.015-1.566l-.004-.572-.003-.18v-.167L2 10.486c.039-.228.127-.368.365-.367zM10.993 10.095c.687.092 1.334.497 1.946.802a231.67 231.67 0 00.722.36l.127.062.11.055c.163.074.332.134.5.197v-1.453h1.218v2.906c-.248.125-.629.096-.893.02-.238-.09-.463-.206-.689-.322l-.211-.103a41.533 41.533 0 01-.412-.205c-.232-.117-.466-.23-.701-.342l-.098-.048c-.248-.12-.472-.183-.746-.265v1.36h-1.172a2.429 2.429 0 01-.055-.486l-.002-.147v-.159a720.757 720.757 0 01-.01-1.365l-.002-.158c.001-.405.001-.405.097-.58.113-.106.113-.106.271-.129zM22.085 10.587c.299.265.486.596.526.997-.018.385-.23.778-.485 1.06-.683.611-1.628.663-2.495.623-.605-.04-1.262-.29-1.706-.714a4.273 4.273 0 01-.152-.185 23.25 23.25 0 00-.064-.073c-.193-.264-.156-.602-.124-.911.08-.41.325-.653.656-.89 1.093-.667 2.785-.68 3.844.093zm-3.738.43c-.187.235-.182.498-.153.789.09.333.337.553.61.75.595.33 1.348.32 1.998.158.384-.11.842-.259 1.049-.627.108-.287.143-.552.047-.847-.327-.479-.837-.704-1.39-.817-.765-.115-1.583.051-2.161.595zM8.632 10.118H9.85v3H8.63v-3zM16.413 10.118h.61v3h-.61v-3z"/></svg>