<svg role="img" fill="currentColor" viewBox="0 0 24 24" xmlns="http://www.w3.org/2000/svg">
	<title>Resume</title>
	<path
		d="M9.5453 1.96248C9.7772 1.9626 10.0091 1.96249 10.241 1.96242C10.63 1.96233 11.0189 1.96244 11.4079 1.96267C11.8541 1.96292 12.3002 1.96284 12.7464 1.96258C13.1334 1.96237 13.5203 1.96234 13.9073 1.96246C14.1367 1.96253 14.3661 1.96255 14.5955 1.96239C17.1628 1.96087 17.1628 1.96087 18.1377 2.07425C18.1899 2.08031 18.2421 2.08637 18.2959 2.09262C19.3633 2.22625 20.3811 2.55348 21.098 3.39865C22.344 5.02684 22.0389 7.60741 22.0376 9.5453C22.0375 9.7772 22.0376 10.0091 22.0376 10.241C22.0377 10.63 22.0376 11.0189 22.0374 11.4079C22.0371 11.8541 22.0372 12.3002 22.0375 12.7464C22.0377 13.1334 22.0377 13.5203 22.0376 13.9073C22.0375 14.1367 22.0375 14.3661 22.0377 14.5955C22.0392 17.1628 22.0392 17.1628 21.9258 18.1377C21.9197 18.1899 21.9137 18.2421 21.9074 18.2959C21.7738 19.3633 21.4466 20.3811 20.6014 21.098C18.9732 22.344 16.3927 22.0389 14.4548 22.0376C14.2229 22.0375 13.991 22.0376 13.7591 22.0376C13.3701 22.0377 12.9811 22.0376 12.5922 22.0374C12.146 22.0371 11.6998 22.0372 11.2536 22.0375C10.8667 22.0377 10.4797 22.0377 10.0928 22.0376C9.86337 22.0375 9.63395 22.0375 9.40453 22.0377C6.8373 22.0392 6.8373 22.0392 5.86233 21.9258C5.81014 21.9197 5.75794 21.9137 5.70416 21.9074C4.63672 21.7738 3.61896 21.4466 2.90207 20.6014C1.65608 18.9732 1.96115 16.3926 1.96248 14.4548C1.9626 14.2229 1.96249 13.991 1.96242 13.7591C1.96233 13.3701 1.96244 12.9811 1.96267 12.5922C1.96292 12.146 1.96284 11.6998 1.96258 11.2536C1.96237 10.8667 1.96234 10.4797 1.96246 10.0928C1.96253 9.86337 1.96255 9.63395 1.96239 9.40453C1.96087 6.8373 1.96087 6.8373 2.07425 5.86233C2.08031 5.81014 2.08637 5.75794 2.09262 5.70416C2.22625 4.63672 2.55348 3.61896 3.39865 2.90207C5.02684 1.65608 7.60741 1.96115 9.5453 1.96248ZM7.44232 4.46841C7.38864 4.46994 7.38864 4.46994 7.33388 4.47149C6.89997 4.49198 6.57439 4.64799 6.28128 4.96878C6.03576 5.32008 5.95892 5.61461 5.96463 6.03829C5.96422 6.09164 5.96382 6.145 5.9634 6.19997C5.96239 6.3775 5.96338 6.55495 5.96438 6.73247C5.96423 6.86025 5.96366 6.98803 5.96312 7.1158C5.96205 7.42604 5.96249 7.73626 5.96347 8.0465C5.96423 8.29872 5.96443 8.55093 5.96422 8.80314C5.96419 8.83912 5.96416 8.87509 5.96413 8.91216C5.96407 8.98525 5.964 9.05835 5.96393 9.13144C5.96338 9.81582 5.9645 10.5002 5.96623 11.1846C5.96768 11.7712 5.96779 12.3579 5.9669 12.9446C5.96586 13.6268 5.96557 14.3089 5.96654 14.9911C5.96664 15.0639 5.96674 15.1367 5.96684 15.2095C5.96689 15.2453 5.96694 15.2811 5.96699 15.318C5.96729 15.5698 5.96707 15.8216 5.96665 16.0735C5.96616 16.3805 5.96651 16.6875 5.96794 16.9945C5.96865 17.151 5.96886 17.3075 5.9683 17.464C5.96777 17.6339 5.96868 17.8038 5.96995 17.9737C5.96922 18.0474 5.96921 18.0474 5.96846 18.1225C5.97441 18.5493 6.14115 18.8784 6.43128 19.1896C6.90076 19.6129 7.39984 19.587 7.99535 19.5826C8.09265 19.5829 8.18995 19.5833 8.28724 19.5838C8.55028 19.5849 8.8133 19.5842 9.07634 19.5831C9.35216 19.5822 9.62797 19.5828 9.90379 19.5831C10.3668 19.5834 10.8298 19.5825 11.2928 19.581C11.8275 19.5792 12.3622 19.5793 12.897 19.5804C13.4123 19.5814 13.9275 19.581 14.4428 19.5801C14.6617 19.5797 14.8806 19.5798 15.0995 19.5803C15.3574 19.5808 15.6153 19.5801 15.8731 19.5786C15.9676 19.5782 16.0621 19.5782 16.1565 19.5786C16.8156 19.5975 16.8156 19.5975 17.3907 19.3125C17.4193 19.293 17.448 19.2734 17.4775 19.2532C17.758 19.0454 17.9589 18.7258 18.026 18.3831C18.0358 18.242 18.0373 18.1033 18.0354 17.9618C18.0358 17.9084 18.0362 17.8551 18.0367 17.8001C18.0377 17.6226 18.0367 17.4451 18.0357 17.2676C18.0358 17.1398 18.0364 17.012 18.0369 16.8843C18.038 16.574 18.0376 16.2638 18.0366 15.9536C18.0358 15.7013 18.0356 15.4491 18.0358 15.1969C18.0359 15.143 18.0359 15.1429 18.0359 15.0879C18.036 15.0148 18.0361 14.9417 18.0361 14.8686C18.0367 14.1842 18.0356 13.4999 18.0338 12.8155C18.0324 12.2288 18.0323 11.6421 18.0332 11.0555C18.0342 10.3733 18.0345 9.69113 18.0335 9.00896C18.0334 8.93617 18.0333 8.86339 18.0332 8.7906C18.0331 8.73689 18.0331 8.73689 18.0331 8.68209C18.0328 8.43025 18.033 8.17842 18.0334 7.92658C18.0339 7.61957 18.0335 7.31258 18.0321 7.00558C18.0314 6.84905 18.0312 6.69258 18.0318 6.53605C18.0323 6.36614 18.0314 6.19629 18.0301 6.02638C18.0306 5.97726 18.0311 5.92814 18.0316 5.87752C18.0256 5.45047 17.8586 5.12243 17.5691 4.81051C17.1201 4.40719 16.6626 4.41375 16.0939 4.42048C16.0061 4.42048 15.9184 4.42036 15.8306 4.42013C15.5934 4.41985 15.3562 4.4213 15.119 4.42309C14.8696 4.42469 14.6202 4.42471 14.3708 4.42491C13.9517 4.42547 13.5327 4.42705 13.1136 4.42936C12.5252 4.4326 11.9369 4.43399 11.3485 4.43501C10.8889 4.43587 10.4293 4.43724 9.96975 4.43869C9.92101 4.43884 9.87227 4.43899 9.82205 4.43914C9.53997 4.44003 9.25789 4.44118 8.97581 4.44271C8.89092 4.44314 8.80603 4.4435 8.72114 4.44378C8.29468 4.44526 7.86846 4.45134 7.44232 4.46841Z" />
	<path
		d="M12.8818 7.01383C13.2693 7.27441 13.5705 7.60164 13.6875 8.06247C13.7027 8.216 13.7049 8.36823 13.7051 8.52243C13.7062 8.56234 13.7074 8.60225 13.7086 8.64337C13.7098 8.90902 13.6614 9.1004 13.5404 9.3372C13.4933 9.42032 13.4933 9.42032 13.5 9.5156C13.5698 9.57535 13.5698 9.57535 13.6611 9.63571C14.2663 10.0797 14.726 10.6861 14.8594 11.4375C14.8748 11.5772 14.8824 11.7159 14.8858 11.8564C14.8877 11.9063 14.8877 11.9063 14.8896 11.9573C14.8883 12.1345 14.8611 12.2563 14.7552 12.3957C14.5199 12.6124 14.2341 12.5694 13.9296 12.5693C13.8834 12.5694 13.8372 12.5696 13.7895 12.5698C13.6369 12.5702 13.4843 12.5703 13.3317 12.5703C13.2255 12.5705 13.1194 12.5707 13.0132 12.5708C12.7907 12.5711 12.5681 12.5712 12.3456 12.5712C12.0606 12.5712 11.7756 12.5718 11.4905 12.5726C11.2712 12.5731 11.052 12.5732 10.8327 12.5732C10.7276 12.5732 10.6225 12.5735 10.5174 12.5738C10.3704 12.5743 10.2235 12.5741 10.0765 12.5739C10.0115 12.5743 10.0115 12.5743 9.9452 12.5747C9.67098 12.5733 9.43852 12.5612 9.21973 12.3779C9.00187 11.9825 9.10465 11.5596 9.22376 11.1469C9.43135 10.5036 9.8874 9.89275 10.4531 9.5156C10.431 9.3904 10.405 9.2781 10.3585 9.15946C10.3001 8.95703 10.297 8.77295 10.2979 8.56345C10.2971 8.52577 10.2963 8.4881 10.2956 8.44928C10.2952 7.93981 10.474 7.58146 10.8281 7.21872C10.9614 7.10818 11.0977 7.01946 11.25 6.93747C11.2787 6.92158 11.3074 6.90569 11.337 6.88932C11.8155 6.66793 12.4376 6.75657 12.8818 7.01383ZM11.5781 8.10935C11.4663 8.26801 11.4375 8.36035 11.4375 8.55466C11.506 8.79425 11.6134 8.93783 11.833 9.06736C11.9907 9.10196 12.08 9.09727 12.2344 9.04685C12.3817 8.94786 12.489 8.84123 12.5486 8.67185C12.5752 8.51909 12.5685 8.40601 12.5127 8.26169C12.3649 8.08999 12.2275 7.98139 12 7.94821C11.8296 7.97307 11.7218 8.01356 11.5781 8.10935ZM10.5661 11.0202C10.4903 11.1225 10.4408 11.221 10.4063 11.3437C10.4823 11.4198 10.569 11.4011 10.6741 11.4054C10.7204 11.4074 10.7666 11.4094 10.8143 11.4114C10.8643 11.4132 10.9143 11.4151 10.9658 11.417C11.0171 11.4189 11.0684 11.4209 11.1213 11.4229C11.9478 11.4525 12.7677 11.4283 13.5938 11.3906C13.5114 11.0291 13.2763 10.7542 12.9727 10.5498C12.0834 10.034 11.2124 10.2531 10.5661 11.0202Z" />
	<path
		d="M13.9688 16.0313C14.0515 16.0325 14.0515 16.0325 14.1359 16.0338C14.3088 16.0369 14.4815 16.0412 14.6543 16.0459C14.7356 16.0475 14.7356 16.0475 14.8186 16.0491C14.8948 16.0516 14.8948 16.0516 14.9725 16.0541C15.0175 16.0554 15.0624 16.0566 15.1087 16.0579C15.3079 16.09 15.4328 16.1847 15.5772 16.3213C15.6811 16.4945 15.7024 16.6344 15.6563 16.8281C15.5846 16.9793 15.5096 17.1025 15.375 17.2031C15.0183 17.2686 14.6564 17.2586 14.2949 17.2595C14.2446 17.2597 14.2446 17.2597 14.1934 17.2599C14.0165 17.2606 13.8397 17.2611 13.6628 17.2613C13.4806 17.2615 13.2984 17.2627 13.1162 17.264C12.9755 17.2649 12.8348 17.2651 12.6941 17.2652C12.6269 17.2653 12.5597 17.2657 12.4925 17.2663C12.3987 17.2671 12.3048 17.2669 12.2109 17.2667C12.1576 17.2669 12.1043 17.2671 12.0494 17.2672C11.8286 17.2407 11.711 17.1539 11.5664 16.9893C11.4307 16.8003 11.4105 16.6881 11.4375 16.4531C11.5284 16.303 11.6321 16.1516 11.8053 16.0984C11.9055 16.0783 12 16.0685 12.102 16.0633C12.1593 16.0603 12.1593 16.0603 12.2178 16.0573C12.2591 16.0555 12.3003 16.0537 12.3428 16.0518C12.3863 16.0498 12.4298 16.0478 12.4747 16.0458C12.9729 16.0254 13.4703 16.0234 13.9688 16.0313Z" />
	<path
		d="M13.4383 13.7283C13.5965 13.7285 13.7546 13.7283 13.9128 13.728C14.015 13.728 14.1172 13.7281 14.2194 13.7282C14.2659 13.7281 14.3123 13.728 14.3602 13.7279C15.2411 13.7308 15.2411 13.7308 15.4746 13.8662C15.6338 14.052 15.6802 14.1835 15.6746 14.4359C15.6413 14.609 15.5479 14.6924 15.4219 14.8125C14.8893 14.99 14.2149 14.9136 13.6599 14.9124C13.5206 14.9121 13.3812 14.9124 13.2419 14.9127C11.7953 14.9135 11.7953 14.9135 11.4932 14.6426C11.4058 14.4678 11.4064 14.3007 11.4375 14.1094C11.5387 13.9395 11.6324 13.8563 11.8125 13.7813C12.3408 13.6893 12.9043 13.7273 13.4383 13.7283Z" />
	<path
		d="M9.27539 13.7256C9.32334 13.7247 9.32334 13.7247 9.37225 13.7238C9.65845 13.723 9.89964 13.7542 10.1221 13.9482C10.2344 14.1013 10.2523 14.2384 10.2422 14.4256C10.2012 14.6103 10.1082 14.7178 9.98438 14.8594C9.81718 14.943 9.62356 14.9149 9.43945 14.915C9.3983 14.9156 9.35715 14.9162 9.31476 14.9168C9.0531 14.9173 8.82757 14.894 8.57812 14.8125C8.42819 14.6587 8.34968 14.546 8.3291 14.332C8.34633 14.1253 8.40154 14.0343 8.53125 13.875C8.76601 13.7185 8.9997 13.7258 9.27539 13.7256Z" />
	<path
		d="M10.125 16.2656C10.2456 16.4633 10.2543 16.6494 10.2188 16.875C10.1229 17.0634 10.0668 17.1282 9.86829 17.1958C9.47968 17.2754 8.95508 17.3147 8.58801 17.1414C8.42678 17.0187 8.35215 16.8812 8.29688 16.6875C8.3187 16.4729 8.36669 16.385 8.51367 16.2276C8.9313 15.9263 9.72712 15.9341 10.125 16.2656Z" />
</svg>