<svg role="img" fill="currentColor" viewBox="0 0 24 24" xmlns="http://www.w3.org/2000/svg">
	<title>Resume</title>
	<path
		d="M18.7968 0H5.20375C3.69433 0 2.47126 1.22361 2.47126 2.73249V21.2675C2.47126 22.7764 3.69433 24 5.20375 24H18.7957C20.3051 24 21.5282 22.7764 21.5282 21.2675V2.73249C21.5293 1.22361 20.3046 0 18.7968 0ZM5.03215 9.21122C5.03215 8.57073 5.55187 8.0521 6.19127 8.0521H6.59678C6.1645 7.57446 5.8989 6.94271 5.8989 6.24647C5.8989 4.75836 7.10611 3.55169 8.59423 3.55169C10.0834 3.55169 11.2896 4.75781 11.2896 6.24702C11.2896 6.94216 11.024 7.57446 10.5906 8.0521H10.978C11.6185 8.0521 12.1372 8.57073 12.1372 9.21122V11.1666C12.1372 11.7798 11.659 12.276 11.0578 12.3175H6.11149C5.51034 12.276 5.03215 11.7798 5.03215 11.1666V9.21122ZM17.8749 20.4478H6.12515C5.52181 20.4478 5.03215 19.9581 5.03215 19.3548C5.03215 18.7514 5.52181 18.2618 6.12515 18.2618H17.8749C18.4782 18.2618 18.9678 18.7514 18.9678 19.3548C18.9678 19.9581 18.4782 20.4478 17.8749 20.4478ZM17.8749 16.349H6.12515C5.52181 16.349 5.03215 15.8594 5.03215 15.256C5.03215 14.6527 5.52181 14.163 6.12515 14.163H17.8749C18.4782 14.163 18.9678 14.6527 18.9678 15.256C18.9678 15.8594 18.4782 16.349 17.8749 16.349ZM17.8749 12.2503H14.3226C13.7193 12.2503 13.2296 11.7606 13.2296 11.1573C13.2296 10.554 13.7193 10.0643 14.3226 10.0643H17.8749C18.4782 10.0643 18.9678 10.554 18.9678 11.1573C18.9678 11.7606 18.4782 12.2503 17.8749 12.2503Z" />
</svg>