<svg fill="currentColor" viewBox="0 0 24 24" xmlns="http://www.w3.org/2000/svg"><path d="M18.352 2.977l.053.038c.216.155.427.314.628.488.067.058.135.113.203.168.102.082.194.17.285.264.046.046.092.088.142.13.161.14.31.292.449.454.044.05.089.1.134.148.14.15.268.306.392.469l.105.133c.302.386.578.796.82 1.223l.03.056A11.082 11.082 0 0123 11.107c.207 2.415-.435 4.825-1.976 7.244l-.038.053a8.609 8.609 0 01-.488.628 7.082 7.082 0 00-.168.203c-.082.102-.17.194-.264.285a2.425 2.425 0 00-.13.142c-.14.161-.292.31-.454.449a5.69 5.69 0 00-.148.134c-.15.14-.306.268-.469.392l-.133.105a9.779 9.779 0 01-1.223.82l-.056.03A11.082 11.082 0 0112.892 23c-2.415.207-4.825-.435-7.244-1.976l-.054-.038a8.625 8.625 0 01-.627-.488 7.121 7.121 0 00-.203-.168 3.306 3.306 0 01-.285-.264 2.433 2.433 0 00-.142-.13 4.168 4.168 0 01-.449-.454 5.603 5.603 0 00-.134-.148 6.207 6.207 0 01-.392-.469 9.775 9.775 0 01-.925-1.357l-.031-.055a11.08 11.08 0 01-1.398-4.491L1 12.89c-.207-2.414.435-4.824 1.976-7.243l.038-.054c.155-.215.314-.426.488-.627.058-.067.113-.135.168-.203.082-.102.17-.194.264-.285.046-.046.088-.092.13-.142.14-.161.292-.31.454-.449.05-.044.1-.089.148-.134.15-.14.306-.268.469-.392l.133-.105a9.775 9.775 0 011.223-.82l.056-.03A11.072 11.072 0 0111.107 1c2.415-.207 4.825.435 7.244 1.976zm-7.641 3.14l-.075.018a6.471 6.471 0 00-1.027.334l-.051.021a5.65 5.65 0 00-2.035 1.495c-.034.04-.068.078-.103.116-.836.942-1.399 2.304-1.4 3.566a631.9 631.9 0 00-.002.444 4.968 4.968 0 00.119 1.204c.1.431.24.839.425 1.24l.024.05c.2.43.45.825.75 1.192l.035.043c.255.312.536.601.856.848l.07.055c1.246.993 2.81 1.387 4.383 1.21a5.642 5.642 0 003.093-1.43l.118-.104c.183-.165.357-.338.515-.528l.034-.041.116-.141.038-.046.035-.045.033-.039a.342.342 0 00.049-.134l-.032-.023-.097-.07-.113-.082-.288-.208c-.17-.123-.341-.246-.513-.367-.19-.134-.38-.27-.568-.407l-.264-.19-.32-.231c-.159-.115-.317-.23-.477-.344-.178-.126-.355-.254-.532-.382l-.212-.154-.106-.076-.262-.19c-.222-.16-.442-.32-.662-.482l-.05-.038a7.179 7.179 0 01-.104-.078l-.05-.039-.046-.035c-.037-.03-.037-.03-.085-.026v-.046l.05-.02c.07-.029.131-.064.195-.103l.077-.047.041-.026.22-.135.048-.028c.171-.105.344-.207.517-.31.235-.139.47-.279.703-.421.234-.143.468-.283.703-.422.269-.16.537-.32.803-.482l.47-.284c.407-.244.812-.491 1.212-.746a.965.965 0 00-.163-.316l-.035-.05a6.416 6.416 0 00-.623-.759l-.041-.043a5.072 5.072 0 00-.568-.52l-.038-.029c-.943-.725-2.112-1.208-3.311-1.218h-.072c-.709-.01-.709-.01-1.407.1z"/></svg>