<svg role="img" fill="currentColor" viewBox="0 0 24 24" xmlns="http://www.w3.org/2000/svg">
    <title>Yup</title>
    <path
        d="M3.223-.009h.404a302.889 302.889 0 00.841 0l.598-.001a1025.015 1025.015 0 012.738-.002h2.948L13.3-.014a2487.814 2487.814 0 013.17-.001h.076l1.209-.001a485.681 485.681 0 011.874-.001 108.552 108.552 0 01.82 0c.994-.005 1.893.283 2.61.992.576.595.954 1.415.95 2.248a985.344 985.344 0 010 .404v.841l.001.598a1256.056 1256.056 0 01.002 2.433v3.253a2486.008 2486.008 0 01.003 5.412v.382l.001 1.209a448.152 448.152 0 01.001 1.874 110.328 110.328 0 010 .82c.005.994-.283 1.893-.992 2.61-.595.576-1.415.954-2.248.95h-.629a253.768 253.768 0 01-1.214.001 1256.021 1256.021 0 01-2.433.002h-3.253c-.849 0-1.698 0-2.548.002-.954 0-1.91.002-2.864.001h-.382l-1.209.001a448.13 448.13 0 01-1.874.001 110.327 110.327 0 01-.82 0c-.994.005-1.893-.283-2.61-.992-.576-.595-.954-1.415-.95-2.248v-.094-.31a302.913 302.913 0 000-.841l-.001-.598a1024.989 1024.989 0 01-.002-2.433v-.305-.077-2.136-.081-.408-.082A29811.6 29811.6 0 01-.015 10.7a2488.173 2488.173 0 01-.001-3.17v-.076l-.001-1.209a485.61 485.61 0 01-.001-1.874 108.56 108.56 0 010-.82C-.022 2.556.266 1.657.975.94 1.57.364 2.39-.014 3.223-.01zm14.84 8.707c-.063.032-.063.032-.232.066l-.033-.404h-1.281c-.028.21-.028.21-.038.417v1.988a1404.334 1404.334 0 000 2.127c-.001 1.917 0 3.832.038 5.748h1.28c.024-.252.04-.497.044-.75l.002-.106.003-.223.01-.578.003-.114c.008-.421.022-.842.04-1.262.217.021.41.071.616.138a3.725 3.725 0 002.182-.003l.067-.022a2.89 2.89 0 00.876-.484l.07-.051c.658-.523 1.083-1.456 1.184-2.275.128-1.225.071-2.541-.71-3.553l-.072-.087-.076-.095c-.535-.625-1.281-.886-2.081-.95-.692-.04-1.3.11-1.891.473zm-9.4-.338a274.593 274.593 0 00.02 4.834c.013.736.146 1.523.677 2.074.351.311.757.535 1.224.608l.072.012c.721.095 1.554-.045 2.144-.495a7.34 7.34 0 00.283-.24c.086-.076.175-.149.265-.22l.034.842h1.348V8.36h-1.348v.467a709.814 709.814 0 01-.01 2.458 242.465 242.465 0 01-.003 1.238 49.387 49.387 0 01-.002.55c.002.467-.09.815-.423 1.152a2.346 2.346 0 01-1.652.539c-.329-.041-.694-.136-.91-.404-.301-.471-.352-.983-.352-1.53v-.149c-.002-.131-.002-.263-.002-.395l-.002-.415-.003-.783-.004-.894-.008-1.834H8.663zm-7.652.033c.025.195.053.348.12.527l.026.074c.12.33.249.658.377.986l.084.216c.18.466.364.931.547 1.396a198.056 198.056 0 01.853 2.195c.8 2.088.8 2.088.574 2.747-.21.42-.568.631-.996.782-.287.091-.58.135-.877.178a58.362 58.362 0 00-.008.632 22.689 22.689 0 00-.003.303c-.002.075-.002.075.011.178.11.073.123.075.246.058l.087-.012.093-.015.096-.014c.78-.126 1.555-.438 2.074-1.062.166-.253.288-.513.391-.797l.046-.122.17-.463.074-.207c.158-.432.314-.865.47-1.298l.457-1.258a483.768 483.768 0 00.8-2.21c.16-.448.323-.896.488-1.343l.114-.309a136.41 136.41 0 01.246-.666l.036-.093.031-.087.028-.074c.027-.088.027-.088.02-.242H6.37l-.152.45a247.635 247.635 0 01-1.037 3.03l-.24.687-.11.323a169.98 169.98 0 00-.171.494l-.03.086a2.932 2.932 0 01-.182.425 2.036 2.036 0 01-.264-.53l-.037-.097-.079-.21-.17-.456-.09-.238c-.14-.372-.283-.744-.426-1.116-.261-.676-.52-1.353-.78-2.03l-.047-.126-.264-.692h-1.28z" />
    <path
        d="M20.802 9.824c.405.32.629.873.689 1.373.022.246.022.493.023.74l.002.25c.005.774-.177 1.452-.701 2.046a1.713 1.713 0 01-.413.272c-.022.01-.043.022-.065.033-.338.163-.68.21-1.052.205l-.116-.001c-.453-.008-.88-.068-1.239-.368-.112-.141-.104-.275-.109-.453l-.002-.071-.006-.236a390.393 390.393 0 01-.069-3.103c-.011-.495-.011-.495.105-.646.114-.1.245-.17.383-.233l.068-.033c.85-.406 1.72-.302 2.502.225z" />
</svg>