<svg role="img" fill="currentColor" viewBox="0 0 24 24" xmlns="http://www.w3.org/2000/svg">
    <title>Zustand</title>
    <path
        d="M18.0497 0.206625C17.781 0.214436 17.5155 0.267689 17.2646 0.364125C17.1476 0.409125 16.9803 0.499 16.7625 0.63375C16.6002 0.734122 16.4361 0.831637 16.2703 0.92625C16.0685 1.1089 15.8657 1.29053 15.6621 1.47113C15.4662 1.66941 15.2939 1.88954 15.1483 2.12719C15.1447 2.1332 15.1425 2.14028 15.1418 2.14797C15.1411 2.15566 15.142 2.16379 15.1444 2.17181C15.1526 2.19956 15.1454 2.21625 15.1226 2.22187C15.1026 2.22699 15.0869 2.234 15.0791 2.24137C14.9811 2.33896 14.9126 2.46216 14.8813 2.59687C14.8683 2.64937 14.8469 2.70212 14.8172 2.75512C14.7885 2.80273 14.7672 2.85445 14.7542 2.9085C14.7411 2.97525 14.7281 3.04194 14.7154 3.10856C14.7095 3.1306 14.6988 3.15108 14.6842 3.16855C14.6695 3.18601 14.6511 3.20003 14.6304 3.20963C13.4471 2.87141 12.2168 2.72674 10.9873 2.78119C10.9332 2.78331 10.8794 2.79129 10.827 2.805C10.7745 2.819 10.7223 2.83437 10.6703 2.85112C9.37133 2.91723 8.09508 3.21782 6.90319 3.73838C6.81591 3.70099 6.74304 3.63641 6.69544 3.55425L6.62344 3.43181C6.42862 3.15445 6.20451 2.89885 5.955 2.66944C5.87113 2.56394 5.73219 2.45206 5.53819 2.33381C5.08319 2.05631 4.61669 1.91025 4.13869 1.89562L4.02881 1.90069C3.97935 1.90288 3.92988 1.89654 3.88256 1.88194C3.74763 1.8772 3.61452 1.91419 3.50138 1.98787L3.34875 2.0865C2.9505 2.3165 2.63613 2.62556 2.40563 3.01369C2.1435 3.45619 1.9535 3.93919 1.83563 4.46269C1.76288 4.78419 1.7345 5.14056 1.7505 5.53181C1.76463 5.56681 1.77494 5.60281 1.78144 5.63981C1.78669 5.66881 1.78338 5.70494 1.7715 5.74819C1.75538 5.80748 1.747 5.86862 1.74656 5.93006C1.74581 5.97506 1.75988 6.03294 1.78875 6.10369C1.8475 6.24869 1.86825 6.40081 1.851 6.56006C1.94625 6.97756 2.02144 7.287 2.07656 7.48837C2.09131 7.54237 2.092 7.58837 2.07863 7.62637L2.02444 7.73925C1.89123 7.86196 1.77631 8.00315 1.68319 8.1585C1.57344 8.3415 1.51556 8.43781 1.50956 8.44744C1.44281 8.55656 1.38406 8.67056 1.33331 8.78944C0.698625 9.85561 0.28694 11.0395 0.12319 12.2694C0.0701733 12.4128 0.0476929 12.5656 0.0571899 12.7181C0.0110603 13.0342 -0.00713501 13.3536 0.00281491 13.6729L0.0213774 14.2472C0.0252524 14.5951 0.0371899 14.8337 0.0571899 14.9631C0.149476 15.5586 0.293137 16.145 0.486565 16.7158L0.546565 16.8189C0.724454 17.3625 0.947741 17.8901 1.21406 18.3962C1.35019 18.6544 1.45469 18.8301 1.52756 18.9231C1.70543 19.2147 1.90046 19.4955 2.11163 19.764L2.25488 19.9564C2.33938 20.0693 2.43556 20.1721 2.54344 20.265C2.65681 20.4028 2.76975 20.5407 2.88225 20.6788C3.07309 20.8385 3.25953 21.0034 3.44138 21.1733C3.62313 21.3428 3.7875 21.4769 3.9345 21.5756C4.24027 21.7804 4.55679 21.9687 4.88269 22.1396C5.11804 22.3079 5.3584 22.4691 5.60344 22.623C5.75569 22.7334 5.93356 22.8274 6.13706 22.905C6.55356 23.0644 6.93906 23.1929 7.29356 23.2907C7.42481 23.3267 7.60106 23.3982 7.82231 23.5052C7.83713 23.5125 7.85389 23.5156 7.87069 23.514C7.97498 23.5038 8.08005 23.5046 8.18419 23.5163C8.34806 23.5578 8.51213 23.5986 8.67638 23.6389C8.813 23.672 9.34706 23.7196 10.2786 23.7818C10.5375 23.7991 10.7974 23.7984 11.0563 23.7799C11.5666 23.8064 12.0782 23.7928 12.5863 23.7392C12.7419 23.7228 12.9324 23.6886 13.1576 23.6366C13.3469 23.5936 13.5369 23.5534 13.7274 23.5163C13.9323 23.4406 14.1417 23.3779 14.3544 23.3284C14.6795 23.1895 15.0066 23.0557 15.3358 22.9269C15.4278 22.8907 15.5351 22.8357 15.6578 22.7619C15.7765 22.6901 15.8866 22.6374 15.9879 22.6039C16.2284 22.525 16.4347 22.4203 16.6067 22.2898C16.6577 22.2511 16.7183 22.2206 16.7886 22.1985C16.8983 22.164 17.0008 22.11 17.0914 22.0391C17.3204 21.9202 17.5407 21.7851 17.7506 21.6349C17.9596 21.4845 18.1638 21.3276 18.3628 21.1643C18.7166 20.8768 19.0436 20.5579 19.3399 20.2116C19.4287 20.1074 19.5321 20.0166 19.6468 19.9419C19.7936 19.7732 19.9309 19.5965 20.058 19.4124C20.6805 18.6458 21.1875 17.7923 21.5629 16.8789C21.6006 16.8114 21.6359 16.7429 21.6686 16.6733C21.69 16.628 21.7103 16.5548 21.7294 16.4535C21.7411 16.3892 21.7612 16.3266 21.7892 16.2675C21.8109 16.2213 21.8275 16.1676 21.8389 16.1066C21.8494 16.05 21.8693 15.9954 21.8976 15.9452C21.9301 15.8883 21.9499 15.8401 21.9572 15.8006C21.9669 15.7479 21.9761 15.6953 21.9848 15.6428C21.9873 15.6286 21.9838 15.6126 21.9748 15.5978C21.9433 15.5453 21.9564 15.5041 22.0142 15.4742C22.0631 15.4058 22.0871 15.3226 22.0821 15.2387C22.0812 15.222 22.0848 15.2059 22.0924 15.1922C22.1495 15.0872 22.1798 14.9697 22.1805 14.8502C22.241 14.5123 22.2843 14.1726 22.3103 13.8311C22.3106 13.8299 22.3209 13.7574 22.341 13.6136C22.3523 13.533 22.3521 13.4488 22.3406 13.3609C22.3151 13.1644 22.312 12.9656 22.3313 12.7684C22.3062 12.6694 22.3042 12.566 22.3256 12.4661C22.3288 12.4508 22.327 12.4345 22.3206 12.4193C22.3093 12.3919 22.3016 12.3636 22.2975 12.3343C22.2941 12.3118 22.2989 12.2758 22.3118 12.2263C22.3234 12.1822 22.3225 12.1445 22.3091 12.1132C22.2765 12.0341 22.2584 11.9498 22.2557 11.8642C22.2553 11.8527 22.2594 11.8415 22.2671 11.8329C22.2747 11.8242 22.2854 11.8189 22.2969 11.8179C22.5027 11.8027 22.7008 11.7329 22.8707 11.6158C22.9916 11.5332 23.1079 11.4438 23.2189 11.3482C23.3524 11.2806 23.4568 11.1669 23.5129 11.0282C23.5601 10.9644 23.6048 10.8994 23.6469 10.8332C23.655 10.8206 23.6579 10.8041 23.655 10.7871C23.647 10.7394 23.6608 10.7074 23.6963 10.6909C23.7137 10.6831 23.727 10.6728 23.7338 10.6618C23.911 10.3776 23.9965 10.0457 23.9786 9.71119C23.9785 9.69503 23.9819 9.67904 23.9886 9.66431C24.0019 9.63622 24.0035 9.60402 23.9933 9.57469L23.9702 9.50644C23.9275 9.30654 23.8511 9.11537 23.7443 8.94112C23.7323 8.92083 23.7155 8.90383 23.6953 8.89162C23.6247 8.84875 23.5839 8.808 23.5729 8.76937C23.5647 8.74144 23.5461 8.71778 23.5209 8.70337C23.3701 8.61708 23.227 8.51783 23.0933 8.40675C23.0453 8.36675 22.925 8.32406 22.7325 8.27869C22.6455 8.28019 22.5587 8.27687 22.4721 8.26875C22.3449 8.25712 22.259 8.25287 22.2143 8.256C22.0294 8.26849 21.8498 8.32231 21.6885 8.4135C21.5389 8.45917 21.3918 8.5123 21.2475 8.57269C21.2412 8.57531 21.2342 8.5755 21.2277 8.57321C21.2212 8.57093 21.2158 8.56634 21.2124 8.56031C20.7033 7.61267 20.0593 6.74393 19.3007 5.98125C19.2574 5.938 19.2477 5.88706 19.2714 5.82844L19.5846 5.05687C19.8043 4.48237 19.9465 3.87144 20.0111 3.22406C20.074 2.59356 19.9978 1.9925 19.7824 1.42087C19.7656 1.38416 19.7456 1.34902 19.7226 1.31588C19.5008 0.884125 19.1813 0.559 18.7639 0.3405H18.7635C18.6264 0.268756 18.4762 0.225572 18.3219 0.213562C18.2314 0.206116 18.1405 0.203737 18.0497 0.206437V0.206625ZM17.97 0.552C18.0588 0.555652 18.1472 0.567197 18.234 0.5865C18.2914 0.599719 18.348 0.61631 18.4035 0.636187C18.2642 0.586061 18.118 0.557667 17.97 0.552ZM19.1726 1.18013C19.176 1.19301 19.1779 1.20621 19.1784 1.2195C19.1783 1.22978 19.1761 1.23993 19.1719 1.24931C19.174 1.24509 19.1756 1.24043 19.1766 1.23581C19.1789 1.22431 19.179 1.21248 19.1769 1.20094C19.1759 1.19392 19.1745 1.18698 19.1726 1.18013ZM17.5841 1.44094C17.5334 1.44147 17.4827 1.44428 17.4323 1.44937C17.4821 1.44412 17.5326 1.44125 17.5839 1.44075L17.5841 1.44094ZM17.7411 1.44638C17.8475 1.45449 17.953 1.4727 18.0561 1.50075C18.2528 1.55431 18.4357 1.64945 18.5925 1.77975V1.77994C18.4357 1.64963 18.2528 1.55449 18.0561 1.50094C17.953 1.47282 17.8476 1.45455 17.7411 1.44638ZM16.6138 1.79381C16.4844 1.89894 16.3559 2.00537 16.2283 2.11312C16.067 2.24828 15.9228 2.40261 15.7989 2.57269C15.6757 2.74355 15.5734 2.92863 15.4944 3.12394L15.2919 3.63544L15.4941 3.12394C15.5749 2.92519 15.6764 2.74144 15.7989 2.57269C15.9226 2.40251 16.0668 2.24806 16.2279 2.11275C16.3557 2.00525 16.4843 1.89881 16.6138 1.79381ZM17.6723 1.70925C17.9126 1.70437 18.1328 1.77262 18.3328 1.914C18.4028 1.96312 18.4584 2.03194 18.4997 2.12044C18.6142 2.36245 18.7045 2.61518 18.7693 2.87494L18.8143 3.237C18.8157 3.24897 18.8236 3.26437 18.8364 3.28012C18.8742 3.327 18.8754 3.37737 18.8402 3.43125C18.7804 3.52125 18.7626 3.62781 18.7866 3.75094C18.7908 3.77326 18.7902 3.79622 18.7848 3.81823C18.7794 3.84024 18.7692 3.86079 18.7551 3.87844C18.7376 3.89852 18.7263 3.92319 18.7225 3.94952C18.7187 3.97585 18.7225 4.00272 18.7335 4.02694C18.6823 4.07244 18.6655 4.12681 18.6833 4.19006L18.6459 4.36537L18.5959 4.491C18.5946 4.50491 18.5888 4.51802 18.5794 4.52831L18.5801 4.53056L18.579 4.52831C18.5699 4.55299 18.5667 4.57945 18.5696 4.60559C18.5725 4.63174 18.5815 4.65683 18.5959 4.67888C18.5059 4.74638 18.4515 4.83413 18.4328 4.94213H18.4324C18.4167 4.99583 18.4123 5.05221 18.4196 5.10769C18.4271 5.17394 18.4054 5.18587 18.3544 5.1435C17.5181 4.451 16.6033 3.91613 15.6098 3.53888C15.606 3.53736 15.6027 3.53517 15.6003 3.53253C15.5978 3.5299 15.5963 3.52691 15.5959 3.52388L15.5944 3.51281L15.8453 3.12394C16.1944 2.56344 16.6574 2.13387 17.2343 1.83525C17.3908 1.75425 17.5368 1.71225 17.6723 1.70925ZM18.7896 2.25825H18.7914V2.25862L18.7896 2.25825ZM4.33931 2.40469C4.34707 2.40395 4.35449 2.40459 4.36125 2.40656C4.34754 2.40289 4.33147 2.40468 4.31588 2.41162C4.3236 2.40804 4.33153 2.40569 4.33931 2.40469ZM19.002 2.44856C19.0176 2.45769 19.027 2.46831 19.0301 2.48044C19.0331 2.49281 19.0298 2.50662 19.0202 2.52187C19.0296 2.5065 19.0329 2.49256 19.0301 2.48044C19.027 2.46819 19.0176 2.45775 19.002 2.44875V2.44856ZM4.65825 2.45737L4.6725 2.45887L4.68244 2.46225C4.67919 2.46112 4.67588 2.46012 4.6725 2.45925L4.65825 2.45737ZM5.15531 2.53369L5.16188 2.53612L5.16394 2.5365H5.16188L5.15531 2.53369ZM19.8409 2.74425L19.8383 2.75362C19.8389 2.75037 19.8398 2.74725 19.8409 2.74425ZM19.8366 2.83237L19.8377 2.838C19.8553 2.91075 19.8703 2.98419 19.8827 3.05831H19.8823C19.8701 2.98434 19.8551 2.91085 19.8373 2.838L19.8366 2.83237ZM14.9799 2.86069C14.9842 2.86966 14.9899 2.87788 14.9968 2.88506C15.0158 2.90469 15.0409 2.9085 15.0722 2.8965C15.0411 2.9085 15.0159 2.90475 14.9966 2.88525C14.9897 2.87801 14.9842 2.86972 14.9799 2.86069ZM15.1172 2.89144C15.1177 2.89143 15.1182 2.89143 15.1187 2.89144C15.1243 2.89275 15.1296 2.895 15.1352 2.8965L15.1187 2.89181C15.1182 2.89168 15.1177 2.89155 15.1172 2.89144ZM12.0461 2.95762C12.0311 2.95735 12.0161 2.95797 12.0011 2.9595C12.0156 2.95762 12.0306 2.957 12.0461 2.95762ZM19.6849 3.09675C19.6998 3.10475 19.7085 3.11456 19.7111 3.12619C19.7141 3.13744 19.7111 3.1505 19.7021 3.16537C19.7111 3.15062 19.7142 3.1375 19.7113 3.126C19.7084 3.11475 19.6995 3.105 19.6849 3.09675ZM9.03713 3.22425C8.97738 3.23462 8.75213 3.30019 8.36138 3.42094C8.75238 3.30019 8.97756 3.23462 9.03694 3.22425H9.03713ZM19.8039 3.22575C19.8074 3.22487 19.811 3.225 19.8144 3.22612C19.8004 3.22262 19.7828 3.2325 19.7614 3.25575C19.7776 3.238 19.7918 3.228 19.8039 3.22575ZM19.8463 3.27881C19.8553 3.32144 19.8589 3.36331 19.857 3.40444C19.8551 3.44556 19.8479 3.48588 19.8354 3.52538C19.8374 3.67442 19.8163 3.82286 19.7728 3.96544C19.7641 3.99419 19.7369 4.04525 19.6914 4.11863C19.7369 4.0455 19.7641 3.99444 19.7728 3.96544C19.8162 3.82331 19.8371 3.67663 19.8354 3.52538C19.8608 3.44559 19.8645 3.36052 19.8463 3.27881ZM14.6546 3.25256C14.6583 3.278 14.6535 3.30394 14.6411 3.32644C14.6472 3.31495 14.6515 3.30263 14.6539 3.28987C14.6562 3.27751 14.6565 3.26502 14.6546 3.25256ZM11.4324 3.27994L11.4386 3.28031L11.4259 3.28069L11.4324 3.27994ZM10.9311 3.28388L10.9373 3.28425L10.9249 3.28463L10.9311 3.28388ZM11.6273 3.28838L11.6331 3.28875H11.6334V3.28913L11.6273 3.28838ZM11.2388 3.29644L11.232 3.29756L11.2283 3.29719H11.2316L11.2388 3.29644ZM10.3538 3.29925C10.3436 3.31773 10.3307 3.33455 10.3155 3.34912C10.3288 3.3375 10.3414 3.32088 10.3538 3.29925ZM12.1755 3.30881H12.1875L12.1755 3.30919V3.30881ZM10.8834 3.34313C10.7799 3.35593 10.6769 3.37219 10.5744 3.39188C10.6306 3.38314 10.6866 3.37339 10.7424 3.36263C10.7893 3.3555 10.8363 3.34888 10.8834 3.34313ZM14.6166 3.36188C14.6846 3.38938 14.7519 3.41875 14.8187 3.45C14.8606 3.45725 14.9004 3.46694 14.9381 3.47906C14.899 3.46671 14.8591 3.45713 14.8187 3.45C14.7521 3.41889 14.6847 3.38938 14.6166 3.36188ZM9.31763 3.37688C9.31794 3.37687 9.31825 3.37687 9.31856 3.37688C9.31825 3.377 9.31794 3.37712 9.31763 3.37725V3.37688ZM9.357 3.37688C9.35738 3.37687 9.35775 3.37687 9.35813 3.37688C9.3875 3.3965 9.41938 3.40925 9.45375 3.41513L9.46369 3.414L9.45431 3.41531C9.4199 3.40965 9.3871 3.39667 9.35813 3.37725C9.35782 3.37712 9.35732 3.377 9.357 3.37688ZM12.0051 3.40706C12.0051 3.40894 12.0041 3.41081 12.0023 3.41269C12.0041 3.41056 12.0051 3.40881 12.0051 3.40706ZM8.8365 3.83869C8.49863 3.88194 8.22138 3.93506 8.00475 3.99806C7.93814 4.01721 7.87244 4.03942 7.80788 4.06462C7.80638 4.06537 7.80563 4.06519 7.80413 4.06575L7.80788 4.06462C7.87244 4.03942 7.93814 4.01721 8.00475 3.99806C8.2215 3.93494 8.49888 3.88181 8.8365 3.83869ZM9.43406 3.54769C9.42964 3.54773 9.42526 3.54856 9.42113 3.55013C9.42519 3.5483 9.42962 3.54747 9.43406 3.54769ZM19.5024 3.78937C19.4984 3.83062 19.4978 3.88075 19.5004 3.93975L19.5 3.94687V3.94013C19.4974 3.88988 19.4983 3.83951 19.5024 3.78937ZM4.34513 3.94612C4.35286 3.94628 4.36087 3.94814 4.36856 3.95156C4.40269 3.96694 4.44556 3.97106 4.49719 3.96394C4.52456 3.96044 4.55631 3.96606 4.59244 3.98081C4.62103 3.99348 4.65098 4.00285 4.68169 4.00875C5.05269 4.07062 5.33706 4.26163 5.53481 4.58175C5.55606 4.616 5.59825 4.64838 5.66138 4.67888L6.21731 5.30606L6.59231 5.85806C6.59672 5.86456 6.59924 5.87216 6.5996 5.88003C6.59997 5.8879 6.59816 5.89574 6.59438 5.90269C6.54758 5.99177 6.47729 6.06634 6.39113 6.11831C6.38773 6.12027 6.38402 6.12164 6.38025 6.12232C6.37647 6.12301 6.3727 6.123 6.36918 6.1223C6.36566 6.12159 6.36246 6.12021 6.35979 6.11823C6.35711 6.11626 6.35501 6.11373 6.35363 6.11081L6.31763 6.03338C6.317 5.9825 6.296 5.94844 6.25463 5.93119C6.2478 5.92838 6.24013 5.92746 6.23231 5.92851C6.22449 5.92955 6.21676 5.93254 6.20981 5.93719C6.05794 6.03644 6.05969 6.13881 6.21506 6.24431V6.24469C6.22744 6.25381 6.23231 6.267 6.22969 6.28425C6.21081 6.3014 6.19661 6.32308 6.18844 6.34725L6.18975 6.35306L6.18788 6.34744L5.95969 6.55931C5.95325 6.56531 5.94544 6.56964 5.93695 6.57192C5.92845 6.57419 5.91955 6.57434 5.91102 6.57236C5.90249 6.57037 5.89462 6.5663 5.88809 6.56053C5.88157 6.55475 5.8766 6.54744 5.87363 6.53925L5.79244 6.31144C5.78978 6.30409 5.78526 6.29776 5.77953 6.29335C5.77381 6.28894 5.76717 6.28667 5.76056 6.28687C5.65619 6.28937 5.62619 6.34419 5.67056 6.45131C5.71062 6.54858 5.73254 6.65235 5.73525 6.7575C5.73577 6.7737 5.73075 6.78969 5.721 6.80287C5.61955 6.9442 5.49685 7.06899 5.35725 7.17281C5.35074 7.17766 5.34298 7.1803 5.33563 7.18016C5.32827 7.18002 5.3219 7.17711 5.31788 7.17206C5.305 7.15481 5.29938 7.12656 5.301 7.08731C5.3014 7.08025 5.30013 7.0732 5.29729 7.06672C5.29445 7.06025 5.29012 7.05453 5.28466 7.05004C5.2792 7.04555 5.27276 7.0424 5.26586 7.04087C5.25896 7.03933 5.25179 7.03944 5.24494 7.04119C5.06281 7.08669 5.05181 7.16812 5.21194 7.2855L5.15944 7.40044L4.79813 7.74112C4.7604 7.69758 4.73445 7.6451 4.72275 7.58869C4.7077 7.49914 4.67015 7.41488 4.61363 7.34381C4.61179 7.34143 4.60941 7.33954 4.60667 7.3383C4.60394 7.33706 4.60094 7.33651 4.59794 7.33669C4.59494 7.33688 4.59204 7.33779 4.58948 7.33936C4.58692 7.34093 4.58478 7.3431 4.58325 7.34569C4.56627 7.37118 4.55283 7.39888 4.54331 7.428C4.53581 7.45125 4.52269 7.47856 4.50394 7.50994C4.47369 7.56106 4.49094 7.59456 4.55569 7.61044C4.56088 7.61175 4.56555 7.6148 4.56904 7.61917C4.57253 7.62353 4.57468 7.629 4.57519 7.63481L4.59938 7.91475C4.56813 8.06488 4.47619 8.14431 4.32356 8.15306C4.31175 8.05123 4.27197 7.95466 4.20863 7.87406C4.20393 7.86827 4.19743 7.86425 4.19025 7.86271C4.18306 7.86117 4.17564 7.8622 4.16925 7.86562C4.11025 7.89662 4.1015 7.94737 4.143 8.01787C4.17163 8.12637 4.2025 8.23419 4.23563 8.34131C4.14638 8.43119 4.03763 8.47294 3.90938 8.46656C3.81396 8.28901 3.73465 8.10327 3.67238 7.91156C3.62296 7.8239 3.59267 7.72677 3.5835 7.62656L3.52913 7.50094C3.4976 7.51047 3.4643 7.51259 3.43181 7.50712C3.40629 7.50199 3.38373 7.48721 3.36881 7.46587C3.35581 7.44725 3.33994 7.40312 3.32119 7.3335C3.31169 7.29723 3.30523 7.26022 3.30188 7.22287C3.30538 7.261 3.31181 7.29787 3.32119 7.3335C3.33994 7.40325 3.35581 7.4475 3.36881 7.46587C3.38373 7.48721 3.40629 7.50199 3.43181 7.50712C3.45844 7.513 3.49075 7.51081 3.52913 7.50094H3.52969C3.5249 7.44871 3.51421 7.39719 3.49781 7.34737C3.48014 7.2991 3.46916 7.24863 3.46519 7.19738C3.4526 6.95611 3.41706 6.71659 3.35906 6.48206C3.34594 6.42894 3.33594 6.338 3.32906 6.20925C3.32719 6.20981 3.32531 6.20944 3.32344 6.21L3.3285 6.20887C3.33809 6.12403 3.32887 6.03812 3.3015 5.95725C3.29635 5.9414 3.29519 5.92453 3.29813 5.90813C3.321 5.78813 3.33188 5.66681 3.33075 5.54419C3.34649 5.47528 3.33739 5.40304 3.30506 5.34019C3.30191 5.33388 3.30072 5.32671 3.30165 5.31955C3.30259 5.31239 3.3056 5.30556 3.31031 5.29988C3.32442 5.28468 3.33494 5.26652 3.34111 5.24673C3.34727 5.22694 3.34892 5.20601 3.34594 5.1855C3.33631 5.12516 3.34325 5.06333 3.366 5.00663C3.43892 4.81907 3.52846 4.63841 3.63356 4.46681C3.69015 4.37505 3.76541 4.29622 3.85444 4.23544C4.00472 4.13056 4.16154 4.03537 4.32394 3.95044C4.33019 3.94738 4.33743 3.94591 4.34513 3.94612ZM5.40788 3.95419C5.44013 3.99781 5.47344 4.04038 5.50781 4.08188C5.47344 4.04063 5.44013 3.99806 5.40788 3.95419ZM10.6459 3.96112C10.7119 3.95587 10.7731 3.98237 10.8296 4.04062C10.9357 4.15028 11.0227 4.2769 11.0871 4.41525C11.0928 4.42775 11.1028 4.44025 11.1171 4.45275C11.1529 4.48575 11.1787 4.53606 11.1943 4.60369C11.2154 4.69544 11.2534 4.78231 11.3083 4.86431C11.312 4.87006 11.3143 4.87663 11.3149 4.88345C11.3154 4.89026 11.3143 4.89712 11.3117 4.90341C11.309 4.9097 11.3048 4.91524 11.2995 4.91954C11.2941 4.92384 11.2878 4.92677 11.2811 4.92806C11.193 4.94381 11.1268 4.92081 11.0824 4.85906C11.0524 4.81661 11.022 4.77448 10.9911 4.73269C10.801 4.53437 10.6507 4.30157 10.548 4.04681C10.5454 4.04021 10.544 4.03315 10.5441 4.02604C10.5442 4.01894 10.5457 4.01194 10.5485 4.00543C10.5513 3.99893 10.5553 3.99305 10.5604 3.98815C10.5654 3.98325 10.5714 3.97942 10.578 3.97687C10.6011 3.96812 10.6238 3.96287 10.6459 3.96112ZM7.29713 4.09575L7.29094 4.09912L7.28625 4.10063C7.28813 4.10006 7.28869 4.09931 7.29056 4.09875L7.29713 4.09575ZM7.20563 4.14975L7.20525 4.15069L7.20488 4.15031L7.20563 4.14975ZM6.85444 4.20206C6.8682 4.19935 6.88232 4.20054 6.89508 4.20547C6.90784 4.2104 6.91867 4.21886 6.92625 4.22981V4.23019C6.91867 4.21923 6.90784 4.21077 6.89508 4.20584C6.88232 4.20091 6.8682 4.19973 6.85444 4.20244L6.60394 4.2525C6.58611 4.25691 6.56772 4.25868 6.54938 4.25775C6.5625 4.25875 6.58069 4.25687 6.60394 4.25212L6.85444 4.20206ZM16.2069 4.22175C16.2137 4.22475 16.2219 4.22738 16.2287 4.23019C16.4568 4.32789 16.6791 4.43882 16.8943 4.56244C16.9813 4.61256 17.194 4.74025 17.5324 4.9455C17.3206 4.81627 17.1077 4.6887 16.8939 4.56281C16.7864 4.50089 16.6771 4.44211 16.5662 4.38656C16.4552 4.33129 16.3427 4.27927 16.2287 4.23056L16.2069 4.22175ZM18.7058 4.35788C18.714 4.36663 18.7212 4.37338 18.7273 4.37813C18.7334 4.38313 18.7384 4.38644 18.7423 4.38806C18.7368 4.38558 18.7317 4.38222 18.7273 4.37813C18.7199 4.37172 18.7127 4.36484 18.7058 4.35788ZM7.33013 4.39388C7.34325 4.42163 7.35581 4.44938 7.37231 4.47525C7.41525 4.55888 7.46156 4.64063 7.50731 4.72275C7.46156 4.64063 7.41488 4.55906 7.37194 4.47525C7.35544 4.44938 7.34325 4.42144 7.33013 4.39388ZM5.6715 4.407C5.6855 4.41738 5.69969 4.42719 5.71406 4.43644C5.84081 4.51606 5.93163 4.59369 5.9865 4.66931C5.9315 4.59381 5.84069 4.51631 5.71406 4.43681C5.69954 4.42743 5.68534 4.41736 5.6715 4.407ZM7.19281 4.41121C7.19976 4.41282 7.20547 4.41655 7.209 4.42181V4.42219C7.20558 4.41681 7.19977 4.41292 7.19281 4.41121ZM14.1654 4.49962C14.1847 4.50405 14.2027 4.51277 14.2181 4.52513C14.2553 4.55338 14.2823 4.60463 14.2991 4.67888C14.4041 5.14913 14.4561 5.3875 14.4551 5.394C14.4439 5.47425 14.4598 5.54675 14.5028 5.6115C14.5075 5.61844 14.5104 5.62612 14.5114 5.63378C14.5124 5.64144 14.5114 5.64882 14.5084 5.65519C14.4783 5.72144 14.4258 5.75319 14.3511 5.75044C14.3438 5.75012 14.3366 5.74749 14.3305 5.74287C14.3244 5.73825 14.3195 5.73182 14.3166 5.72438C14.2639 5.59895 14.2302 5.46636 14.2166 5.331C14.1264 5.12533 14.0525 4.91294 13.9954 4.69575C13.9914 4.68065 13.9906 4.66494 13.9929 4.64962C13.9953 4.63429 14.0008 4.61967 14.0091 4.60669C14.0606 4.52544 14.1127 4.48981 14.1654 4.49981V4.49962ZM17.3364 4.54406C17.5734 4.66506 17.7945 4.81474 17.9949 4.98975C17.7944 4.81489 17.5733 4.66522 17.3364 4.54406ZM8.80294 4.54444C8.8079 4.54387 8.81302 4.54447 8.81788 4.5462C8.82274 4.54793 8.8272 4.55073 8.83088 4.55438C8.92963 4.65013 9.01725 4.75581 9.09375 4.87144C9.12713 4.92206 9.18113 4.99644 9.25575 5.09456C9.31225 5.16794 9.35956 5.24775 9.39769 5.334C9.44681 5.44575 9.41338 5.47088 9.29738 5.40938C9.21185 5.36455 9.13187 5.30986 9.05906 5.24644C8.97744 5.17594 8.86144 5.01494 8.71106 4.76344C8.70629 4.75547 8.70321 4.74708 8.70212 4.73906C8.70104 4.73105 8.70199 4.72369 8.70488 4.71769L8.78025 4.56056C8.78228 4.5562 8.7854 4.55245 8.78935 4.54965C8.7933 4.54684 8.79796 4.54505 8.80294 4.54444ZM18.5914 4.55025L18.5929 4.55213H18.5925L18.5914 4.55025ZM7.20188 4.61513C7.216 4.62197 7.23125 4.62622 7.24688 4.62769C7.26076 4.62933 7.27383 4.63504 7.28442 4.64409C7.27387 4.63507 7.26089 4.62953 7.24706 4.62787C7.23142 4.62635 7.21599 4.62204 7.20188 4.61513ZM2.20069 4.63538C2.18213 4.70663 2.14856 4.92506 2.10206 5.27325C2.14881 4.922 2.18169 4.70938 2.20069 4.63538ZM7.58855 4.88222C7.58904 4.88946 7.5878 4.89643 7.58494 4.90256C7.57244 4.92631 7.55663 4.93944 7.5375 4.94194C7.5565 4.93944 7.57219 4.92631 7.58456 4.90256C7.58749 4.89646 7.58898 4.88946 7.58855 4.88222ZM18.9909 4.91981C19.0335 4.95914 19.0809 4.99296 19.1319 5.0205C19.1087 5.00388 19.0843 4.98885 19.059 4.9755C19.0352 4.95828 19.0125 4.93969 18.9909 4.91981ZM6.23325 5.01394C6.25288 5.05181 6.27244 5.10038 6.29194 5.15963C6.29719 5.17513 6.30683 5.1888 6.31969 5.199C6.41395 5.27367 6.47662 5.38112 6.49519 5.49994C6.47657 5.3811 6.41384 5.27364 6.3195 5.199C6.30671 5.18878 6.29714 5.17511 6.29194 5.15963C6.27618 5.10962 6.25656 5.06091 6.23325 5.01394ZM18.5891 5.00925C18.585 5.02484 18.5783 5.03965 18.5694 5.05313C18.5634 5.06178 18.5586 5.07125 18.5552 5.08125C18.5585 5.07127 18.5631 5.06181 18.5691 5.05313C18.5781 5.03968 18.5848 5.02486 18.5891 5.00925ZM12.5044 5.26444C12.5181 5.26508 12.5314 5.26949 12.5428 5.27719C12.5483 5.28081 12.5526 5.28662 12.5552 5.29395C12.5579 5.30127 12.5588 5.30982 12.5578 5.31862C12.5484 5.39862 12.5654 5.467 12.6086 5.52375C12.6758 5.61225 12.7103 5.6585 12.7123 5.6625C12.7438 5.73325 12.7698 5.82031 12.7903 5.92369C12.7963 5.95431 12.8091 5.9815 12.8288 6.00525C12.9013 6.09188 12.9416 6.18819 12.9499 6.29419C12.9536 6.34294 12.9341 6.3555 12.8914 6.33187C12.8537 6.31167 12.8235 6.27985 12.8053 6.24112C12.7888 6.20485 12.7713 6.16903 12.7528 6.13369C12.7105 6.06856 12.6727 6.00058 12.6398 5.93025C12.5069 5.74041 12.4238 5.52035 12.3979 5.29013C12.3974 5.28648 12.3978 5.28272 12.3988 5.27922C12.3999 5.27571 12.4016 5.27257 12.4039 5.2701C12.4061 5.26763 12.4088 5.26591 12.4117 5.26512C12.4146 5.26432 12.4176 5.26448 12.4204 5.26556L12.4354 5.27213C12.4406 5.27413 12.4458 5.27527 12.4505 5.27547C12.4552 5.27566 12.4593 5.2749 12.4626 5.27325C12.4756 5.26713 12.4899 5.26412 12.5044 5.26444ZM2.09925 5.29331V5.29369H2.09738L2.09925 5.29331ZM14.3756 5.50763C14.3671 5.50825 14.3494 5.52081 14.3226 5.54531C14.3168 5.55066 14.3129 5.55767 14.3113 5.56537C14.3086 5.58387 14.3171 5.58963 14.3368 5.58263C14.3433 5.58037 14.3494 5.57645 14.3549 5.5711C14.3604 5.56575 14.3651 5.55908 14.3687 5.5515C14.3829 5.5215 14.3853 5.50688 14.3756 5.50763ZM19.0393 5.7705C19.0409 5.77192 19.0428 5.77301 19.0448 5.77369C19.0468 5.77437 19.0489 5.77464 19.051 5.77446C19.0531 5.77428 19.0551 5.77367 19.057 5.77267C19.0588 5.77166 19.0604 5.77029 19.0616 5.76863L19.0635 5.76581L19.062 5.76863C19.0619 5.76862 19.0618 5.76862 19.0616 5.76863C19.0604 5.77029 19.0588 5.77166 19.057 5.77267C19.0551 5.77367 19.0531 5.77428 19.051 5.77446C19.0489 5.77464 19.0468 5.77437 19.0448 5.77369C19.0428 5.77301 19.0409 5.77192 19.0393 5.7705ZM6.52781 5.65706C6.56281 5.65844 6.59175 5.66344 6.61463 5.67206C6.58666 5.66253 6.55736 5.65747 6.52781 5.65706ZM10.7393 5.71781C10.823 5.71431 10.8956 5.77069 10.9571 5.88694C10.9801 5.93044 11.0122 5.96562 11.0533 5.9925C11.0837 6.0125 11.0918 6.04313 11.0777 6.08438C11.0697 6.10766 11.0687 6.13276 11.0748 6.15654C11.0809 6.18031 11.0938 6.20171 11.112 6.21806C11.2764 6.36494 11.3696 6.50737 11.3918 6.64537C11.4003 6.697 11.3835 6.70725 11.3415 6.67612C11.1244 6.51519 10.9225 6.33461 10.7385 6.13669C10.7277 6.1253 10.7206 6.11022 10.7183 6.09356C10.7045 6.00369 10.6578 5.93137 10.578 5.87662C10.571 5.87175 10.5652 5.8653 10.5611 5.85777C10.5571 5.85025 10.5548 5.84187 10.5546 5.83332C10.5544 5.82477 10.5562 5.81629 10.5599 5.80857C10.5635 5.80085 10.569 5.7941 10.5758 5.78888C10.6343 5.74363 10.6888 5.71987 10.7393 5.71762V5.71781ZM6.65006 5.91225L6.65081 5.91413C6.65069 5.91412 6.65056 5.91412 6.65044 5.91413C6.65006 5.91356 6.65044 5.91281 6.65006 5.91225ZM3.21938 6.36487H3.21975L3.21938 6.36562V6.36487ZM18.9949 6.56081C19.0108 6.56011 19.0266 6.56531 19.0393 6.57544C19.2831 6.77169 19.4006 7.01862 19.3918 7.31625C19.3872 7.46612 19.3484 7.58025 19.2756 7.65862C19.2032 7.73625 19.1101 7.76875 18.9962 7.75612C18.9084 7.7465 18.8286 7.70425 18.7566 7.62937C18.5168 7.38062 18.4959 7.08644 18.6939 6.74681C18.7623 6.62981 18.8626 6.56781 18.9949 6.56081ZM14.6188 6.741V6.7425L14.5663 6.91387L14.6184 6.7425C14.6184 6.74187 14.6186 6.74137 14.6188 6.741ZM3.33131 6.77475C3.33215 6.77554 3.33296 6.77636 3.33375 6.77719C3.3329 6.77629 3.33202 6.77542 3.33113 6.77456L3.33131 6.77475ZM19.7128 6.82219C19.7942 6.91844 19.8761 7.02094 19.9584 7.12969C20.1107 7.33119 20.2653 7.53106 20.4221 7.72931C20.4985 7.83469 20.5631 7.92894 20.6158 8.01206C20.554 7.91599 20.4893 7.82182 20.4218 7.72969C20.265 7.5316 20.1104 7.33177 19.9581 7.13025C19.8792 7.02526 19.7975 6.92253 19.7128 6.82219ZM3.24206 6.85369C3.26048 6.87174 3.27213 6.89557 3.27506 6.92119C3.27184 6.89565 3.26023 6.87191 3.24206 6.85369ZM15.6339 6.9615C15.7236 6.96275 15.8133 6.97262 15.903 6.99112C15.993 7.0095 16.0831 7.03656 16.1734 7.07231L16.6249 7.20169C16.8074 7.24394 16.9829 7.30669 17.1516 7.38994C17.3374 7.46344 17.5118 7.55619 17.6745 7.66819C17.7874 7.74619 17.9421 7.86731 18.1388 8.03156C18.5738 8.3956 18.9448 8.82992 19.2364 9.3165C19.2429 9.3274 19.2557 9.3341 19.2721 9.33518C19.2885 9.33626 19.3071 9.33165 19.3241 9.32231C19.3788 9.29231 19.4366 9.27169 19.4978 9.26044C19.5586 9.24956 19.5804 9.263 19.563 9.30075C19.5606 9.30578 19.556 9.31105 19.5497 9.31623C19.5434 9.3214 19.5354 9.32635 19.5263 9.33075L19.3421 9.41869C19.3361 9.42179 19.3316 9.42725 19.3293 9.43405C19.327 9.44084 19.3272 9.44851 19.3298 9.45562C19.3794 9.58729 19.4473 9.71132 19.5315 9.82406C19.7305 10.2857 19.8801 10.7672 19.9778 11.2603C19.9804 11.2736 19.9781 11.2899 19.971 11.3068C19.9489 11.3591 19.9508 11.4444 19.9766 11.5627C19.9816 11.5857 19.9849 11.6092 19.9864 11.6331C19.9901 11.7107 20 11.7886 20.016 11.8667C20.0283 11.9279 20.0301 11.9859 20.0214 12.0407C20.0071 12.1314 19.9994 12.1901 19.9984 12.2166C19.9406 13.7388 19.3606 14.9981 18.2582 15.9943C17.5192 16.6626 16.6423 17.0727 15.6276 17.2247C15.6246 17.2252 15.5884 17.2354 15.5192 17.2554C15.4782 17.2671 15.4347 17.2664 15.3941 17.2536C15.3786 17.2486 15.3622 17.2474 15.3461 17.25C14.9961 17.3101 14.6783 17.317 14.3925 17.2706C14.2616 17.2491 14.1581 17.2428 14.082 17.2515C14.0658 17.2535 14.0494 17.2512 14.0344 17.2449C13.8751 17.1756 13.7079 17.1263 13.5366 17.0981C13.398 17.0309 13.2566 16.9698 13.1126 16.9149C12.6174 16.7272 12.1614 16.449 11.7679 16.0946C11.0126 15.4159 10.4883 14.5628 10.1949 13.5353C10.1902 13.5187 10.1871 13.5018 10.1858 13.4846C10.1731 13.3139 10.1474 13.1806 10.1085 13.0847C10.0791 13.0119 10.0611 12.935 10.0551 12.8567L10.0663 12.7061C10.0758 12.5835 10.0063 12.5206 9.85763 12.5175C9.79763 12.5165 9.79531 12.5044 9.85069 12.4813C9.90431 12.4588 9.96306 12.4688 10.0269 12.5113C10.0467 12.5244 10.0556 12.5198 10.0536 12.4974L10.0174 12.1187C10.017 12.1125 10.0145 12.1059 10.0099 12.0994C10.0053 12.093 9.99888 12.0869 9.99113 12.0817C9.95075 12.0546 9.95075 12.0274 9.99113 12C10.0055 11.99 10.0158 11.9773 10.0204 11.9638C10.0481 11.8751 10.0584 11.7838 10.0511 11.6901V11.5896L10.0489 11.5888L10.0511 11.5892C10.0913 11.3579 10.1542 11.1311 10.239 10.9121C10.3216 10.4408 10.4842 9.98697 10.7198 9.57037C10.7635 9.54987 10.7754 9.517 10.7554 9.47175L10.9541 9.219C11.1385 8.88868 11.3822 8.5952 11.673 8.35331V8.35369L12.0096 8.11744C12.0258 8.10782 12.0393 8.09428 12.0489 8.07806C12.1454 8.02244 12.2441 7.97119 12.345 7.92431C12.4648 7.80551 12.6023 7.70601 12.7526 7.62937C13.0864 7.50437 13.4166 7.37062 13.7432 7.22812C13.8735 7.21546 14.0022 7.18971 14.1274 7.15125C14.6118 7.00262 15.0889 6.96037 15.5588 7.0245C15.811 7.05887 16.0159 7.07481 16.1734 7.07231C16.0858 7.0374 15.9953 7.01023 15.903 6.99112C15.8145 6.97273 15.7244 6.96281 15.6339 6.9615ZM9.57769 6.98812C9.58444 6.98931 9.5911 6.99195 9.59721 6.99586C9.60333 6.99977 9.60875 7.00487 9.61313 7.01081C9.74623 7.19385 9.88991 7.36896 10.0434 7.53525C10.1007 7.58412 10.1548 7.63637 10.2056 7.692C10.2444 7.73387 10.2629 7.77269 10.2613 7.80844C10.2586 7.86119 10.2224 7.89169 10.1529 7.89994C10.1376 7.90202 10.1213 7.89817 10.107 7.88906C9.96363 7.79906 9.80669 7.65806 9.63619 7.46606C9.53081 7.34794 9.46038 7.24294 9.42488 7.15106C9.4215 7.14239 9.42008 7.1335 9.42078 7.12554C9.42148 7.11758 9.42428 7.11093 9.42881 7.10644L9.54169 6.99806C9.54622 6.99374 9.55175 6.99061 9.55793 6.9889C9.5641 6.98719 9.57096 6.98692 9.57769 6.98812ZM12.8434 7.45762C12.8688 7.45575 12.895 7.45575 12.9221 7.45762C12.8134 7.45037 12.7194 7.47225 12.6401 7.52325C12.6395 7.52338 12.6389 7.5235 12.6383 7.52362C12.6389 7.52338 12.6395 7.52313 12.6401 7.52288C12.7013 7.48444 12.7712 7.462 12.8434 7.45762ZM12.5109 7.539C12.4987 7.53903 12.4865 7.53965 12.4744 7.54087C12.4856 7.5395 12.4978 7.53887 12.5109 7.539ZM7.58869 7.59431C7.63431 7.58731 7.69169 7.62625 7.76081 7.71112C7.80144 7.78637 7.85588 7.8465 7.92413 7.8915C8.00975 7.94837 8.05331 7.97744 8.05481 7.97869C8.17931 8.07669 8.303 8.17556 8.42588 8.27531C8.45913 8.29156 8.48606 8.32075 8.50669 8.36287C8.51012 8.36997 8.51165 8.37783 8.51115 8.38569C8.51065 8.39355 8.50813 8.40115 8.50383 8.40775C8.49953 8.41435 8.4936 8.41973 8.48661 8.42336C8.47962 8.427 8.47181 8.42877 8.46394 8.4285C8.23944 8.41887 8.06719 8.32156 7.94719 8.13656C7.93839 8.12326 7.92511 8.11322 7.9095 8.10806C7.78662 8.06942 7.68365 7.9844 7.62244 7.87106C7.61498 7.85754 7.60192 7.8473 7.58606 7.84256C7.55427 7.83273 7.52493 7.81624 7.5 7.79419C7.49436 7.78918 7.49017 7.7826 7.48787 7.77513C7.48556 7.76765 7.48522 7.75954 7.48688 7.75162C7.50913 7.6535 7.54306 7.60119 7.58869 7.59431ZM12.2516 7.88306C12.24 7.89272 12.224 7.89743 12.207 7.89619C12.1464 7.89169 12.1029 7.90456 12.0765 7.93481C12.1029 7.90456 12.1465 7.89162 12.2074 7.896C12.2242 7.89724 12.2401 7.89248 12.2516 7.88306ZM2.25375 8.15531C2.21096 8.21265 2.16355 8.26639 2.112 8.316C2.1024 8.40928 2.06087 8.49638 1.99444 8.56256C1.99406 8.563 1.99368 8.56344 1.99331 8.56387C1.99355 8.56325 1.9938 8.56263 1.99406 8.562C2.06131 8.4945 2.10069 8.4125 2.11219 8.316C2.16369 8.26637 2.21088 8.21281 2.25375 8.15531ZM11.4954 8.19094C11.5029 8.19744 11.5074 8.20544 11.5089 8.21494C11.5102 8.2262 11.5089 8.23761 11.5052 8.24831C11.4971 8.27294 11.4776 8.30319 11.4467 8.33906C11.4771 8.30344 11.4971 8.27269 11.5052 8.24831C11.5089 8.23761 11.5102 8.2262 11.5089 8.21494C11.5074 8.20556 11.5026 8.19701 11.4954 8.19075V8.19094ZM11.3265 8.32969C11.3498 8.35219 11.3713 8.3645 11.391 8.36663C11.3713 8.36475 11.3498 8.35256 11.3265 8.32969ZM2.40788 8.346C2.46675 8.50369 2.54269 8.65162 2.64488 8.78512C2.54269 8.652 2.46675 8.50387 2.40788 8.346ZM22.3999 8.472C22.728 8.45175 22.9977 8.57469 23.2089 8.84081C23.2196 8.84481 23.2244 8.85381 23.2236 8.86781L23.4199 9.00919C23.4604 9.03844 23.4563 9.05419 23.4077 9.05644C23.2787 9.06294 23.2878 9.11812 23.4349 9.222C23.479 9.2535 23.5103 9.29462 23.5286 9.34537C23.5664 9.45075 23.5826 9.57887 23.5774 9.72975C23.5767 9.74502 23.582 9.761 23.5924 9.77494C23.6311 9.82631 23.6079 9.84656 23.5228 9.83569C23.5257 9.84523 23.5306 9.85405 23.5372 9.86157C23.5438 9.8691 23.5518 9.87516 23.5609 9.87937C23.5685 9.88281 23.5757 9.88709 23.5824 9.89212C23.6042 9.91337 23.5975 9.92312 23.5624 9.92137C23.5764 10.0151 23.5733 10.1074 23.553 10.1983C23.5525 10.2009 23.5513 10.2033 23.5496 10.2053C23.5479 10.2073 23.5456 10.2088 23.5431 10.2099C23.5405 10.2109 23.5376 10.2114 23.5347 10.2112C23.5319 10.2111 23.529 10.2103 23.5264 10.209C23.4964 10.1936 23.4715 10.1967 23.4517 10.2182C23.4475 10.223 23.4453 10.2296 23.4455 10.2369C23.4457 10.2442 23.4483 10.2517 23.4529 10.2583C23.5394 10.3833 23.5159 10.4926 23.3826 10.5861C23.3776 10.6584 23.3567 10.6669 23.3199 10.6114C23.2174 10.692 23.2231 10.7189 23.3368 10.692C23.3459 10.6899 23.3547 10.6894 23.3621 10.6906C23.3695 10.6918 23.3752 10.6945 23.3784 10.6986C23.3837 10.7052 23.3864 10.7136 23.3865 10.7239C23.471 10.758 23.5016 10.8119 23.4784 10.8857C23.4761 10.8929 23.4712 10.8989 23.4648 10.9025C23.4584 10.9062 23.451 10.9071 23.4441 10.9052L23.2843 10.8602L23.1189 11.0601C23.1083 11.0729 23.0932 11.081 23.0771 11.0826C23.0143 11.0897 22.9866 11.1123 22.9941 11.1504C23.0267 11.1836 23.0362 11.219 23.0226 11.2567C23.0203 11.2629 23.0158 11.2684 23.0095 11.2727C23.0032 11.2769 22.9954 11.2797 22.9869 11.2807C22.9553 11.2857 22.925 11.2968 22.8977 11.3134C22.8718 11.3569 22.8293 11.3903 22.7702 11.4137C22.7111 11.4371 22.6184 11.4872 22.4923 11.5642C22.4496 11.6075 22.3958 11.6277 22.3311 11.625L22.1334 11.6239C22.0746 11.6237 22.0067 11.6081 21.9298 11.5768L21.3936 11.3606C21.3491 11.3425 21.2813 11.2975 21.1901 11.2256C20.7801 10.9029 20.6193 10.4786 20.7077 9.95287C20.7081 9.951 20.7094 9.92969 20.7118 9.88894C20.7138 9.85169 20.7304 9.82069 20.7615 9.79594L20.8029 9.72094C20.8008 9.63981 20.8329 9.577 20.8993 9.5325C20.8978 9.51356 20.9006 9.49452 20.9075 9.47682C20.9145 9.45912 20.9253 9.44321 20.9393 9.43031C20.9581 9.41349 20.9723 9.3922 20.9807 9.3684C20.9891 9.34461 20.9913 9.31908 20.9873 9.29419C20.9733 9.25231 20.9489 9.23731 20.9141 9.24919C20.9096 9.2509 20.9046 9.255 20.8997 9.26112C20.8948 9.26724 20.8901 9.27519 20.886 9.28425L20.8129 9.44644C20.8096 9.45329 20.8044 9.45936 20.7976 9.46415C20.7909 9.46894 20.7828 9.47232 20.7741 9.474C20.7453 9.4795 20.7344 9.46656 20.7414 9.43519C20.7646 9.33444 20.8196 9.25069 20.9064 9.18394C20.912 9.17949 20.9189 9.17621 20.9266 9.17431C20.9344 9.17241 20.9429 9.17192 20.9516 9.17287C21.0179 9.18 21.0716 9.15781 21.1129 9.10631C21.1707 8.99715 21.2574 8.90596 21.3636 8.84269C21.6082 8.60369 21.9056 8.486 22.2557 8.48962H22.2561C22.3037 8.4811 22.3516 8.47522 22.3999 8.472ZM1.97475 8.60344C1.97474 8.60381 1.97474 8.60419 1.97475 8.60456L1.98863 8.71519L1.97438 8.60419C1.9745 8.60394 1.97462 8.60369 1.97475 8.60344ZM14.9601 8.72719C14.9016 8.726 14.8432 8.7297 14.7853 8.73825C14.2413 8.81762 13.7684 9.01231 13.3667 9.32231C13.1912 9.45806 13.0948 9.64325 13.0774 9.87787C13.0711 9.96312 13.0928 10.0355 13.1423 10.095C13.2039 10.1694 13.2827 10.2278 13.3718 10.2652C13.5064 10.3235 13.6459 10.3589 13.7904 10.3716L13.9806 10.4034C14.0461 10.4144 14.1122 10.4084 14.1789 10.3854C14.2174 10.3721 14.3387 10.3754 14.5427 10.3954C14.5498 10.3961 14.5565 10.3992 14.5616 10.4041C14.5666 10.409 14.5698 10.4155 14.5704 10.4224C14.5907 10.6359 14.6229 10.8477 14.6672 11.0578C14.6797 11.1172 14.6859 11.1966 14.6859 11.2959C14.6854 11.3772 14.6953 11.4576 14.7154 11.5372C14.7168 11.5428 14.72 11.5489 14.7248 11.5551C14.7296 11.5613 14.7359 11.5675 14.7433 11.5734L14.7958 11.6145C14.7959 11.626 14.7935 11.6373 14.7888 11.6478C14.7841 11.6583 14.7772 11.6676 14.7686 11.6753C14.7321 11.7196 14.7243 11.7671 14.7452 11.8177C14.7518 11.8328 14.7555 11.849 14.7561 11.8654C14.7564 12.0254 14.7932 12.1756 14.8663 12.3161C14.8675 12.3186 14.8681 12.3213 14.8681 12.324C14.8681 12.3267 14.8674 12.3294 14.8661 12.3317C14.8649 12.3341 14.8631 12.3362 14.8609 12.3377C14.8587 12.3392 14.8562 12.3402 14.8536 12.3405C14.5596 12.3685 14.4058 12.3815 14.3923 12.3795C14.2898 12.3627 14.1847 12.3757 14.0893 12.4168V12.4172L14.0663 12.4194V12.4191C13.9798 12.3744 13.8818 12.3572 13.7854 12.3699C13.7046 12.3808 13.641 12.3818 13.5945 12.3729C13.4278 12.3416 13.2598 12.3184 13.0909 12.3034C13.0746 12.3016 13.0591 12.2957 13.0459 12.2861C12.9663 12.2315 12.88 12.2215 12.7871 12.2561L12.5361 12.2689V12.2685C12.4067 12.2836 12.2911 12.3291 12.1892 12.405C12.1142 12.461 12.0659 12.4981 12.0443 12.5164C11.9966 12.5574 11.9581 12.6079 11.9312 12.6647C11.891 12.7478 11.8453 12.8282 11.7943 12.9053C11.742 12.9816 11.7145 13.0723 11.7156 13.1649C11.7158 13.2308 11.7264 13.3179 11.7474 13.4261C11.7701 13.5441 11.8204 13.6509 11.8986 13.7466C11.9004 13.7559 11.9046 13.7642 11.9111 13.7713V13.7717C11.9224 13.8276 11.9541 13.8662 12.0062 13.8876C12.1043 13.9775 12.2128 14.0556 12.3293 14.1201C12.3369 14.1245 12.3453 14.1269 12.3533 14.1271C12.3613 14.1273 12.3686 14.1253 12.3743 14.1212C12.3829 14.1148 12.3899 14.1064 12.3945 14.0966C12.398 14.0894 12.4026 14.0832 12.4077 14.0787C12.4128 14.0742 12.4184 14.0715 12.4238 14.0709C12.4478 14.0684 12.4528 14.0783 12.4388 14.1006C12.3863 14.1856 12.402 14.2389 12.486 14.2607C12.7706 14.3342 13.0592 14.3838 13.3517 14.4094C13.3592 14.4099 13.3663 14.4127 13.372 14.4174C13.3777 14.422 13.3818 14.4284 13.3836 14.4354C13.4048 14.5192 13.3866 14.5918 13.329 14.6533C13.3173 14.666 13.3105 14.6811 13.3099 14.6961C13.3031 14.9649 13.3086 15.2338 13.3264 15.5021C13.3449 15.7996 13.4041 16.0789 13.5041 16.3401C13.5448 16.4471 13.6077 16.5263 13.6929 16.5776C13.9582 16.7373 14.2338 16.761 14.5198 16.6489C14.6151 16.6109 14.6741 16.5842 14.6968 16.5688C14.7551 16.5298 14.7911 16.4709 14.8048 16.392C14.8102 16.3585 14.8252 16.3272 14.8479 16.302C14.8794 16.2674 14.8986 16.2421 14.9055 16.2261C15.0131 15.9921 15.0484 15.7313 15.0069 15.4772C15.0449 15.1931 15.034 14.9045 14.9747 14.6241C14.9726 14.6145 14.9694 14.6059 14.9652 14.5988C14.961 14.5918 14.956 14.5865 14.9505 14.5834C14.9298 14.5718 14.9156 14.5856 14.9081 14.625C14.9006 14.6625 14.8822 14.6813 14.8528 14.6813C14.8456 14.6812 14.8385 14.6783 14.833 14.6731C14.8275 14.6679 14.8239 14.6608 14.8228 14.6529C14.8186 14.6308 14.8207 14.6078 14.8291 14.5869C14.8375 14.5659 14.8517 14.5478 14.8701 14.5346C14.8848 14.5234 14.8945 14.5097 14.8971 14.4966C14.9106 14.4291 14.8803 14.4006 14.8063 14.4113C14.7804 14.415 14.7647 14.4117 14.7591 14.4013C14.7577 14.3987 14.7572 14.3957 14.7577 14.3926C14.7582 14.3894 14.7596 14.3862 14.7619 14.3831C14.7642 14.3801 14.7673 14.3772 14.771 14.3748C14.7747 14.3723 14.7789 14.3704 14.7833 14.3691C14.9188 14.3249 15.0572 14.2951 15.1986 14.2794C15.2533 14.2733 15.3206 14.2548 15.4003 14.2238C15.4947 14.1873 15.5964 14.1742 15.6969 14.1857C15.7098 14.1869 15.785 14.1702 15.9225 14.1354L16.0712 14.0978C16.356 13.9864 16.6396 13.8719 16.9219 13.7543C16.9632 13.7371 17.0032 13.7171 17.0417 13.6943C17.08 13.6719 17.1168 13.6468 17.1516 13.6193L17.2624 13.4719C17.2878 13.4383 17.3331 13.3989 17.3983 13.3538C17.4521 13.3166 17.4963 13.2688 17.5309 13.2103C17.7095 13.0209 17.8673 12.8128 18.0015 12.5897C18.0415 12.4405 18.0874 12.2931 18.1391 12.1476C18.1499 12.1173 18.1499 12.0942 18.1391 12.0784C18.1241 12.0571 18.0969 12.0493 18.0576 12.0549C18.0144 12.0612 18.0107 12.0518 18.0463 12.0268C18.0741 12.0073 18.0983 12.0019 18.1191 12.0107C18.1254 12.0135 18.1322 12.0143 18.1383 12.013C18.1443 12.0117 18.1492 12.0084 18.1519 12.0037C18.2081 11.9017 18.2133 11.7948 18.1673 11.6829C18.1463 11.6309 18.0971 11.5444 18.0197 11.4232C17.9213 11.2681 17.7908 11.2009 17.6282 11.2215C17.6129 11.2236 17.5968 11.2199 17.5828 11.2112C17.5474 11.1881 17.5124 11.1804 17.4778 11.1881V11.1877C17.1788 11.2534 16.8955 11.3981 16.6279 11.6218C16.6001 11.6449 16.5681 11.6624 16.5338 11.6734C16.3554 11.73 16.1757 11.8096 15.9947 11.9122C15.7723 11.9917 15.5544 12.0835 15.3422 12.1871C15.3394 12.1884 15.3046 12.2138 15.2378 12.2634C15.1955 12.2949 15.1436 12.3037 15.0821 12.2897C15.0329 12.2353 15.0054 12.1647 15.0047 12.0913V12.0909C15.0286 12.0097 15.0126 11.938 14.9569 11.8759L14.9546 11.6522C14.9389 11.2698 14.8818 10.8903 14.7844 10.5203C14.7789 10.459 14.7297 10.4111 14.6368 10.3766C14.6177 10.3699 14.6178 10.3638 14.6372 10.3584C14.7941 10.3143 14.9539 10.2722 15.1168 10.2321C15.2261 10.2048 15.3953 10.1106 15.6244 9.94931C15.7894 9.83369 15.8911 9.66581 15.9294 9.44569C15.9619 9.26131 15.922 9.12056 15.8096 9.02344C15.755 8.97656 15.6373 8.9175 15.4564 8.84625C15.3491 8.80409 15.2386 8.77066 15.126 8.74631H15.1256C15.0711 8.73503 15.0157 8.72863 14.9601 8.72719ZM17.1516 13.6193C17.0814 13.6744 17.0042 13.7198 16.9219 13.7543C16.6396 13.8719 16.356 13.9864 16.0712 14.0978L15.9156 14.2088C15.8973 14.2216 15.8815 14.2349 15.8692 14.2479C15.8569 14.2608 15.8485 14.273 15.8443 14.2838C15.8078 14.3835 15.8252 14.4123 15.8964 14.37C15.9921 14.3138 16.0916 14.2662 16.1949 14.2275C16.3632 14.1645 16.4654 14.1243 16.5015 14.1069C16.8327 13.9469 17.1474 13.7547 17.4411 13.5332C17.4477 13.5284 17.4526 13.5219 17.4552 13.5148C17.4578 13.5078 17.4577 13.5005 17.4551 13.4942C17.4401 13.4587 17.4131 13.4624 17.3741 13.5053C17.3183 13.5668 17.2441 13.6049 17.1516 13.6193ZM21.0326 8.77556C21.0307 8.78149 21.0279 8.78707 21.0242 8.79206H21.0238C21.0277 8.78709 21.0306 8.78152 21.0326 8.77556ZM2.75419 8.88H2.75456C2.79581 8.91375 2.81938 8.96 2.82525 9.01875C2.82813 9.04575 2.835 9.06494 2.84588 9.07631H2.84531C2.83469 9.06506 2.828 9.04587 2.82525 9.01875C2.82345 8.99199 2.81621 8.96588 2.80395 8.94202C2.7917 8.91816 2.7747 8.89705 2.754 8.88H2.75419ZM1.77638 8.99944L1.77525 9.00375L1.77413 9.00562L1.77488 9.00375L1.77638 8.99944ZM1.79906 9.1545H1.80319C1.80094 9.1545 1.79875 9.15469 1.79663 9.15506L1.79906 9.1545ZM1.72688 9.20437L1.72725 9.20625V9.20662L1.61888 9.36562C1.61862 9.36625 1.61837 9.36687 1.61813 9.3675C1.61824 9.36687 1.61837 9.36625 1.6185 9.36562L1.72688 9.20625V9.20437ZM15.4958 9.26006H15.4961C15.4966 9.26078 15.497 9.26153 15.4974 9.26231C15.4969 9.26152 15.4964 9.26077 15.4958 9.26006ZM1.60725 9.40987C1.6113 9.44635 1.60766 9.48327 1.59656 9.51825C1.58531 9.55575 1.56656 9.59494 1.54031 9.63581L1.53881 9.63806L1.53975 9.63581C1.5643 9.59959 1.58344 9.55999 1.59656 9.51825C1.60781 9.48062 1.61138 9.4445 1.60725 9.40987ZM7.509 9.43556C7.53459 9.43429 7.56021 9.4374 7.58475 9.44475C7.73925 9.49013 7.81056 9.56287 7.79869 9.663C7.79753 9.67412 7.79946 9.68533 7.80426 9.69539C7.80906 9.70545 7.81654 9.71397 7.82588 9.72C7.90313 9.7695 7.93469 9.82825 7.92056 9.89625C7.91094 9.94275 7.92269 10.0349 7.95581 10.1726C7.96995 10.227 7.97282 10.2838 7.96424 10.3393C7.95567 10.3949 7.93583 10.4481 7.90594 10.4957C7.8366 10.6125 7.74029 10.7111 7.62506 10.7831C7.61859 10.7872 7.61125 10.7899 7.60346 10.7911C7.59567 10.7923 7.58759 10.7919 7.57969 10.7901L7.25531 10.7169C7.23919 10.7131 7.22509 10.7047 7.215 10.6931C7.025 10.4696 6.962 10.214 7.026 9.92625C7.0336 9.88105 7.03631 9.83516 7.03406 9.78937C7.03219 9.72912 7.05088 9.68431 7.09013 9.65494C7.19619 9.5736 7.31195 9.50577 7.43475 9.453C7.45925 9.44275 7.484 9.43694 7.509 9.43556ZM20.5223 9.62963C20.4683 9.74375 20.4404 9.85531 20.4388 9.96431C20.4383 10.0007 20.4408 10.0367 20.4461 10.0723C20.4483 10.0884 20.4457 10.1049 20.4386 10.1199C20.4124 10.1759 20.3994 10.2224 20.3996 10.2594C20.3994 10.2223 20.4124 10.1758 20.4388 10.1199C20.4457 10.1049 20.4481 10.0883 20.4458 10.0723C20.4406 10.0366 20.4382 10.0004 20.4388 9.96431C20.4403 9.85556 20.468 9.74412 20.5219 9.63L20.5223 9.62963ZM14.7351 9.6795L14.7369 9.68006C14.7357 9.67974 14.7344 9.67974 14.7332 9.68006C14.7339 9.68006 14.7345 9.67931 14.7351 9.6795ZM14.7309 9.68081L14.7296 9.68156V9.68119C14.73 9.68081 14.7306 9.68119 14.7309 9.68081ZM10.5278 9.71456C10.5144 9.72075 10.5018 9.72849 10.4903 9.73762C10.4686 9.75512 10.4522 9.7783 10.443 9.80456C10.4499 9.7844 10.4611 9.76594 10.4757 9.75043C10.4903 9.73491 10.508 9.72268 10.5278 9.71456ZM14.0188 9.81525C14.0208 9.82388 14.0237 9.83225 14.0276 9.84019C14.0316 9.84862 14.0365 9.85661 14.0423 9.864C14.034 9.85291 14.0273 9.84073 14.0224 9.82781L14.0188 9.81525ZM1.00519 10.1115H1.00556V10.1126L1.00519 10.1115ZM1.31606 10.1902L1.3095 10.2097L1.31606 10.2148L1.3095 10.2101L1.30725 10.2133L1.30913 10.2096C1.31194 10.2017 1.31344 10.1981 1.31606 10.1902ZM1.20806 10.5049V10.5077C1.20744 10.5184 1.1625 10.6741 1.07325 10.9746L1.07175 10.9798L1.07288 10.9747C1.16213 10.6741 1.20706 10.5185 1.20769 10.5079L1.20806 10.5049ZM20.0518 10.6014C20.0406 10.6073 20.0329 10.6263 20.0289 10.6583C20.028 10.6654 20.0288 10.673 20.0313 10.6806C20.0338 10.6882 20.038 10.6957 20.0436 10.7025C20.0567 10.7184 20.0664 10.734 20.0728 10.7494C20.0793 10.7635 20.0827 10.7788 20.0825 10.7944C20.0824 10.8099 20.0788 10.8252 20.0721 10.8392C20.0644 10.855 20.0542 10.8695 20.0421 10.8821C20.0362 10.8882 20.0319 10.8953 20.0295 10.9027C20.027 10.9101 20.0266 10.9176 20.0282 10.9245C20.0306 10.9345 20.0343 10.944 20.0393 10.953H20.0389C20.034 10.944 20.0304 10.9344 20.0282 10.9245C20.0265 10.9176 20.0269 10.9101 20.0293 10.9027C20.0316 10.8953 20.0359 10.8882 20.0417 10.8821C20.054 10.8695 20.0642 10.855 20.0721 10.8392C20.0788 10.8252 20.0824 10.8099 20.0825 10.7944C20.0827 10.7788 20.0793 10.7635 20.0728 10.7494C20.0653 10.7324 20.0553 10.7166 20.0432 10.7025C20.0376 10.6957 20.0335 10.6882 20.0309 10.6806C20.0284 10.673 20.0276 10.6654 20.0286 10.6583C20.0327 10.6263 20.0406 10.6073 20.0518 10.6014ZM23.5879 10.6847C23.5881 10.6847 23.5883 10.6847 23.5884 10.6847C23.5881 10.6849 23.5877 10.6852 23.5873 10.6854C23.5874 10.6852 23.5877 10.6849 23.5879 10.6847ZM20.1799 10.8664C20.1864 10.8714 20.1929 10.8793 20.1996 10.8902C20.2032 10.8959 20.2053 10.9029 20.2058 10.9108C20.2052 10.9029 20.2029 10.8958 20.1992 10.8902C20.1941 10.8812 20.1876 10.8732 20.1799 10.8664ZM20.2577 11.0736L20.2581 11.0739C20.2879 11.1596 20.3131 11.2455 20.3334 11.3317C20.3954 11.5901 20.4153 11.8567 20.3925 12.1213L20.3531 12.5897L20.3921 12.1209C20.4151 11.8564 20.3951 11.59 20.3334 11.3317C20.3128 11.2454 20.2877 11.1593 20.2577 11.0736ZM20.6274 11.1377L20.9882 11.4846L20.6274 11.1381V11.1377ZM1.04888 11.2234L1.04925 11.2281C1.04943 11.2292 1.04968 11.2303 1.05 11.2314C1.04955 11.2303 1.04918 11.2292 1.04888 11.2281V11.2234ZM17.9248 11.4439C17.9335 11.4444 17.9417 11.4483 17.9477 11.4547V11.4551C17.9417 11.4486 17.9335 11.4447 17.9249 11.4441C17.9162 11.4435 17.9078 11.4463 17.9014 11.4519C17.9077 11.4462 17.9161 11.4433 17.9248 11.4439ZM17.4122 11.4632C17.4473 11.4628 17.4824 11.4649 17.5172 11.4694C17.4938 11.4684 17.4704 11.4665 17.4471 11.4637C17.4017 11.4623 17.3564 11.4649 17.3115 11.4716C17.2895 11.4749 17.2678 11.4792 17.2463 11.4847C17.225 11.4905 17.204 11.4972 17.1833 11.505C17.2247 11.4894 17.2677 11.4783 17.3115 11.4716C17.3448 11.4666 17.3785 11.4637 17.4122 11.4632ZM9.95588 11.4928V11.4988L9.95625 11.5007L9.9555 11.4988L9.95588 11.4928ZM9.75488 11.5592L9.75525 11.5614H9.75488C9.7545 11.5603 9.75506 11.5601 9.75488 11.5592ZM17.8048 11.5927C17.7798 11.6061 17.7571 11.6235 17.7377 11.6441C17.7498 11.6351 17.7611 11.6251 17.7714 11.6141C17.7819 11.6062 17.7931 11.5991 17.8048 11.5927ZM21.5261 11.6899C21.6668 11.7441 21.7954 11.7993 21.9122 11.8554C21.9122 11.8556 21.9122 11.8557 21.9122 11.8558C21.7858 11.7954 21.657 11.74 21.5261 11.6899ZM16.7094 11.6991C16.6421 11.7522 16.5718 11.8015 16.4989 11.8466C16.5227 11.8301 16.547 11.8143 16.5718 11.7994C16.6506 11.7444 16.6964 11.7109 16.7094 11.6991ZM17.1954 11.8057C17.1954 11.8057 17.1954 11.8058 17.1954 11.8057ZM9.75769 11.8701C9.75781 11.8701 9.75794 11.8701 9.75806 11.8701C9.75794 11.8703 9.75781 11.8706 9.75769 11.8708C9.75769 11.8706 9.75769 11.8703 9.75769 11.8701ZM17.1501 11.9366C17.1127 11.9949 17.0819 12.0572 17.0582 12.1222C17.0501 12.144 17.0429 12.166 17.0364 12.1882C17.0491 12.1438 17.065 12.1004 17.0841 12.0583C17.103 12.0162 17.1251 11.9755 17.1501 11.9366ZM9.72881 11.9377C9.73069 11.9595 9.73544 11.9818 9.74306 12.0045C9.74737 12.0172 9.74776 12.0337 9.74419 12.0517L9.72 12.1633C9.71875 12.1689 9.71894 12.1759 9.72056 12.1839C9.71888 12.1759 9.71848 12.1689 9.71963 12.1633L9.74381 12.0521C9.74739 12.0341 9.747 12.0176 9.74269 12.0049C9.73534 11.9831 9.73069 11.9606 9.72881 11.9377ZM17.0648 11.9646H17.0651L17.0629 11.9672L17.0648 11.9646ZM14.8485 12.0664H14.8494L14.8474 12.0671L14.8485 12.0664ZM17.997 12.0894C17.9971 12.0897 17.9973 12.0899 17.9974 12.0902H17.997C17.997 12.0899 17.997 12.0897 17.997 12.0894ZM16.3989 12.1781C16.4106 12.1778 16.422 12.1814 16.4316 12.1882C16.422 12.1815 16.4105 12.1781 16.3989 12.1785H16.3913L16.3989 12.1781ZM17.5639 12.3411C17.564 12.3413 17.5641 12.3416 17.5643 12.3418C17.5645 12.3419 17.5647 12.3421 17.565 12.3422C17.5646 12.3422 17.5642 12.3422 17.5639 12.3422C17.5639 12.3418 17.5639 12.3414 17.5639 12.3411ZM12.69 12.393C12.685 12.4021 12.6745 12.4091 12.6585 12.4138C12.6744 12.4088 12.6849 12.4018 12.69 12.393ZM12.6174 12.429C12.6176 12.429 12.6177 12.429 12.6178 12.429C12.6166 12.4315 12.616 12.4344 12.6161 12.4372C12.6163 12.4401 12.6171 12.4429 12.6186 12.4453L12.6182 12.4449C12.6168 12.4425 12.6159 12.4398 12.6158 12.4369C12.6157 12.4341 12.6162 12.4315 12.6174 12.429ZM14.547 12.4329C14.5475 12.4331 14.548 12.4332 14.5485 12.4333C14.548 12.4333 14.5475 12.4333 14.547 12.4333H14.5401L14.547 12.4329ZM6.60694 12.4436C6.85444 12.4502 7.075 12.5006 7.26863 12.5947C7.31013 12.5767 7.34431 12.5849 7.37119 12.6191C7.37458 12.6233 7.37972 12.6273 7.38632 12.6309C7.39292 12.6344 7.40084 12.6374 7.40963 12.6398L7.473 12.6561C7.47888 12.6575 7.48385 12.6621 7.48691 12.6689C7.48997 12.6756 7.4909 12.6841 7.4895 12.6926C7.472 12.7916 7.50775 12.8628 7.59675 12.906C7.66075 12.961 7.72575 13.0141 7.79175 13.0654C7.81413 13.0823 7.82663 13.0986 7.82925 13.1145C7.83082 13.1228 7.83049 13.1314 7.82828 13.1396C7.82608 13.1478 7.82205 13.1553 7.8165 13.1618C7.81255 13.1671 7.81041 13.1734 7.81048 13.1797C7.81055 13.186 7.81282 13.1918 7.81688 13.1961C7.85313 13.2336 7.87144 13.2791 7.87181 13.3328C7.87201 13.3498 7.87657 13.3657 7.88494 13.3785C7.94593 13.4699 7.984 13.5747 7.99594 13.6839C8.01106 13.7183 8.03069 13.7497 8.05481 13.7781C8.05825 13.7823 8.06129 13.7883 8.06373 13.7959C8.06618 13.8035 8.06799 13.8125 8.06906 13.8223L8.10863 14.1448C8.11288 14.1779 8.11181 14.203 8.10544 14.22C8.06496 14.3348 8.0217 14.4486 7.97569 14.5613L7.90031 14.7671C7.81331 15.0059 7.65781 15.2006 7.43381 15.3512C7.41205 15.3658 7.39328 15.3845 7.3785 15.4061C7.33263 15.4716 7.27613 15.5051 7.209 15.5066C7.19286 15.5065 7.17687 15.5098 7.16213 15.5164C6.96 15.612 6.76981 15.6533 6.59156 15.6401C6.53269 15.6359 6.49656 15.657 6.48319 15.7035C6.48251 15.7062 6.48121 15.7088 6.47942 15.7109C6.47763 15.7131 6.47539 15.7148 6.4729 15.7159C6.47042 15.717 6.46775 15.7174 6.46513 15.7172C6.46251 15.717 6.46003 15.7161 6.45788 15.7146C6.36763 15.6578 6.28669 15.6373 6.21506 15.6531C6.13631 15.6699 6.0715 15.6769 6.02063 15.6739C5.98277 15.6716 5.9449 15.6696 5.907 15.6681C5.78935 15.6693 5.67409 15.6349 5.57644 15.5693C5.52476 15.5352 5.47393 15.4999 5.424 15.4633C5.37363 15.423 5.33481 15.3701 5.3115 15.3099C5.30863 15.303 5.30402 15.2969 5.29809 15.2921C5.29217 15.2874 5.28511 15.2842 5.27756 15.2828L5.18944 15.2666C5.17452 15.2638 5.16052 15.2542 5.15044 15.24L4.87613 14.8444C4.86689 14.8312 4.86192 14.8156 4.86192 14.7997C4.86192 14.7838 4.86689 14.7683 4.87613 14.7555C4.89675 14.727 4.89506 14.7041 4.87106 14.6869C4.78344 14.7128 4.7485 14.6874 4.76625 14.6108C4.76961 14.595 4.76916 14.5787 4.76494 14.5631C4.75825 14.5399 4.75647 14.5155 4.7597 14.4916C4.76292 14.4676 4.77109 14.4446 4.78369 14.424L4.87144 13.9849C4.86069 13.9415 4.85977 13.8962 4.86876 13.8524C4.87775 13.8086 4.89641 13.7674 4.92338 13.7318L4.97175 13.5711C5.07275 13.2154 5.26988 12.9263 5.56313 12.7035C5.595 12.6509 5.64031 12.614 5.69906 12.5929C5.85556 12.5223 6.07263 12.4752 6.35025 12.4517C6.43888 12.4442 6.52444 12.4415 6.60694 12.4436ZM16.689 12.4528C16.6659 12.4761 16.6403 12.4971 16.6121 12.5158V12.5154C16.6403 12.4968 16.6659 12.4759 16.689 12.4528ZM16.8735 12.4549L17.0837 12.6377C17.0892 12.6426 17.0959 12.6464 17.1033 12.6486C17.0959 12.6464 17.0893 12.6429 17.0837 12.6381L16.8735 12.4549ZM17.7698 12.5256L17.7716 12.5263C17.7716 12.5264 17.7716 12.5266 17.7716 12.5267L17.7698 12.5256ZM15.7346 12.5263C15.7159 12.5349 15.6971 12.5439 15.6801 12.5544C15.6988 12.5463 15.7172 12.5369 15.7346 12.5263ZM17.2434 12.5501C17.2433 12.5505 17.2432 12.5509 17.2431 12.5513C17.2427 12.5519 17.2423 12.5525 17.2419 12.5531C17.2422 12.5525 17.2424 12.5519 17.2427 12.5513C17.2429 12.5509 17.2432 12.5505 17.2434 12.5501ZM13.3971 12.5571C13.3972 12.5571 13.3973 12.5571 13.3974 12.5571C13.3977 12.5577 13.398 12.5583 13.3982 12.5589C13.3978 12.5583 13.3975 12.5577 13.3971 12.5571ZM16.3403 12.5571C16.3217 12.576 16.3047 12.5965 16.2894 12.6182C16.2599 12.6599 16.2381 12.7066 16.2249 12.756C16.2184 12.7811 16.214 12.8067 16.2118 12.8325C16.218 12.7554 16.2448 12.6814 16.2894 12.6182C16.3044 12.5971 16.3214 12.5766 16.3403 12.5571ZM13.1638 12.5689C13.1681 12.5693 13.1723 12.5703 13.1764 12.5717C13.1688 12.5681 13.1602 12.5672 13.152 12.5691C13.1559 12.5683 13.1599 12.5684 13.1638 12.5689ZM13.3997 12.5779C13.3996 12.5786 13.3995 12.5794 13.3993 12.5801H13.3989C13.3992 12.5794 13.3995 12.5786 13.3997 12.5779ZM16.8754 12.5948C16.8685 12.5985 16.8627 12.6038 16.8585 12.6103C16.8341 12.6478 16.8167 12.6893 16.8069 12.7329C16.8035 12.7478 16.801 12.7628 16.7994 12.7779C16.8029 12.748 16.8094 12.7185 16.8193 12.69C16.8292 12.6619 16.8424 12.6351 16.8587 12.6101C16.8629 12.6036 16.8686 12.5985 16.8754 12.5948ZM16.9834 12.6047C16.9977 12.609 17.0109 12.6165 17.022 12.6266C17.033 12.6366 17.0418 12.649 17.0475 12.6628C17.0399 12.6445 17.027 12.6289 17.0106 12.6178C17.0019 12.6127 16.9928 12.6083 16.9834 12.6047ZM13.7183 12.615C13.7303 12.6214 13.7421 12.6263 13.7539 12.6296C13.7764 12.6363 13.8004 12.6369 13.8233 12.6311C13.8116 12.6311 13.7999 12.6324 13.7886 12.6351C13.7768 12.6348 13.7651 12.633 13.7539 12.6296C13.7415 12.626 13.7296 12.621 13.7183 12.615ZM15.2136 12.639L15.2132 12.6403C15.1744 12.6869 15.1389 12.736 15.1069 12.7875C15.1228 12.7619 15.1395 12.7369 15.1571 12.7125C15.1748 12.6878 15.1934 12.6637 15.2132 12.6403H15.2128L15.2136 12.639ZM13.0796 12.6413C13.0692 12.6449 13.0592 12.6495 13.0496 12.6549C13.0416 12.6595 13.0339 12.6646 13.0266 12.6703C13.0202 12.6755 13.0145 12.6815 13.0097 12.6881C13.0008 12.7006 12.996 12.7154 12.9958 12.7307C12.9958 12.7189 12.9986 12.7073 13.004 12.6968C13.0093 12.6863 13.0171 12.6773 13.0266 12.6703C13.0339 12.6646 13.0416 12.6595 13.0496 12.6549C13.0585 12.6501 13.0685 12.6455 13.0796 12.6413ZM16.5968 12.6727C16.6255 12.6723 16.6539 12.6792 16.6793 12.6928C16.6655 12.6893 16.6521 12.6842 16.6395 12.6776C16.6255 12.6744 16.6111 12.6727 16.5968 12.6727ZM16.5968 12.6727C16.5816 12.6727 16.5659 12.6746 16.5495 12.6784C16.5244 12.6854 16.4997 12.6942 16.4758 12.7046C16.456 12.7132 16.4372 12.7238 16.4196 12.7361C16.4353 12.7249 16.4541 12.7144 16.4758 12.7046C16.4974 12.6949 16.522 12.6861 16.5495 12.6784C16.565 12.6748 16.5808 12.6729 16.5968 12.6727ZM12.9602 12.6859C12.9517 12.6931 12.9415 12.698 12.9306 12.7003C12.9166 12.7031 12.9022 12.7036 12.888 12.7018L12.8621 12.6988C12.8719 12.6999 12.8781 12.7001 12.8884 12.7014C12.9024 12.7033 12.9167 12.703 12.9306 12.7003C12.9414 12.6978 12.9515 12.6928 12.9602 12.6859ZM14.6074 12.6874C14.6206 12.7034 14.6356 12.7178 14.6522 12.7303C14.6444 12.7248 14.637 12.7186 14.6301 12.7119C14.6222 12.7041 14.6147 12.696 14.6076 12.6876L14.6074 12.6874ZM12.4399 12.6881C12.4388 12.6893 12.4373 12.6896 12.4361 12.6908V12.6904L12.4399 12.6881ZM13.6695 12.6889C13.6728 12.6885 13.6762 12.6888 13.6794 12.6896C13.6727 12.6881 13.6657 12.6891 13.6597 12.6923C13.6538 12.6956 13.6493 12.7009 13.6472 12.7073C13.6488 12.7024 13.6517 12.6981 13.6557 12.6948C13.6597 12.6916 13.6643 12.6895 13.6695 12.6889ZM17.4433 12.6908L17.4444 12.6919L17.4418 12.6911L17.4433 12.6908ZM12.5608 12.6911C12.5929 12.6911 12.6243 12.7008 12.6508 12.7189C12.619 12.6964 12.5799 12.6868 12.5413 12.6921C12.5282 12.6938 12.5146 12.6969 12.5006 12.7014C12.52 12.6951 12.5404 12.6916 12.5608 12.6911ZM14.832 12.693H14.8324L14.8316 12.6941L14.832 12.693ZM14.49 12.7256C14.5082 12.7288 14.5252 12.7368 14.5393 12.7487C14.5464 12.7547 14.5529 12.7618 14.5586 12.7699C14.5647 12.7787 14.5699 12.7879 14.5744 12.7976C14.5793 12.8081 14.5834 12.8196 14.5869 12.8321C14.5836 12.8203 14.5794 12.8088 14.5744 12.7976C14.5699 12.7879 14.5647 12.7787 14.5586 12.7699C14.5478 12.7544 14.5332 12.7419 14.5163 12.7335C14.5079 12.7298 14.499 12.7272 14.49 12.7256ZM14.7986 12.7241C14.7782 12.7373 14.7588 12.7521 14.7407 12.7684C14.6865 12.8168 14.6454 12.8781 14.6213 12.9467H14.6211C14.6297 12.9231 14.6399 12.9008 14.6518 12.8798C14.6869 12.8164 14.7374 12.7628 14.7986 12.7241ZM12.8031 12.7401C12.8069 12.7389 12.8108 12.7389 12.8143 12.7401C12.8088 12.7383 12.8026 12.7392 12.7971 12.7427C12.7915 12.7462 12.7869 12.752 12.7843 12.7588C12.7861 12.7542 12.7887 12.7501 12.792 12.7468C12.7953 12.7435 12.7991 12.7412 12.8031 12.7401ZM13.0056 12.8216C13.0071 12.8307 13.006 12.8401 13.0024 12.8486C13.006 12.8401 13.0071 12.8306 13.0056 12.8214V12.8216ZM13.938 12.8263C13.9385 12.8265 13.939 12.8268 13.9395 12.8271C13.939 12.8269 13.9385 12.8268 13.938 12.8267H13.9354L13.938 12.8263ZM9.73425 12.9382C9.74018 12.9446 9.74732 12.9497 9.75525 12.9533H9.75488C9.74702 12.9496 9.74011 12.9446 9.73425 12.9382ZM13.221 12.9238L13.2071 12.9343C13.2116 12.9306 13.2163 12.9272 13.221 12.9238ZM12.8306 13.0523C12.8231 13.0617 12.8179 13.0728 12.8156 13.0847C12.8133 13.0967 12.814 13.109 12.8175 13.1207C12.8216 13.1348 12.828 13.1481 12.8364 13.1601C12.8468 13.1761 12.8572 13.1898 12.8676 13.2013C12.8561 13.1883 12.8456 13.1745 12.8361 13.1601C12.8277 13.1481 12.8215 13.1348 12.8175 13.1207C12.814 13.109 12.8133 13.0967 12.8156 13.0847C12.8179 13.0728 12.8231 13.0617 12.8306 13.0523ZM13.4649 13.0562L13.4634 13.0624C13.4575 13.0882 13.4443 13.1115 13.4254 13.1295H13.425C13.4439 13.1115 13.4572 13.0882 13.4631 13.0624L13.4649 13.0562ZM16.0931 13.1079C16.0893 13.1198 16.0879 13.1322 16.089 13.1446C16.0901 13.1569 16.0936 13.1689 16.0993 13.1799C16.0881 13.1576 16.0858 13.1319 16.0931 13.1079ZM22.0078 13.1023C22.0077 13.1229 22.0004 13.2508 21.9861 13.4858L21.9859 13.4861C22.0004 13.2511 22.0077 13.1232 22.0078 13.1023ZM9.89944 13.1314C9.89969 13.1317 9.89994 13.132 9.90019 13.1323C9.90006 13.1323 9.89994 13.1323 9.89981 13.1323C9.89969 13.132 9.89956 13.1317 9.89944 13.1314ZM15.2544 13.1438C15.2243 13.2322 15.1876 13.3182 15.1446 13.4012C15.1747 13.3128 15.2115 13.2267 15.2544 13.1438ZM14.9001 13.1648C14.8419 13.2442 14.7928 13.33 14.7538 13.4205C14.7357 13.5216 14.7162 13.5258 14.6953 13.4331C14.7054 13.4351 14.7159 13.4351 14.726 13.4329C14.7361 13.4307 14.7456 13.4265 14.754 13.4205C14.7932 13.3301 14.8422 13.2445 14.9001 13.1648ZM12.8184 13.2283C12.8094 13.2261 12.8 13.2264 12.7911 13.229C12.7822 13.2316 12.7742 13.2366 12.7678 13.2433C12.7029 13.312 12.6421 13.3845 12.5856 13.4603C12.6421 13.3845 12.703 13.3122 12.768 13.2435C12.7744 13.2368 12.7824 13.2318 12.7913 13.2292C12.8002 13.2265 12.8096 13.2263 12.8186 13.2285L12.8184 13.2283ZM13.7461 13.2566C13.7458 13.2644 13.747 13.2725 13.7498 13.2804L13.7805 13.3682V13.3693L13.7801 13.3682L13.7498 13.2804C13.747 13.2725 13.7458 13.2644 13.7461 13.2566ZM12.9137 13.2844C12.916 13.2905 12.9173 13.297 12.9174 13.3035C12.9173 13.3111 12.9161 13.3186 12.9137 13.3258C12.9161 13.3185 12.9173 13.311 12.9174 13.3033C12.9173 13.2969 12.916 13.2904 12.9137 13.2844ZM14.4459 13.3127L14.4306 13.3367C14.4361 13.3284 14.4412 13.3206 14.4459 13.3127ZM14.0514 13.3146C14.0151 13.3404 13.984 13.3727 13.9596 13.41C13.9512 13.4232 13.9395 13.4662 13.9245 13.5388C13.9394 13.4663 13.9509 13.4234 13.9592 13.41C13.9837 13.3726 14.015 13.3404 14.0514 13.3146ZM12.9463 13.3193H12.9467C12.9417 13.3238 12.9381 13.33 12.9366 13.337C12.9381 13.33 12.9413 13.3239 12.9463 13.3193ZM13.9269 13.3277C13.899 13.4092 13.8618 13.4872 13.8161 13.5602C13.8022 13.5824 13.785 13.6023 13.7651 13.6194C13.775 13.6111 13.7841 13.602 13.7925 13.5922C13.8011 13.5824 13.809 13.5717 13.8161 13.5602C13.8614 13.487 13.8986 13.409 13.9269 13.3277ZM13.6853 13.3573C13.7008 13.3576 13.7163 13.3603 13.731 13.3654C13.7208 13.3622 13.7104 13.3599 13.6999 13.3584C13.6905 13.3573 13.6811 13.3573 13.6718 13.3584C13.6541 13.3611 13.6376 13.3687 13.6241 13.3804C13.6411 13.3656 13.6628 13.3574 13.6853 13.3573ZM13.2034 13.4807C13.1995 13.4967 13.1908 13.5108 13.1784 13.521H13.1781C13.1905 13.5109 13.1994 13.4967 13.2034 13.4807ZM12.9006 13.4961C12.8723 13.5209 12.8474 13.5493 12.8265 13.5806C12.8388 13.5669 12.8501 13.5522 12.8603 13.5368C12.8726 13.5225 12.8861 13.5089 12.9006 13.4961ZM9.86138 13.569C9.85475 13.5921 9.846 13.6069 9.83513 13.6132C9.846 13.6072 9.85475 13.5925 9.86138 13.569ZM12.2792 13.6656C12.253 13.6747 12.2258 13.6804 12.1982 13.6824C12.1976 13.6827 12.1969 13.6829 12.1963 13.6832C12.1969 13.6828 12.1975 13.6824 12.1982 13.6821C12.2274 13.6798 12.2546 13.6743 12.2792 13.6656ZM13.0903 13.6018H13.0907L13.083 13.6102L13.0903 13.6018ZM9.91838 13.6466L9.97388 13.686C9.98763 13.701 10.0001 13.7169 10.0114 13.7336C9.99982 13.7171 9.98717 13.7014 9.9735 13.6866C9.95549 13.6728 9.93699 13.6595 9.91838 13.6466ZM13.8416 13.6564C13.828 13.6645 13.8151 13.6739 13.8032 13.6843C13.8126 13.6757 13.8254 13.6664 13.8416 13.6564ZM15.939 13.7231L15.936 13.7246C15.9341 13.7252 15.9334 13.725 15.9317 13.7258L15.936 13.7243L15.939 13.7231ZM14.2211 13.7293L14.2104 13.7466C14.2142 13.7409 14.2178 13.7352 14.2211 13.7293ZM14.6346 13.8623L14.6434 13.9598V13.9637L14.643 13.9598L14.6346 13.8623ZM13.7985 13.8345C13.7762 13.8462 13.7546 13.859 13.7336 13.8729C13.7536 13.8594 13.7754 13.8466 13.7985 13.8345ZM12.5694 13.8553C12.5564 13.8796 12.5403 13.9021 12.5214 13.9223C12.5295 13.9113 12.5382 13.9008 12.5475 13.8908C12.5555 13.8796 12.5628 13.8679 12.5694 13.8553ZM13.3828 13.875L13.3763 13.8853C13.3761 13.8853 13.376 13.8853 13.3759 13.8853L13.3828 13.875ZM12.8903 13.8819L12.8856 13.8913C12.875 13.9089 12.8632 13.9258 12.8503 13.9418L12.8484 13.9446C12.8492 13.9436 12.8492 13.9427 12.8499 13.9418C12.8693 13.916 12.8811 13.8991 12.8852 13.8911L12.8903 13.8819ZM14.0284 14.0621C14.0151 14.1109 14.0014 14.1593 13.9871 14.2073C13.9573 14.3064 13.9924 14.3762 14.0925 14.4167C14.1 14.4197 14.1068 14.4243 14.1123 14.4302C14.1179 14.436 14.1221 14.4429 14.1248 14.4504C14.161 14.5497 14.1446 14.571 14.0756 14.5144C13.9856 14.441 13.9575 14.461 13.9913 14.5744C14.0306 14.7081 14.0486 14.845 14.0453 14.985C14.0449 15.0006 14.0497 15.0163 14.0591 15.03C14.114 15.1101 14.1331 15.2008 14.1163 15.3019C14.1113 15.3331 14.1268 15.4119 14.1628 15.5381C14.1679 15.5559 14.1775 15.5701 14.1896 15.5775C14.215 15.5933 14.2338 15.5863 14.2459 15.5567C14.2523 15.5376 14.2535 15.5171 14.2493 15.4974C14.2238 15.3415 14.2171 15.1832 14.2292 15.0257C14.2072 14.7993 14.1879 14.5443 14.1713 14.2607C14.1699 14.2358 14.1629 14.2117 14.1506 14.19C14.1216 14.1379 14.1151 14.0988 14.1309 14.0728C14.2544 14.0623 14.3634 14.1114 14.4579 14.22C14.4936 14.2605 14.5431 14.2724 14.6066 14.2556C14.6103 14.2547 14.6142 14.2543 14.6179 14.2546C14.6216 14.2548 14.6252 14.2557 14.6284 14.2572C14.6315 14.2586 14.6343 14.2607 14.6364 14.2631C14.6385 14.2655 14.64 14.2683 14.6408 14.2714C14.6435 14.2837 14.6438 14.2965 14.6415 14.3089C14.6376 14.3277 14.638 14.3447 14.6426 14.3571C14.7621 14.6912 14.8123 15.0328 14.7932 15.3819C14.7764 15.6902 14.7669 15.8546 14.7645 15.8751C14.7448 16.0446 14.6826 16.2064 14.5836 16.3455C14.5284 16.423 14.4541 16.4786 14.3604 16.5122C14.2754 16.543 14.1834 16.5498 14.0948 16.5319C13.9756 16.5089 13.881 16.4511 13.8109 16.3586C13.7531 16.2828 13.6979 16.1726 13.6451 16.0281C13.6012 15.9091 13.5814 15.7826 13.5868 15.6559C13.5531 15.4836 13.5199 15.3111 13.4874 15.1384L13.5096 14.9781C13.5104 14.9716 13.5096 14.9645 13.507 14.9572C13.5044 14.9499 13.5001 14.9425 13.4946 14.9357C13.4608 14.8943 13.4591 14.8498 13.4893 14.802C13.5409 14.78 13.5587 14.7373 13.5426 14.6738C13.526 14.6078 13.5176 14.54 13.5176 14.472C13.5176 14.402 13.5397 14.3408 13.5838 14.2884C13.6962 14.1544 13.8444 14.079 14.0284 14.0621ZM8.3805 14.2142L8.376 14.238C8.37763 14.2301 8.37913 14.2222 8.3805 14.2142ZM15.5057 14.2937C15.4716 14.2941 15.4377 14.2984 15.4046 14.3064C15.2866 14.3352 15.1666 14.3534 15.0446 14.361C14.9465 14.3828 14.9218 14.4295 14.9704 14.5012C14.9746 14.5074 14.9805 14.5125 14.9875 14.5159C14.9945 14.5194 15.0025 14.5212 15.0107 14.5211C15.1916 14.5218 15.3701 14.5018 15.5464 14.4613C15.628 14.4721 15.6959 14.4481 15.75 14.3893C15.7854 14.3508 15.7769 14.3278 15.7247 14.3203L15.5634 14.2973C15.5443 14.2945 15.525 14.2934 15.5057 14.2937ZM14.8729 14.8862C14.8735 14.8863 14.8741 14.8864 14.8748 14.8866C14.8736 14.8867 14.8725 14.887 14.8714 14.8873C14.8719 14.8869 14.8724 14.8865 14.8729 14.8862ZM21.7389 15.3227C21.7044 15.468 21.6696 15.6116 21.6321 15.7434H21.6317C21.6692 15.6116 21.7044 15.468 21.7389 15.3227ZM13.4301 15.3743C13.4481 15.3738 13.4697 15.3824 13.4949 15.4003C13.498 15.4024 13.5006 15.4051 13.5025 15.4083C13.5044 15.4114 13.5057 15.4149 13.5062 15.4186C13.5066 15.4223 13.5063 15.426 13.5053 15.4295C13.5042 15.4331 13.5024 15.4363 13.5 15.4391C13.4481 15.5029 13.4098 15.5066 13.3851 15.4504C13.3817 15.4426 13.38 15.4344 13.3803 15.4262C13.3806 15.4181 13.3827 15.4103 13.3866 15.4035C13.3976 15.3845 13.4121 15.3748 13.4301 15.3743ZM19.0183 15.6684C18.9613 15.7357 18.9031 15.8004 18.8438 15.8625H18.8434C18.9029 15.8004 18.9612 15.7357 19.0183 15.6684ZM6.2025 15.9036L6.20738 15.9039C6.20569 15.9036 6.20419 15.9041 6.2025 15.9039L6.18975 15.9043L6.2025 15.9036ZM18.567 16.1327C18.3906 16.2954 18.2008 16.4431 17.9998 16.5743C17.8949 16.643 17.7826 16.7111 17.6627 16.7786V16.7783C17.7773 16.7141 17.8896 16.6462 17.9996 16.5744C18.2007 16.4432 18.3906 16.2955 18.567 16.1327ZM21.3928 16.5034C21.4007 16.5346 21.4209 16.5613 21.4534 16.5833V16.5836C21.4239 16.5654 21.4023 16.5368 21.3928 16.5034ZM21.2974 16.6898H21.2978C21.2803 16.7121 21.2667 16.7383 21.2571 16.7681C21.2474 16.7981 21.2418 16.8318 21.2402 16.8692C21.2402 16.8699 21.2391 16.8716 21.2391 16.8724L21.2398 16.8692C21.2417 16.8317 21.2474 16.7981 21.2571 16.7681C21.2666 16.7383 21.28 16.712 21.2974 16.6898ZM10.5992 16.7951C10.7052 16.8443 10.8049 16.906 10.8962 16.9789V16.9794C10.805 16.9062 10.7053 16.8443 10.5992 16.7951ZM18.2468 17.1733C18.1161 17.2764 17.9773 17.3688 17.8318 17.4497V17.4493C17.9716 17.3724 18.1099 17.2803 18.2468 17.1733ZM10.566 16.8334C10.5943 16.8348 10.5905 16.864 10.5548 16.9211C10.3716 17.2104 10.2713 17.3896 10.2536 17.4587C10.2249 17.5788 10.1553 17.6852 10.0566 17.7594C10.037 17.7759 10.0125 17.7855 9.987 17.7868C9.93113 17.7892 9.92075 17.7561 9.95588 17.6876C10.0159 17.6214 10.0584 17.5456 10.0836 17.4602C10.1406 17.2689 10.213 17.0835 10.3009 16.9039C10.3134 16.8468 10.3523 16.8269 10.4177 16.8443C10.4534 16.8541 10.4914 16.8531 10.5268 16.8413C10.5393 16.8362 10.5526 16.8337 10.566 16.8334ZM21.1988 17.0006C21.1718 17.0606 21.132 17.1343 21.0776 17.2239C21.0734 17.2308 21.0711 17.2386 21.0711 17.2463C21.0711 17.2539 21.0734 17.2611 21.0776 17.2669C21.1048 17.3031 21.1437 17.3119 21.1944 17.2931C21.1436 17.3119 21.1045 17.3033 21.0773 17.2673C21.073 17.2615 21.0707 17.2543 21.0707 17.2466C21.0707 17.2389 21.073 17.2311 21.0773 17.2241C21.1314 17.1349 21.1719 17.0604 21.1988 17.0006ZM8.40731 17.2196C8.45456 17.2229 8.46081 17.2407 8.42606 17.2731C8.33203 17.3607 8.26639 17.4744 8.23763 17.5997C8.23225 17.6222 8.20788 17.6489 8.1645 17.6799C8.15127 17.689 8.14206 17.7026 8.13881 17.718C8.10682 17.8651 8.03305 17.9998 7.92638 18.1059C7.92067 18.1116 7.91366 18.1157 7.90618 18.1175C7.8987 18.1194 7.89107 18.119 7.88419 18.1164C7.82194 18.0937 7.80388 18.0449 7.83 17.97C7.85513 17.8971 7.89713 17.8527 7.956 17.8367C7.95901 17.8358 7.96182 17.8343 7.96421 17.8323C7.96659 17.8303 7.96848 17.8279 7.96972 17.8252C7.97096 17.8226 7.97152 17.8197 7.97135 17.817C7.97118 17.8142 7.97029 17.8116 7.96875 17.8093L7.94944 17.7788C7.94457 17.7715 7.94109 17.7639 7.93924 17.7564C7.9374 17.7489 7.93723 17.7417 7.93875 17.7352C7.961 17.638 7.99688 17.5458 8.04638 17.4587C8.108 17.2864 8.22844 17.2067 8.40731 17.2196ZM14.7591 17.4368C14.8544 17.4518 14.9499 17.4664 15.0454 17.4808C15.0631 17.4836 15.1192 17.4846 15.2136 17.484C15.1192 17.4848 15.0631 17.4838 15.0454 17.4812C14.9499 17.4666 14.8544 17.4518 14.7591 17.4368ZM20.9124 17.5254C20.8942 17.5682 20.8821 17.6133 20.8766 17.6595L20.8759 17.661L20.8763 17.6595C20.8829 17.6091 20.8949 17.5644 20.9124 17.5254ZM1.30181 17.892L1.39425 17.9801V17.9807L1.302 17.8924C1.302 17.8923 1.30182 17.8921 1.30181 17.892ZM5.59875 17.9012C5.63188 17.9031 5.63775 17.9238 5.61638 17.9634C5.55876 18.0406 5.50717 18.1221 5.46206 18.2072C5.41853 18.2918 5.36705 18.372 5.30831 18.4468C5.20294 18.5764 5.10286 18.7102 5.00831 18.8479C4.98419 18.8703 4.96675 18.8709 4.956 18.8499C4.9531 18.8438 4.9519 18.8364 4.95248 18.8282C4.95307 18.8201 4.95543 18.8115 4.95938 18.8031C5.09813 18.5016 5.29613 18.2072 5.55338 17.9199C5.55898 17.9137 5.56596 17.9087 5.57381 17.9055C5.58166 17.9022 5.59018 17.9008 5.59875 17.9012ZM16.404 17.9792C16.0842 18.048 15.7598 18.0928 15.4333 18.1132L15.5061 18.147C15.5136 18.1505 15.52 18.1553 15.5244 18.1607C15.5288 18.166 15.5311 18.1717 15.531 18.177C15.5299 18.2429 15.5067 18.3139 15.4614 18.39C15.4191 18.4619 15.3882 18.5654 15.3688 18.7005H15.3684L15.3231 18.873C15.321 18.8805 15.3171 18.8872 15.3117 18.8923C15.3064 18.8975 15.3 18.9008 15.2931 18.9021L15.1226 18.9313C15.1147 18.9326 15.1068 18.9319 15.0997 18.9292C15.0927 18.9266 15.0867 18.9221 15.0827 18.9163C15.0452 18.8621 15.0401 18.8027 15.0673 18.7382H15.0677C15.0759 18.7222 15.0882 18.7087 15.1034 18.6992C15.1186 18.6896 15.1362 18.6844 15.1541 18.684C15.1567 18.6839 15.1592 18.6832 15.1614 18.6819C15.1636 18.6806 15.1654 18.6788 15.1667 18.6766C15.168 18.6744 15.1687 18.6719 15.1688 18.6694C15.1688 18.6668 15.1682 18.6643 15.1671 18.6621C15.1424 18.6092 15.1507 18.5499 15.1918 18.4841C15.2483 18.3935 15.2886 18.2938 15.3109 18.1894C15.3189 18.1664 15.3337 18.1465 15.3533 18.1322C15.373 18.1178 15.3965 18.1098 15.4208 18.1091L15.4333 18.1132C15.7598 18.0931 16.0843 18.0483 16.404 17.9792ZM18.0675 18.1236C18.0781 18.1231 18.0932 18.1296 18.1127 18.1433C18.1284 18.1542 18.1444 18.1599 18.1577 18.1594L18.2514 18.1553C18.2546 18.1551 18.2577 18.1556 18.2606 18.1566C18.2635 18.1577 18.2661 18.1594 18.2682 18.1615C18.2703 18.1636 18.2719 18.1661 18.2728 18.1688C18.2737 18.1715 18.274 18.1744 18.2736 18.1772C18.2596 18.2528 18.2146 18.3064 18.1388 18.3381C18.134 18.3401 18.1288 18.3411 18.1236 18.341C18.1184 18.341 18.1133 18.3398 18.1086 18.3377C18.1038 18.3356 18.0996 18.3326 18.0961 18.3288C18.0925 18.325 18.0898 18.3205 18.0881 18.3156C18.0419 18.1889 18.035 18.1251 18.0675 18.1236ZM12.6463 18.2835L12.6585 18.2893L12.6624 18.2923L12.6585 18.2897L12.6463 18.2835ZM18.0092 18.3259C18.0129 18.3231 18.0182 18.3233 18.0249 18.3263C18.0296 18.3281 18.0335 18.3321 18.0364 18.3376C18.0392 18.3432 18.0407 18.3501 18.0407 18.3574C18.0407 18.4266 18.0889 18.4549 18.1853 18.4421C18.1904 18.4415 18.1956 18.442 18.2005 18.4437C18.2054 18.4453 18.2099 18.4481 18.2135 18.4517C18.2172 18.4553 18.2199 18.4598 18.2215 18.4646C18.2232 18.4694 18.2237 18.4746 18.2229 18.4796C18.192 18.6851 18.1457 18.888 18.0842 19.0866C18.0561 19.1776 18.0083 19.171 17.9409 19.0669C17.9187 19.0324 17.9109 18.9906 17.9194 18.9506C17.9291 18.9044 17.9408 18.8376 17.9543 18.7504C17.9354 18.623 17.9496 18.493 17.9955 18.3728C17.9988 18.3632 18.0009 18.3532 18.0019 18.3431C18.0028 18.3345 18.0052 18.3288 18.0092 18.3259ZM12.9724 18.4399L12.984 18.4438C12.9803 18.4423 12.9761 18.4416 12.9724 18.4399ZM14.5571 18.6563C14.5928 18.6587 14.6059 18.66 14.6434 18.6624L14.6608 18.6662C14.655 18.6649 14.6488 18.6643 14.643 18.6628C14.5899 18.6591 14.6064 18.6596 14.5571 18.6563ZM14.8913 18.7076L14.9066 18.7097V18.7101L14.8913 18.7076ZM20.2071 18.7665C20.1916 18.792 20.1732 18.8156 20.1521 18.8368C20.1131 18.8751 20.0794 18.9184 20.0518 18.9656H20.0514C20.0736 18.9256 20.107 18.8827 20.1518 18.8368C20.1729 18.8157 20.1915 18.7921 20.2071 18.7665ZM11.3145 18.8544C11.3526 18.8498 11.3964 18.8556 11.4459 18.8719C11.449 18.8729 11.4518 18.8745 11.4541 18.8767C11.4564 18.8789 11.4583 18.8815 11.4595 18.8845C11.4607 18.8875 11.4613 18.8906 11.4611 18.8938C11.461 18.897 11.4601 18.9002 11.4587 18.903C11.3665 19.0763 11.2831 19.2541 11.2089 19.4359C11.1093 19.6802 10.9643 19.8798 10.7739 20.0344C10.7204 20.0775 10.7002 20.0653 10.7132 19.9976C10.7322 19.8978 10.775 19.8348 10.8416 19.8086C10.8448 19.8074 10.8476 19.8056 10.85 19.8033C10.8525 19.801 10.8544 19.7983 10.8558 19.7953C10.8571 19.7924 10.8578 19.7892 10.8579 19.786C10.8579 19.7828 10.8573 19.7797 10.8561 19.7768L10.8279 19.7017C10.8218 19.6867 10.8218 19.6701 10.8279 19.6556C10.9343 19.4004 11.065 19.1559 11.2181 18.9257C11.2469 18.8823 11.279 18.8586 11.3145 18.8544ZM13.3118 19.0624C13.3476 19.0556 13.3571 19.0812 13.3403 19.1392C13.3091 19.2461 13.2719 19.3511 13.2291 19.4539C13.2187 19.4786 13.1906 19.5571 13.1447 19.6894C13.1171 19.7691 13.0799 19.8452 13.0341 19.9161C12.9807 19.9993 12.9434 20.0521 12.9221 20.0745C12.8741 20.1236 12.8129 20.1577 12.7459 20.1727C12.6869 20.1871 12.6724 20.1679 12.7024 20.1152C12.7129 20.0976 12.7328 20.0804 12.7622 20.0636C12.7691 20.0597 12.775 20.0543 12.7795 20.048C12.784 20.0417 12.7869 20.0346 12.7881 20.0272C12.8183 19.8647 12.8785 19.7093 12.9656 19.5688C12.9928 19.4731 13.0326 19.3833 13.0851 19.2994C13.1158 19.2004 13.1764 19.1271 13.2669 19.0796C13.2811 19.072 13.2961 19.0662 13.3118 19.0624ZM17.0093 19.2096C16.8607 19.3056 16.708 19.3951 16.5518 19.4781C16.5339 19.5586 16.5107 19.6378 16.4824 19.7153C16.4563 19.7866 16.4369 19.8655 16.4243 19.9519C16.3971 20.1363 16.331 20.3129 16.2304 20.4697C16.177 20.5537 16.1337 20.549 16.1004 20.4555C16.0651 20.3559 16.0749 20.2323 16.1301 20.0848C16.1657 19.9888 16.1961 19.8912 16.2214 19.7919V19.7916C16.2669 19.6604 16.2926 19.5726 16.2986 19.5281C16.3146 19.4113 16.3971 19.3406 16.5461 19.3162C16.5522 19.3153 16.5583 19.316 16.564 19.3182C16.5696 19.3205 16.5747 19.3242 16.5786 19.3291C16.5826 19.3341 16.5853 19.34 16.5865 19.3463C16.5878 19.3527 16.5875 19.3593 16.5857 19.3656L16.5518 19.4781C16.7083 19.3951 16.8605 19.3056 17.0093 19.2096ZM2.2695 19.2476C2.30053 19.2433 2.3321 19.2449 2.3625 19.2525C2.44713 19.2733 2.49194 19.284 2.49694 19.2847V19.2851C2.452 19.2749 2.40718 19.2642 2.3625 19.2529C2.33206 19.2456 2.30057 19.2438 2.2695 19.2476ZM2.72138 19.3725C2.76169 19.3931 2.805 19.4164 2.832 19.4243V19.4246C2.80481 19.4168 2.76188 19.3933 2.72138 19.3725ZM8.76563 19.4869C8.77535 19.487 8.78489 19.4895 8.79349 19.4941C8.80208 19.4986 8.80948 19.5051 8.81509 19.5131C8.82069 19.521 8.82435 19.5302 8.82576 19.5398C8.82716 19.5494 8.82628 19.5592 8.82319 19.5684C8.79342 19.6584 8.74397 19.7406 8.67844 19.809C8.58485 19.9063 8.50986 20.0199 8.45719 20.1442C8.4517 20.1572 8.45097 20.1739 8.45513 20.1917C8.47188 20.2609 8.43194 20.3206 8.33531 20.3706C8.27319 20.4029 8.23681 20.3844 8.22619 20.3149C8.21756 20.2586 8.23494 20.1818 8.27831 20.0844C8.40156 19.8046 8.48719 19.64 8.53519 19.5908C8.60481 19.5195 8.6815 19.4849 8.76563 19.4869ZM16.0363 19.7618C16.0153 19.7663 15.995 19.7732 15.9756 19.7824V19.782C15.9958 19.7728 16.0161 19.766 16.0363 19.7618ZM3.91744 19.7955C3.96806 19.8191 4.01888 19.8414 4.06744 19.8696V19.8699C4.01869 19.8418 3.96806 19.8191 3.91744 19.7955ZM14.6423 20.1767C14.7375 20.1772 14.7544 20.2363 14.6931 20.3541H14.6934C14.6267 20.4797 14.551 20.6005 14.4671 20.7154C14.4315 20.7641 14.3904 20.8376 14.3438 20.9359C14.2949 21.04 14.2238 21.1322 14.1354 21.2059C14.1299 21.2106 14.123 21.2132 14.1159 21.2133C14.1089 21.2133 14.1021 21.2108 14.097 21.2063C14.058 21.1715 14.0478 21.1271 14.0663 21.0729L14.4555 20.2534C14.4622 20.239 14.4715 20.2264 14.4827 20.2165C14.494 20.2065 14.5069 20.1995 14.5206 20.1958C14.5602 20.1843 14.601 20.1779 14.6423 20.1767ZM6.34838 20.3396C6.39288 20.3327 6.40131 20.3648 6.37369 20.4356C6.30591 20.6144 6.20652 20.7795 6.08025 20.9231C6.06388 20.9419 6.04263 20.9911 6.0165 21.0707C5.99725 21.1082 5.95588 21.1678 5.89238 21.2494C5.78813 21.3831 5.74175 21.357 5.75325 21.171C5.87625 20.9514 5.954 20.7957 5.9865 20.7041C6.04238 20.5459 6.14406 20.4311 6.29156 20.3599C6.30952 20.3507 6.32863 20.3437 6.34838 20.3396ZM18.6709 20.532C18.6693 20.5376 18.6696 20.5435 18.6717 20.5489C18.6738 20.5543 18.6776 20.5589 18.6825 20.562C18.672 20.5545 18.6681 20.5445 18.6709 20.532ZM5.13188 20.7019C5.21313 20.739 5.26963 20.7676 5.30138 20.7876C5.34488 20.8155 5.38538 20.8367 5.42663 20.8598C5.38538 20.8367 5.34488 20.8157 5.30138 20.7879C5.24654 20.7561 5.18995 20.7274 5.13188 20.7019ZM3.88444 20.7206C4.12181 20.8738 4.36619 21.0225 4.61756 21.1669C4.36936 21.0245 4.1249 20.8757 3.88444 20.7206ZM18.6219 20.7441C18.6219 20.7441 18.622 20.7441 18.6219 20.7441ZM18.2079 20.9036H18.2083C18.1413 20.9681 18.0738 21.0409 18.0058 21.1219C17.9912 21.14 17.9791 21.1596 17.9696 21.1806H17.9693C17.979 21.1596 17.9913 21.1399 18.0058 21.1219C18.0736 21.0409 18.1409 20.9681 18.2079 20.9036ZM6.17775 21.0988C6.20575 21.1091 6.23475 21.1161 6.26475 21.1198C6.34788 21.1297 6.40475 21.1408 6.43538 21.153C6.40475 21.1406 6.34788 21.1297 6.26475 21.1202C6.235 21.1166 6.20579 21.1094 6.17775 21.0988ZM13.7809 21.1114C13.6784 21.1851 13.5781 21.227 13.4799 21.237C13.5778 21.2268 13.6781 21.1849 13.7809 21.1114ZM10.5203 21.1748C10.5874 21.1796 10.5998 21.2171 10.5576 21.2872C10.5363 21.3232 10.5235 21.3764 10.5191 21.4466V21.4472C10.5061 21.5029 10.4739 21.5523 10.4282 21.5867C10.4147 21.5958 10.4039 21.6083 10.3967 21.6229C10.3054 21.8148 10.1817 21.9896 10.0313 22.1396C10.0294 22.1416 10.0148 22.1604 9.98738 22.1959C9.96288 22.2274 9.93238 22.2343 9.89588 22.2165C9.88646 22.2118 9.87819 22.2051 9.87159 22.1969C9.865 22.1886 9.86024 22.179 9.85764 22.1687C9.85503 22.1584 9.85464 22.1476 9.85648 22.137C9.85832 22.1264 9.86235 22.1163 9.86831 22.1074L10.2557 21.5347C10.2949 21.4912 10.3233 21.4411 10.3408 21.3842C10.3659 21.3046 10.4104 21.2398 10.4743 21.1898C10.488 21.179 10.5043 21.1737 10.5203 21.1748ZM8.32219 21.2597C8.33695 21.2587 8.35331 21.2628 8.36906 21.2717C8.39444 21.2857 8.42069 21.2961 8.44781 21.3028C8.42019 21.2961 8.39358 21.2858 8.36869 21.2721C8.35307 21.2633 8.33685 21.2591 8.32219 21.2601V21.2597ZM8.53238 21.3122C8.70825 21.3451 8.88488 21.3732 9.06225 21.3966C9.22803 21.3832 9.39487 21.3947 9.55725 21.4307C9.604 21.4407 9.65669 21.4438 9.71531 21.4399V21.4403C9.66251 21.4446 9.60936 21.4414 9.55744 21.4309C9.39504 21.395 9.2282 21.3836 9.06244 21.3971C8.885 21.3736 8.70825 21.3454 8.53238 21.3122ZM7.13456 21.3446C7.13756 21.3451 7.1405 21.3458 7.14338 21.3465V21.3469L7.13456 21.3446ZM15.1476 21.4215C15.2099 21.422 15.2137 21.4826 15.1588 21.6032C15.1559 21.6094 15.1514 21.6152 15.1453 21.6203C15.1393 21.6255 15.132 21.6299 15.1238 21.6332C15.0793 21.6516 15.065 21.6859 15.081 21.7361C15.1028 21.805 15.086 21.8598 15.0308 21.9006C15.025 21.9049 15.0207 21.9108 15.0185 21.9175C15.0163 21.9242 15.0162 21.9313 15.0184 21.9379C15.0525 22.0463 15.0236 22.1411 14.9316 22.2223C14.8735 22.2704 14.8058 22.3053 14.733 22.3249C14.7411 22.1687 14.7788 22.0155 14.844 21.8734C14.8608 21.7477 14.9013 21.6319 14.9655 21.5259C14.9903 21.4857 15.0236 21.4574 15.0656 21.441C15.0994 21.4279 15.1267 21.4214 15.1476 21.4215ZM12.2704 21.4611C12.3035 21.4573 12.3378 21.4617 12.3731 21.4742C12.3721 21.4952 12.3523 21.5373 12.3135 21.6006C12.1854 21.81 12.0537 22.0172 11.9184 22.2221C11.8884 22.2669 11.8646 22.2641 11.847 22.2137C11.8211 22.1418 11.8303 22.0712 11.8744 22.0018C11.9526 21.8206 12.0526 21.6524 12.1744 21.4974H12.1748C12.2054 21.4769 12.2373 21.4648 12.2704 21.4611ZM12.4373 21.4961C12.4235 21.5139 12.4113 21.521 12.4007 21.5175C12.4112 21.5213 12.4234 21.5141 12.4373 21.4961ZM8.21775 21.5355C8.256 21.5224 8.27825 21.5388 8.2845 21.5848C8.29725 21.6772 8.27225 21.7602 8.2095 21.8338C8.14988 21.9033 8.112 21.9558 8.09588 21.9913C8.05088 22.0911 8.00744 22.1914 7.96556 22.2924C7.94544 22.3406 7.922 22.3702 7.89525 22.3813C7.85963 22.3963 7.81738 22.3938 7.7685 22.3738C7.76257 22.3714 7.75716 22.3678 7.7526 22.3633C7.74804 22.3588 7.74441 22.3535 7.74192 22.3476C7.73943 22.3417 7.73813 22.3353 7.73809 22.3289C7.73805 22.3225 7.73927 22.3162 7.74169 22.3103C7.84772 22.0472 7.99051 21.8005 8.16581 21.5775C8.17892 21.5589 8.19689 21.5445 8.21775 21.5355ZM17.1343 21.6694H17.1347C17.1039 21.7026 17.0761 21.7386 17.0518 21.7768C17.0517 21.7768 17.0516 21.7768 17.0514 21.7768C17.0758 21.7386 17.1035 21.7026 17.1343 21.6694ZM16.4394 22.0496C16.4396 22.0496 16.4398 22.0496 16.44 22.0496H16.4394ZM5.93663 22.1308C5.94351 22.1393 5.95182 22.1465 5.96119 22.1522V22.1526C5.95185 22.1468 5.94342 22.1394 5.93663 22.1308ZM10.1576 23.5044C10.0898 23.5059 10.0221 23.5131 9.9555 23.5262L9.95513 23.5258C10.0226 23.5128 10.0901 23.5057 10.1576 23.5044Z" />
</svg>