<svg fill="currentColor" viewBox="0 0 24 24" xmlns="http://www.w3.org/2000/svg"><path d="M18.05.207a2.381 2.381 0 00-.785.157 3.353 3.353 0 00-.503.27c-.162.1-.326.198-.492.292-.201.183-.404.365-.608.545a3.636 3.636 0 00-.514.656.049.049 0 00-.006.021c0 .008 0 .016.002.024.009.028.001.044-.021.05a.106.106 0 00-.044.02.737.737 0 00-.198.355.638.638 0 01-.064.158.543.543 0 00-.063.154l-.039.2a.157.157 0 01-.085.1 11.418 11.418 0 00-3.643-.428.75.75 0 00-.16.024 3.2 3.2 0 00-.157.046 10.781 10.781 0 00-3.767.887.44.44 0 01-.208-.184l-.072-.122a4.725 4.725 0 00-.668-.763 1.598 1.598 0 00-.417-.335 2.828 2.828 0 00-1.4-.438l-.11.005a.431.431 0 01-.145-.02.656.656 0 00-.382.107l-.152.099c-.399.23-.713.539-.943.927a4.961 4.961 0 00-.57 1.449 4.089 4.089 0 00-.086 1.069.535.535 0 01.031.108.25.25 0 01-.01.108.713.713 0 00-.024.182c-.001.045.013.103.042.174a.93.93 0 01.062.456c.095.418.17.727.226.928.014.054.015.1.002.138l-.055.113a1.894 1.894 0 00-.34.42l-.174.288c-.067.11-.126.224-.177.342a9.169 9.169 0 00-1.21 3.48 1.097 1.097 0 00-.066.45 5.438 5.438 0 00-.054.954l.018.574c.004.348.016.587.036.716.092.596.236 1.182.43 1.753l.06.103c.177.544.4 1.071.667 1.577.136.258.24.434.314.527.177.292.372.573.584.841l.143.192c.084.113.18.216.288.309l.34.414c.19.16.377.324.558.494.182.17.347.304.494.403.305.204.622.393.948.564.235.168.475.33.72.483.153.11.33.204.534.282.417.16.802.288 1.157.386.13.036.307.107.528.214a.09.09 0 00.049.009 1.5 1.5 0 01.313.002l.492.123c.137.033.671.08 1.603.143.258.017.518.016.777-.002a9.76 9.76 0 001.53-.04c.156-.017.346-.051.572-.103.189-.043.379-.084.57-.12a5.23 5.23 0 01.626-.189c.326-.139.653-.272.982-.401.092-.036.2-.091.322-.165a1.65 1.65 0 01.33-.158c.24-.079.447-.184.619-.314a.591.591 0 01.182-.091.957.957 0 00.302-.16c.23-.119.45-.254.66-.404.209-.15.413-.307.612-.47.354-.288.68-.607.977-.953.089-.105.192-.195.307-.27.147-.169.284-.346.411-.53.622-.766 1.13-1.62 1.505-2.533.038-.068.073-.136.106-.206a.983.983 0 00.06-.22.747.747 0 01.06-.186.666.666 0 00.05-.16.523.523 0 01.059-.162.485.485 0 00.06-.144l.027-.158a.066.066 0 00-.01-.045c-.032-.053-.019-.094.04-.124a.368.368 0 00.067-.235c0-.017.003-.033.01-.047a.725.725 0 00.088-.342c.061-.338.104-.677.13-1.019l.031-.217a.938.938 0 000-.253 2.62 2.62 0 01-.01-.593.664.664 0 01-.005-.302.079.079 0 00-.005-.047.349.349 0 01-.024-.085.304.304 0 01.015-.108.172.172 0 00-.003-.113.712.712 0 01-.053-.249.045.045 0 01.041-.046c.206-.015.404-.085.574-.202.12-.083.237-.172.348-.268a.619.619 0 00.294-.32c.047-.064.092-.129.134-.195a.065.065 0 00.008-.046c-.008-.048.006-.08.041-.096a.084.084 0 00.038-.03c.177-.283.262-.615.245-.95 0-.016.003-.032.01-.047a.118.118 0 00.004-.09l-.023-.068c-.043-.2-.119-.39-.226-.565a.143.143 0 00-.049-.05c-.07-.042-.111-.083-.122-.122a.112.112 0 00-.052-.066 3.003 3.003 0 01-.428-.296c-.048-.04-.168-.083-.36-.128a2.353 2.353 0 01-.26-.01 1.963 1.963 0 00-.259-.013 1.238 1.238 0 00-.525.158c-.15.045-.297.098-.442.159a.028.028 0 01-.02 0 .028.028 0 01-.015-.013 11.12 11.12 0 00-1.911-2.579c-.044-.043-.053-.094-.03-.153l.314-.771c.22-.575.361-1.186.426-1.833a3.937 3.937 0 00-.229-1.803.682.682 0 00-.06-.105 2.212 2.212 0 00-.958-.976 1.144 1.144 0 00-.442-.126 2.437 2.437 0 00-.272-.008zm-.08.345zm1.203.628a.18.18 0 01.005.04.075.075 0 01-.001.016.093.093 0 000-.035.165.165 0 00-.004-.02zm-1.589.26zm.157.006c.107.008.212.027.315.055a1.425 1.425 0 000 0 1.687 1.687 0 00-.315-.055zm-1.127.348c-.13.105-.258.211-.386.32a2.587 2.587 0 00-.734 1.01l-.202.511.202-.511a2.602 2.602 0 01.734-1.011c.128-.108.256-.214.386-.32zm1.058-.085c.24-.005.46.064.66.205.07.05.126.118.168.206.114.242.204.495.27.755l.044.362c.002.012.01.027.022.043.038.047.04.097.004.151a.413.413 0 00-.053.32.16.16 0 01-.032.127.138.138 0 00-.021.149.15.15 0 00-.05.163l-.038.175-.05.126a.064.064 0 01-.017.037l.001.003-.001-.003a.17.17 0 00.017.15.405.405 0 00-.163.264.403.403 0 00-.013.166c.007.066-.015.078-.066.036a9.651 9.651 0 00-2.744-1.605.026.026 0 01-.01-.006.016.016 0 01-.004-.01l-.002-.01.251-.39c.35-.56.812-.99 1.39-1.288a1.01 1.01 0 01.437-.126zm1.118.55h.001-.001zm-14.45.146c.007-.001.014 0 .021.002a.069.069 0 00-.045.005.08.08 0 01.023-.007zm14.662.044c.016.009.025.02.028.031.003.013 0 .027-.01.042.01-.015.013-.03.01-.042-.003-.012-.012-.022-.028-.031zm-14.344.008l.014.002.01.003a.125.125 0 00-.01-.003l-.014-.002zm.497.077l.007.002h.002-.002l-.007-.002zm14.686.21l-.003.01c0-.004.002-.007.003-.01zm-.004.088v.006a2.952 2.952 0 000 0v-.006zm-4.857.029c.004.009.01.017.017.024.019.02.044.024.075.012-.03.012-.056.008-.075-.012a.094.094 0 01-.017-.024zm.137.03h.002l.016.006-.016-.005h-.002zm-3.07.067zm7.638.139c.015.008.024.018.026.03.003.01 0 .024-.009.038.01-.014.012-.027.01-.039-.004-.011-.012-.021-.027-.03zm-10.648.127zm10.767.002h.01c-.014-.003-.031.006-.053.03.017-.018.03-.028.043-.03zm.042.053a.496.496 0 01-.01.246 1.442 1.442 0 000 0 .473.473 0 00.01-.246zm-5.191-.026zm-3.223.027h.007-.013.006zm-.5.004h.005-.012.006zm.695.004h.006v.001h-.006zm-.388.008l-.007.002h-.004.004l.007-.002zm-.885.003zm1.822.01h.011-.011zm-1.293.034zm3.734.019a4.146 4.146 0 000 0zm-5.3.015h.001zm.04 0h.001c.03.02.061.032.096.038l.01-.001-.01.001a.244.244 0 01-.096-.038h-.001zm2.648.03c0 .002 0 .004-.003.006l.003-.006zm-3.169.432a5.612 5.612 0 00-.831.16c-.067.018-.133.04-.197.066h-.004.004c.064-.026.13-.048.197-.067a5.59 5.59 0 01.831-.16zm.598-.291c-.004 0-.009 0-.013.002a.028.028 0 01.013-.002zm10.068.241a1.096 1.096 0 00-.002.15v.008-.007c-.003-.05-.002-.1.002-.15zm-15.157.157c.008 0 .016.002.024.006.034.015.077.02.128.012a.191.191 0 01.095.017.412.412 0 00.09.028c.37.062.655.253.853.573a.297.297 0 00.126.097l.556.627.375.552a.043.043 0 01.002.045.551.551 0 01-.214.22.03.03 0 01-.01 0 .023.023 0 01-.01-.005.02.02 0 01-.006-.007l-.036-.078c-.001-.05-.022-.085-.063-.102a.043.043 0 00-.023-.002.053.053 0 00-.022.008c-.152.1-.15.202.005.307.012.01.017.023.015.04a.15.15 0 00-.042.063l.002.006-.002-.006-.228.212a.054.054 0 01-.049.013.053.053 0 01-.037-.033l-.082-.228a.04.04 0 00-.012-.018.03.03 0 00-.02-.006c-.104.002-.134.057-.09.164.04.098.063.201.065.307a.072.072 0 01-.014.045 1.687 1.687 0 01-.364.37.036.036 0 01-.021.007.023.023 0 01-.018-.008c-.013-.017-.019-.045-.017-.085a.045.045 0 00-.056-.046c-.182.046-.193.127-.033.244l-.053.115-.36.341a.337.337 0 01-.076-.152.536.536 0 00-.116-.25.018.018 0 00-.024.007.338.338 0 00-.04.082.413.413 0 01-.04.082c-.03.051-.012.085.053.1.005.002.01.005.013.01a.03.03 0 01.006.015l.024.28c-.03.15-.123.23-.275.238a.555.555 0 00-.115-.279.033.033 0 00-.019-.011.03.03 0 00-.02.003c-.06.03-.069.081-.027.152.029.108.06.216.093.323a.411.411 0 01-.327.126 3.374 3.374 0 01-.237-.555.713.713 0 01-.089-.285L3.53 7.5a.214.214 0 01-.097.006.101.101 0 01-.063-.041.514.514 0 000 0 .101.101 0 00.063.041.213.213 0 00.097-.006.694.694 0 00-.031-.154.563.563 0 01-.033-.15 3.806 3.806 0 00-.106-.715 1.666 1.666 0 01-.03-.273l-.006.001.006-.001c.01-.085 0-.17-.028-.252a.101.101 0 01-.003-.049c.023-.12.034-.241.033-.364a.3.3 0 00-.026-.204.036.036 0 01-.003-.02c0-.008.004-.014.008-.02a.139.139 0 00.036-.114.338.338 0 01.02-.18c.073-.187.162-.368.268-.54a.769.769 0 01.22-.23c.15-.105.308-.2.47-.286a.045.045 0 01.021-.004zm1.063.008zm5.238.007c.066-.005.127.021.184.08.106.11.193.236.257.374a.115.115 0 00.03.038.288.288 0 01.077.15.78.78 0 00.114.261.042.042 0 01.004.04.042.042 0 01-.03.024c-.089.016-.155-.007-.2-.069a7.26 7.26 0 00-.09-.126 2.156 2.156 0 01-.444-.686.055.055 0 010-.042.053.053 0 01.03-.028.247.247 0 01.068-.016zm-3.349.135l-.006.003-.005.002.005-.002.006-.003zm-.091.054h-.001zm-.352.052a.073.073 0 01.041.003.067.067 0 000 0 .073.073 0 00-.04-.003l-.251.05.25-.05zm9.353.02l.022.008a6.393 6.393 0 000 0l-.022-.008zm2.499.136zM7.33 4.394c.013.028.026.055.042.081.043.084.09.166.135.248-.045-.082-.092-.164-.135-.248-.017-.026-.029-.054-.042-.081zm-1.659.013l.043.03a.755.755 0 01-.043-.03zm1.522.004a.026.026 0 01.016.01v.001a.026.026 0 00-.016-.01zm6.972.089c.02.004.038.013.053.025.037.028.064.08.081.154.105.47.157.708.156.715a.304.304 0 00.048.218.052.052 0 01.008.022.038.038 0 01-.003.021c-.03.066-.082.098-.157.095a.037.037 0 01-.02-.007.043.043 0 01-.014-.019 1.369 1.369 0 01-.1-.393 4.31 4.31 0 01-.222-.635.114.114 0 01.014-.09c.052-.08.104-.116.156-.106zm3.171.044zm-8.533 0a.035.035 0 01.028.01c.099.096.186.202.263.317.033.051.087.125.162.224.056.073.104.153.142.239.049.112.015.137-.1.075a1.238 1.238 0 01-.239-.163c-.082-.07-.198-.231-.348-.483a.065.065 0 01-.009-.024.038.038 0 01.003-.021l.075-.157a.028.028 0 01.01-.011.03.03 0 01.013-.006zm9.788.006l.002.002-.002-.002zm-11.39.065a.132.132 0 010 0zm-5 .02zm5.388.247c0 .007-.001.014-.004.02-.013.024-.028.037-.048.04.02-.003.035-.016.048-.04a.041.041 0 00.004-.02zm11.402.038c.043.04.09.073.14.1a.63.63 0 00-.072-.044.748.748 0 01-.068-.056zm-12.758.094c.02.038.04.086.059.146.005.015.015.029.028.039a.085.085 0 01-.028-.04 1.012 1.012 0 00-.059-.145zm12.356-.005a.15.15 0 000 0zm-6.085.255c.014.001.027.005.039.013.005.004.01.01.012.017a.054.054 0 01.003.025c-.01.08.007.148.05.205.068.088.102.135.104.138.032.071.058.158.078.262a.18.18 0 00.039.081.503.503 0 01.12.29c.005.048-.015.06-.058.037a.199.199 0 01-.086-.09 2.162 2.162 0 00-.052-.108 1.682 1.682 0 01-.113-.204 1.386 1.386 0 01-.241-.65.024.024 0 01.005-.01.016.016 0 01.008-.005h.008l.015.007.015.003c.005 0 .01 0 .013-.002a.093.093 0 01.041-.009zM2.1 5.294h-.002.002zm12.277.214c-.009 0-.027.013-.053.037a.038.038 0 00-.012.02c-.002.019.006.025.026.018a.05.05 0 00.018-.012.068.068 0 00.014-.02c.014-.03.016-.044.007-.043zm4.663.263a.016.016 0 00.012.003l.006-.001a.014.014 0 00.005-.004l.002-.003-.002.003a.014.014 0 01-.011.005h-.006a.016.016 0 01-.006-.003zM6.528 5.657zm4.211.06c.084-.003.157.054.218.17a.281.281 0 00.096.106c.03.02.039.05.025.091a.126.126 0 00.034.134c.164.147.258.29.28.427.008.052-.008.062-.05.031a4.405 4.405 0 01-.604-.54.078.078 0 01-.02-.042.313.313 0 00-.14-.217.055.055 0 01-.023-.044.054.054 0 01.02-.044.297.297 0 01.164-.071zm-4.089.195v0zm-3.43.453zm15.775.196c.016 0 .032.004.044.014a.877.877 0 01.353.741c-.005.15-.044.264-.116.343a.314.314 0 01-.28.097.388.388 0 01-.24-.127c-.24-.248-.26-.543-.062-.882a.352.352 0 01.3-.186zm-4.376.18v.002l-.053.17.052-.17V6.74zM3.33 6.775zm16.382.047c.081.096.163.199.245.308a33.838 33.838 0 010 0 6.955 6.955 0 00-.245-.308zm-16.47.032zm12.39.107a1.608 1.608 0 01.54.11l.452.13c.182.043.358.106.527.189.185.073.36.166.522.278.113.078.268.2.465.364.435.364.806.798 1.097 1.284.007.011.02.018.036.02a.098.098 0 00.052-.014.575.575 0 01.174-.062c.06-.01.082.003.065.04a.049.049 0 01-.013.016.119.119 0 01-.024.015l-.184.088a.027.027 0 00-.013.015.033.033 0 000 .022c.05.131.118.255.203.368.198.462.348.943.446 1.436.002.014 0 .03-.007.047-.022.052-.02.137.006.256a.47.47 0 01.01.07c.003.078.013.156.029.234a.49.49 0 01.005.174c-.014.09-.022.15-.023.176-.057 1.522-.637 2.781-1.74 3.777a4.92 4.92 0 01-2.63 1.23l-.109.031a.218.218 0 01-.125-.001.103.103 0 00-.048-.004c-.35.06-.668.067-.954.02a1.187 1.187 0 00-.31-.018.093.093 0 01-.048-.007 2.105 2.105 0 00-.497-.147 5.296 5.296 0 00-.424-.183 4.272 4.272 0 01-1.345-.82c-.755-.68-1.28-1.532-1.573-2.56a.257.257 0 01-.01-.05 1.37 1.37 0 00-.077-.4.765.765 0 01-.053-.228l.011-.15c.01-.123-.06-.186-.208-.19-.06 0-.063-.013-.007-.036.053-.022.112-.012.176.03.02.013.029.009.027-.014l-.037-.378a.038.038 0 00-.007-.02.074.074 0 00-.019-.017c-.04-.027-.04-.055 0-.082a.075.075 0 00.03-.036.722.722 0 00.03-.274v-.1l-.002-.001h.002c.04-.231.103-.458.188-.677.083-.471.245-.925.48-1.342.045-.02.056-.053.036-.098l.2-.253c.184-.33.427-.624.718-.866l.337-.236a.112.112 0 00.039-.039c.096-.056.195-.107.296-.154.12-.118.257-.218.408-.295.333-.125.664-.258.99-.4a1.95 1.95 0 00.384-.078c.485-.148.962-.19 1.432-.127.252.035.457.05.614.048a1.615 1.615 0 00-.27-.08 1.424 1.424 0 00-.27-.03zm-6.055.027a.054.054 0 01.02.008.06.06 0 01.015.015c.133.183.277.358.43.524.058.05.112.101.163.157.038.042.057.08.055.116-.002.053-.039.084-.108.092a.069.069 0 01-.046-.01c-.143-.09-.3-.232-.47-.424a1.097 1.097 0 01-.212-.315.058.058 0 01-.004-.025.03.03 0 01.008-.02l.113-.108a.038.038 0 01.016-.01.045.045 0 01.02 0zm3.265.47a.452.452 0 00-.203.066h-.002l.002-.001a.431.431 0 01.203-.065zm-.332.081zm-4.922.055c.045-.007.103.032.172.117.04.075.095.135.163.18.086.057.13.086.13.088.125.098.249.197.372.296a.18.18 0 01.08.088.046.046 0 01-.042.066.614.614 0 01-.517-.292.072.072 0 00-.037-.029.495.495 0 01-.288-.237.061.061 0 00-.036-.028.234.234 0 01-.086-.049.042.042 0 01-.012-.019.047.047 0 01-.001-.023c.022-.098.056-.15.102-.158zm4.663.29a.062.062 0 01-.045.012c-.06-.004-.104.009-.13.039.026-.03.07-.043.13-.039a.062.062 0 00.045-.013zm-9.998.271c-.043.058-.09.111-.142.161a.407.407 0 01-.118.247v-.001a.407.407 0 00.118-.246c.052-.05.099-.103.142-.16zm9.241.036a.039.039 0 01.014.024.076.076 0 01-.004.033c.004-.01.005-.022.004-.033a.04.04 0 00-.014-.024zm-.168.139c.023.022.044.034.064.037-.02-.002-.041-.014-.065-.037zm-8.92.016zm19.993.126a.91.91 0 01.809.369c.01.004.015.013.015.027l.196.141c.04.03.036.045-.012.047-.13.007-.12.062.027.166a.255.255 0 01.094.123c.037.106.054.234.048.385 0 .015.005.031.015.045.04.051.016.072-.07.06a.07.07 0 00.039.044.114.114 0 01.021.013c.022.021.015.031-.02.03a.75.75 0 01-.012.283.018.018 0 01-.015.006.02.02 0 01-.009-.002c-.03-.015-.055-.012-.074.01a.027.027 0 00-.007.018.04.04 0 00.008.021c.086.125.063.235-.07.328-.005.072-.026.08-.063.025-.103.081-.097.108.017.081a.067.067 0 01.025-.001c.008 0 .013.003.016.008a.04.04 0 01.009.025c.084.034.115.088.091.162a.03.03 0 01-.013.017.027.027 0 01-.02.002l-.16-.045-.166.2a.063.063 0 01-.042.023c-.063.007-.09.03-.083.067.033.034.042.069.029.107a.034.034 0 01-.014.016.052.052 0 01-.022.008.246.246 0 00-.09.032.247.247 0 01-.127.1c-.059.024-.152.074-.278.151a.204.204 0 01-.16.061l-.199-.001a.556.556 0 01-.203-.047l-.536-.216a1.003 1.003 0 01-.204-.135c-.41-.323-.57-.747-.482-1.273a2.2 2.2 0 00.004-.064.123.123 0 01.05-.093l.04-.075a.207.207 0 01.097-.188.126.126 0 01.04-.103.15.15 0 00.048-.136c-.014-.042-.038-.057-.073-.045a.037.037 0 00-.014.012.11.11 0 00-.014.023l-.073.162a.046.046 0 01-.015.018.06.06 0 01-.024.01c-.029.005-.04-.007-.033-.039a.433.433 0 01.165-.251.053.053 0 01.02-.01.073.073 0 01.026-.001.171.171 0 00.16-.067c.059-.109.145-.2.252-.263a1.21 1.21 0 01.892-.353 1.31 1.31 0 01.144-.018zm-20.425.131v.002l.014.11-.015-.11v-.002zm12.985.124a1.05 1.05 0 00-.175.011 2.982 2.982 0 00-1.418.584.738.738 0 00-.29.556.293.293 0 00.065.217c.062.074.14.133.23.17.134.058.274.094.418.107l.19.031a.398.398 0 00.199-.018c.038-.013.16-.01.364.01.007.001.014.004.019.01a.03.03 0 01.008.017c.02.214.053.426.097.636.013.06.019.139.019.238 0 .081.01.162.03.241a.05.05 0 00.009.018.11.11 0 00.018.018l.053.041a.08.08 0 01-.027.061.131.131 0 00-.024.143c.007.015.01.031.011.047a.966.966 0 00.112.459c0 .003 0 .005-.002.008a.016.016 0 01-.012.009 9.027 9.027 0 01-.462.039.544.544 0 00-.303.037l-.023.002a.476.476 0 00-.28-.05.623.623 0 01-.191.004 5.24 5.24 0 00-.504-.07.094.094 0 01-.045-.017.268.268 0 00-.259-.03l-.25.013a.708.708 0 00-.348.136 3.887 3.887 0 00-.145.111.449.449 0 00-.113.149 2.07 2.07 0 01-.137.24.45.45 0 00-.078.26c0 .066.01.153.031.261a.712.712 0 00.152.32.05.05 0 00.012.025.15.15 0 00.095.117c.098.09.207.168.323.232a.051.051 0 00.024.007.034.034 0 00.021-.006.065.065 0 00.02-.024.057.057 0 01.014-.018.03.03 0 01.016-.008c.024-.003.029.007.015.03-.053.085-.037.138.047.16.285.073.573.123.866.148a.036.036 0 01.032.026.22.22 0 01-.055.218.068.068 0 00-.02.043 8.81 8.81 0 00.017.806c.019.298.078.577.178.838.04.107.104.186.189.238.265.16.54.183.827.07.095-.037.154-.064.177-.08a.254.254 0 00.108-.176.177.177 0 01.043-.09.344.344 0 00.057-.076c.108-.234.143-.495.102-.749a2.513 2.513 0 00-.032-.853.086.086 0 00-.01-.025.042.042 0 00-.014-.016c-.021-.011-.035.003-.043.042-.007.037-.026.056-.055.056a.03.03 0 01-.02-.008.034.034 0 01-.01-.02.118.118 0 01.047-.118.068.068 0 00.027-.038c.014-.068-.017-.096-.09-.086-.027.004-.042 0-.048-.01a.014.014 0 01-.001-.008c0-.004.002-.007.004-.01a.045.045 0 01.021-.014c.136-.044.274-.074.416-.09a.834.834 0 00.201-.055.625.625 0 01.297-.038 1.83 1.83 0 00.226-.05l.148-.038c.285-.112.569-.226.85-.344a.957.957 0 00.23-.135l.111-.147a.608.608 0 01.136-.118.45.45 0 00.133-.144c.178-.19.336-.397.47-.62.04-.15.086-.297.138-.442.01-.03.01-.054 0-.07-.015-.02-.042-.029-.081-.023-.044.006-.047-.003-.012-.028.028-.02.052-.025.073-.016a.032.032 0 00.02.002.02.02 0 00.013-.01.354.354 0 00.015-.32 1.91 1.91 0 00-.147-.26c-.099-.155-.23-.222-.392-.201a.069.069 0 01-.045-.01.134.134 0 00-.105-.024c-.3.065-.583.21-.85.434a.282.282 0 01-.094.051 2.832 2.832 0 00-.54.24 6.39 6.39 0 00-.652.274 3.546 3.546 0 00-.104.076.181.181 0 01-.156.027.3.3 0 01-.077-.199.213.213 0 00-.048-.215l-.002-.224a5.3 5.3 0 00-.17-1.132c-.006-.061-.055-.109-.148-.143-.02-.007-.02-.013 0-.019.157-.044.317-.086.48-.126.11-.027.278-.121.507-.283a.74.74 0 00.305-.503c.033-.185-.007-.325-.12-.423-.054-.046-.172-.105-.353-.177a2.14 2.14 0 00-.33-.1.936.936 0 00-.166-.019zm2.192 4.892a.995.995 0 01-.23.135 41.97 41.97 0 01-.85.344l-.156.11a.305.305 0 00-.047.04.116.116 0 00-.025.036c-.036.1-.019.128.052.086.096-.056.196-.104.299-.143.168-.063.27-.103.306-.12.332-.16.646-.352.94-.574a.04.04 0 00.014-.018.028.028 0 000-.02c-.015-.036-.042-.033-.08.01a.366.366 0 01-.223.114zm3.88-4.843a.057.057 0 01-.008.016.055.055 0 00.009-.016zM2.755 8.88c.042.034.065.08.071.139.003.027.01.046.02.057-.01-.01-.017-.03-.02-.057a.197.197 0 00-.071-.139zM1.776 9v.004l-.002.002v-.002l.002-.005zm.023.155h.004-.006.002zm-.072.05v.001l-.108.16v0l.108-.16v-.002zm13.769.055l.001.002a.02.02 0 00-.001-.002zm-13.889.15a.263.263 0 01-.01.108.47.47 0 01-.057.118l-.001.002v-.002a.45.45 0 00.058-.118.266.266 0 00.01-.108zm5.902.026a.225.225 0 01.076.009c.154.045.226.118.214.218a.06.06 0 00.027.057c.077.05.109.108.095.176-.01.047.002.139.035.277a.413.413 0 01-.05.323.851.851 0 01-.28.287.056.056 0 01-.023.008.064.064 0 01-.023 0l-.325-.074a.076.076 0 01-.04-.024.843.843 0 01-.189-.767.637.637 0 00.008-.137c-.002-.06.017-.105.056-.134.106-.081.222-.15.345-.202a.223.223 0 01.074-.017zm13.013.194a.808.808 0 00-.083.334.67.67 0 00.007.108.084.084 0 01-.007.048.085.085 0 00.007-.048.673.673 0 01-.007-.108.806.806 0 01.083-.334zm-5.787.05h.002-.004.002zm-.004 0l-.001.002V9.68zm-4.203.035a.185.185 0 00-.038.023.15.15 0 00-.014.012.15.15 0 01.052-.035zm3.49.1a.126.126 0 00.004.013l-.003-.013zm-13.013.296v.002-.002zm.311.08l-.006.019.006.005-.006-.005-.003.003.002-.003.007-.02zm-.108.314v.003c0 .01-.045.166-.135.467l-.001.005v-.005c.09-.3.135-.457.136-.467v-.003zm18.844.096c-.011.006-.02.025-.023.057-.001.007 0 .015.002.023a.068.068 0 00.013.022.188.188 0 01.029.046.104.104 0 010 .09.169.169 0 01-.03.043.054.054 0 00-.014.02.04.04 0 000 .023c.002.01.005.019.01.028a.11.11 0 01-.01-.028.04.04 0 010-.022.053.053 0 01.013-.02.17.17 0 00.03-.044.105.105 0 000-.09.19.19 0 00-.029-.046.07.07 0 01-.012-.022.05.05 0 01-.002-.023c.004-.032.012-.05.023-.057zm3.536.084zm-3.408.181a.088.088 0 01.02.024.043.043 0 01.006.02.043.043 0 00-.007-.02.093.093 0 00-.02-.024zm.078.208a2.474 2.474 0 01.134 1.047l-.039.469.04-.47a2.474 2.474 0 00-.135-1.046zm.37.064l.36.347-.36-.347zm-19.58.085l.001.005.001.003-.001-.003v-.005zm16.877.22c.008.001.017.005.023.012a.034.034 0 00-.023-.01.032.032 0 00-.024.007.032.032 0 01.024-.008zm-.513.02a.752.752 0 01-.166.022.7.7 0 00.066-.013.754.754 0 01.1-.009zm-7.456.03v.008-.008zm-.201.066v0zm8.05.034a.263.263 0 00-.067.051.253.253 0 00.033-.03.275.275 0 01.034-.021zm3.721.097a5.24 5.24 0 000 0zm-4.817.01zm.486.106zm-7.437.064zm7.392.067zm-7.421 0a.287.287 0 00.014.068c.004.012.005.029.001.047l-.024.111a.05.05 0 000 .02.052.052 0 010-.02l.024-.11a.094.094 0 00-.001-.048.282.282 0 01-.014-.067zm7.336.028l-.002.002.002-.002zm-2.217.101h.001l-.002.001h.002zm3.149.023v.001zm-1.598.09c.012-.001.023.002.033.01a.054.054 0 00-.033-.01h-.008.008zm1.165.162l.001.001h-.001zm-4.874.052c-.005.01-.015.016-.031.02.015-.004.026-.011.031-.02zm-.073.036a.018.018 0 000 .008c0 .003 0 .006.002.008a.017.017 0 01-.002-.016zm1.93.004h.002H14.54h.007zm-7.94.01c.247.007.468.058.662.152.041-.018.075-.01.102.024a.05.05 0 00.015.012.115.115 0 00.024.009l.063.016c.006.002.01.006.014.013a.042.042 0 01.002.024c-.017.099.019.17.108.213.064.055.129.108.195.16.022.016.035.033.037.048a.056.056 0 01-.013.048.03.03 0 00-.006.018c0 .006.003.012.007.016a.191.191 0 01.055.137c0 .017.005.033.013.046.06.09.099.196.11.305a.382.382 0 00.06.094l.009.018a.135.135 0 01.005.026l.04.323a.165.165 0 01-.004.075c-.04.115-.083.229-.13.341l-.075.206a1.18 1.18 0 01-.466.584.207.207 0 00-.056.055c-.045.066-.102.1-.169.1a.113.113 0 00-.047.01 1.137 1.137 0 01-.57.124c-.06-.004-.095.017-.109.063a.018.018 0 01-.01.013.016.016 0 01-.008.001.015.015 0 01-.007-.002c-.09-.057-.171-.078-.243-.062a.755.755 0 01-.194.02 5.387 5.387 0 00-.114-.005.582.582 0 01-.33-.099 3.766 3.766 0 01-.153-.106.365.365 0 01-.113-.153.045.045 0 00-.033-.027l-.089-.016a.063.063 0 01-.039-.027l-.274-.396a.078.078 0 01-.014-.044c0-.016.005-.032.014-.045.02-.028.02-.05-.005-.068-.088.026-.123 0-.105-.076a.102.102 0 00-.001-.048.174.174 0 01.019-.139l.087-.44a.3.3 0 01.052-.252l.049-.16c.1-.357.298-.646.591-.868a.255.255 0 01.136-.111c.157-.07.374-.118.651-.141a2.34 2.34 0 01.257-.008zm10.082.01a.49.49 0 000 0zm.184.002l.21.183a.052.052 0 00.02.01.053.053 0 01-.02-.01l-.21-.183zm.897.07l.002.001h-.002zm-2.035.001zm1.508.024v.001l-.001.002v-.002h.001zm-3.846.007l.001.002v-.002zm2.943 0a.431.431 0 000 0zm-3.176.012l.012.003a.037.037 0 00-.024-.003h.012zm.236.009v.002h-.001v-.002zm3.475.017a.045.045 0 010 0zm.108.01a.1.1 0 01.028.013.184.184 0 00-.028-.013zm-3.265.01a.177.177 0 00.036.015.13.13 0 00.07.001.15.15 0 00-.035.004.131.131 0 01-.035-.005.188.188 0 01-.036-.015zm1.496.024v.001h-.001v-.001zm-2.134.002a.184.184 0 00-.053.03.095.095 0 00-.017.017.075.075 0 00-.006.009.075.075 0 01.023-.027.196.196 0 01.053-.029zm3.517.032a.17.17 0 01.082.02.183.183 0 01-.04-.015.192.192 0 00-.042-.005zm0 0a.209.209 0 00-.048.005.528.528 0 010 0 .22.22 0 01.048-.005zm-3.637.013a.067.067 0 01-.03.014.132.132 0 01-.042.002l-.026-.003.026.002a.13.13 0 00.043 0 .075.075 0 00.03-.015zm1.647.001zm-2.167.001l-.004.003.004-.003zm1.23 0c.003 0 .006 0 .01.002a.029.029 0 00-.02.002.027.027 0 00-.013.015.027.027 0 01.022-.018zm3.773.003h.001-.002.001zm-4.882 0a.16.16 0 01-.02.001.23.23 0 00.02 0zm2.271.002v.001-.001zm-.342.033a.105.105 0 01.069.044.113.113 0 00-.043-.037.116.116 0 00-.026-.007zm.309-.002a.43.43 0 00-.177.223.443.443 0 01.177-.223zm-1.996.016a.018.018 0 01.011 0 .02.02 0 00-.017.003.033.033 0 00-.005.004.025.025 0 01.011-.007zm.203.082zm.932.004l.002.001h-.005.003zm-4.204.112a.065.065 0 010 0zm3.487-.014l-.014.01a.281.281 0 01.014-.01zm-.39.128a.075.075 0 00-.013.069c.004.014.01.027.018.04a.13.13 0 01-.018-.04.076.076 0 01.013-.069zm.634.004l-.002.006a.134.134 0 000 0l.002-.006zm2.628.052zm5.915-.006c0 .02-.008.149-.022.384.014-.235.022-.363.022-.384zm-12.109.03H9.9zm5.355.012a1.87 1.87 0 01-.11.257c.03-.088.067-.174.11-.257zm-.354.02c-.058.08-.107.166-.146.257-.018.1-.038.105-.059.012a.076.076 0 00.059-.012c.04-.09.088-.176.146-.256zm-2.082.064a.053.053 0 00-.05.015.053.053 0 01.05-.014zm.928.029c0 .007.001.016.004.023l.03.088v.001l-.03-.089a.064.064 0 01-.004-.023zm-.832.027a.056.056 0 000 0zm1.532.029l-.015.024a.587.587 0 00.015-.024zm-.395.002a.356.356 0 010 0zm-1.105.004a.033.033 0 00-.01.018.033.033 0 01.01-.018zm.98.009a1.178 1.178 0 000 0zm-.24.03a.148.148 0 01-.014 0 .094.094 0 00.013 0zm-.483.123a.076.076 0 000 0zm-.302.015zm-3.04.073c-.006.023-.015.038-.026.044.011-.006.02-.02.026-.044zm2.418.097a.317.317 0 01-.08.016l-.003.001h.002a.318.318 0 00.081-.017zm.811-.064l-.007.008.007-.008zm-3.172.045l.056.039a1.43 1.43 0 00-.056-.04zm3.924.01zm2.097.066l-.003.002h-.004.004l.003-.002zm-1.718.006l-.01.018a.26.26 0 00.01-.018zm.414.133l.008.098v.004-.004l-.008-.098zm-.836-.027zm-1.23.02zm.814.02l-.007.01.007-.01zm-.493.007l-.004.01a.452.452 0 01-.036.05l-.002.003.002-.003a.491.491 0 00.035-.05l.005-.01zm1.138.18a6.434 6.434 0 01-.04.145c-.03.1.004.17.104.21a.057.057 0 01.032.034c.037.099.02.12-.048.063-.09-.073-.119-.053-.085.06.04.134.058.271.054.411 0 .016.005.031.014.045a.36.36 0 01.057.272.8.8 0 00.047.236.067.067 0 00.027.04c.025.015.044.008.056-.021a.113.113 0 00.003-.06 1.981 1.981 0 01-.02-.471 20.163 20.163 0 01-.058-.765.161.161 0 00-.02-.071c-.03-.052-.036-.091-.02-.117.123-.01.232.038.327.147.036.04.085.052.149.036a.036.036 0 01.01-.001c.005 0 .008 0 .011.002a.024.024 0 01.008.006.02.02 0 01.005.008.095.095 0 010 .038.09.09 0 00.002.048c.12.334.17.676.15 1.025l-.028.493c-.02.17-.082.331-.181.47a.493.493 0 01-.773.013 1.28 1.28 0 01-.166-.33.958.958 0 01-.058-.372 73.82 73.82 0 01-.1-.518l.023-.16c0-.006 0-.014-.003-.02a.075.075 0 00-.012-.022c-.034-.042-.036-.086-.006-.134.052-.022.07-.065.054-.128a.827.827 0 01-.025-.202c0-.07.022-.131.066-.184a.632.632 0 01.444-.226zm-5.648.152l-.004.024a.714.714 0 00.005-.024zm7.126.08a.453.453 0 00-.101.012 2.054 2.054 0 01-.36.055c-.098.022-.123.069-.075.14a.05.05 0 00.04.02c.182 0 .36-.02.536-.06.082.011.15-.013.204-.072.035-.038.027-.061-.025-.069l-.162-.023a.36.36 0 00-.057-.003zm-.633.592h.002l-.004.001h.002zm6.866.437a10.064 10.064 0 000 0zm-8.309.051c.018 0 .04.008.065.026a.027.027 0 01.01.03.027.027 0 01-.005.01c-.052.063-.09.067-.115.01a.055.055 0 01-.005-.024.05.05 0 01.007-.023c.01-.019.025-.028.043-.029zm5.588.294a4.324 4.324 0 000 0zm-12.816.236h.005-.017.012zm12.365.229c-.176.162-.366.31-.567.441a5.82 5.82 0 000 0c.2-.13.39-.279.567-.441zm2.826.37a.139.139 0 010 0zm-.096.187a.25.25 0 00-.04.078.381.381 0 00-.017.101v.003-.003a.393.393 0 01.017-.1.248.248 0 01.04-.08zm-10.698.105a1.447 1.447 0 000 0zm7.648.378a3.108 3.108 0 000 0zm-7.681-.34c.028.002.024.031-.011.088-.183.29-.284.469-.301.538a.53.53 0 01-.197.3.117.117 0 01-.07.028c-.056.002-.066-.03-.031-.1a.578.578 0 00.128-.227c.057-.191.129-.377.217-.556.012-.057.051-.077.117-.06.035.01.073.01.109-.003a.11.11 0 01.039-.008zm10.633.168c-.027.06-.067.133-.121.223a.043.043 0 00-.007.022c0 .008.002.015.007.02.027.037.066.046.116.027-.05.019-.09.01-.117-.026a.035.035 0 01-.006-.02c0-.008.002-.016.006-.023.054-.09.095-.164.122-.223zm-12.792.219c.048.003.054.02.02.053a.643.643 0 00-.19.327c-.005.022-.03.049-.072.08a.062.062 0 00-.026.038.781.781 0 01-.213.388.043.043 0 01-.02.011.037.037 0 01-.022 0c-.062-.023-.08-.072-.054-.147.025-.073.067-.117.126-.133a.023.023 0 00.008-.005.02.02 0 00.006-.007.017.017 0 00.001-.008.015.015 0 00-.002-.008l-.02-.03a.072.072 0 01-.01-.023.045.045 0 010-.02c.022-.098.058-.19.107-.277.062-.173.182-.252.361-.24zm6.352.217l.286.044-.286-.044zm6.153.088a.49.49 0 00-.035.135l-.001.001v-.002a.478.478 0 01.036-.134zm-19.61.367l.092.088-.092-.088zm4.297.01c.033.001.039.022.017.061-.057.078-.109.16-.154.244a1.496 1.496 0 01-.154.24 6.19 6.19 0 00-.3.4c-.024.023-.041.024-.052.003a.043.043 0 01-.004-.022c.001-.008.003-.017.007-.025.14-.301.337-.596.594-.883A.056.056 0 015.6 17.9zm10.805.077a6.56 6.56 0 01-.97.134l.072.034a.052.052 0 01.018.014.025.025 0 01.007.016.436.436 0 01-.07.213.869.869 0 00-.092.31l-.046.173a.042.042 0 01-.011.02.036.036 0 01-.019.01l-.17.028a.044.044 0 01-.023-.002.036.036 0 01-.017-.013.175.175 0 01-.016-.178.1.1 0 01.087-.054c.003 0 .005 0 .007-.002a.015.015 0 00.006-.02c-.025-.053-.016-.112.025-.178a.92.92 0 00.119-.295.12.12 0 01.11-.08l.012.004a6.48 6.48 0 00.971-.134zm1.663.145c.011 0 .026.006.046.02.015.01.031.016.045.015l.093-.004c.004 0 .007 0 .01.002a.022.022 0 01.007.005.019.019 0 01.006.015.208.208 0 01-.135.161.038.038 0 01-.03 0 .037.037 0 01-.02-.022c-.047-.127-.054-.19-.021-.192zm-5.42.16l.011.005.004.003-.004-.002-.012-.006zm5.362.042c.004-.003.01-.003.016 0a.023.023 0 01.011.012.045.045 0 01.005.02c0 .069.048.097.144.084a.034.034 0 01.037.023.03.03 0 010 .015c-.03.205-.076.408-.138.607-.028.09-.076.084-.143-.02a.155.155 0 01-.022-.116 4.08 4.08 0 00.035-.2.75.75 0 01.041-.378.131.131 0 00.007-.03c0-.009.003-.014.007-.017zm-5.037.114l.012.004-.012-.004zm1.585.216l.086.006.018.004-.018-.003-.086-.007zm.334.052l.016.002-.016-.002zm5.316.059a.377.377 0 01-.055.07.624.624 0 010 0 .377.377 0 00.055-.07zm-8.893.087a.307.307 0 01.132.018.022.022 0 01.015.022 1.47 1.47 0 01-.687 1.14c-.054.044-.074.031-.06-.036.018-.1.061-.163.128-.19a.024.024 0 00.008-.005.025.025 0 00.008-.017c0-.003 0-.006-.002-.01l-.028-.074a.06.06 0 010-.046c.106-.256.237-.5.39-.73.029-.044.061-.067.097-.072zm1.998.208c.036-.006.045.02.028.077a3.02 3.02 0 01-.11.315c-.011.025-.04.103-.085.235a1.315 1.315 0 01-.223.385.355.355 0 01-.176.099c-.06.014-.074-.005-.044-.058a.16.16 0 01.06-.051.054.054 0 00.018-.016.05.05 0 00.008-.02c.03-.163.09-.319.178-.46.027-.095.067-.185.12-.269a.359.359 0 01.18-.22.19.19 0 01.046-.017zm3.697.148a6.232 6.232 0 01-.457.268c-.018.08-.041.16-.07.237-.026.072-.045.15-.058.237a1.314 1.314 0 01-.194.518c-.053.084-.096.079-.13-.014-.035-.1-.025-.224.03-.371.036-.096.066-.194.091-.293.046-.132.072-.22.078-.264.016-.117.098-.187.247-.212a.035.035 0 01.033.013.04.04 0 01.007.037l-.034.112c.156-.083.308-.172.457-.268zm-14.74.038a.245.245 0 01.093.005l.135.032c-.045-.01-.09-.02-.135-.032a.262.262 0 00-.093-.005zm.452.124c.04.021.084.044.111.052-.027-.007-.07-.03-.11-.052zm6.045.115a.06.06 0 01.06.053c.001.01 0 .02-.003.028a.637.637 0 01-.145.241c-.093.097-.168.21-.22.335a.078.078 0 00-.003.048c.017.069-.023.129-.12.179-.062.032-.098.013-.109-.056a.443.443 0 01.052-.23c.124-.28.21-.445.257-.494a.306.306 0 01.23-.104zm7.27.275a.288.288 0 010 0zm-12.119.034c.051.023.102.045.15.074-.048-.028-.099-.05-.15-.075zm10.725.38c.096.001.112.06.051.178a2.995 2.995 0 01-.226.361 1.429 1.429 0 00-.123.22.787.787 0 01-.209.27.03.03 0 01-.02.008.029.029 0 01-.018-.007c-.039-.034-.05-.079-.03-.133l.389-.82a.112.112 0 01.027-.037.094.094 0 01.038-.02.487.487 0 01.121-.02zm-8.294.164c.045-.007.053.025.026.096a1.594 1.594 0 01-.294.487.528.528 0 00-.064.148 1.35 1.35 0 01-.124.178c-.104.134-.15.108-.139-.078.123-.22.201-.375.234-.467a.582.582 0 01.305-.344.226.226 0 01.056-.02zm12.323.192a.027.027 0 00.012.03.027.027 0 01-.012-.03zm-13.54.17c.082.037.139.066.17.086.044.027.084.049.126.072-.042-.023-.082-.044-.126-.072a1.702 1.702 0 00-.17-.086zm-1.247.019zm14.738.023zm-.414.16a2.817 2.817 0 00-.202.218.282.282 0 010 0c.068-.081.135-.154.202-.218zm-12.03.195a.39.39 0 00.087.02.783.783 0 010 .001.373.373 0 01-.087-.021zm7.603.012zm-3.26.064c.066.005.079.042.037.112a.365.365 0 00-.039.16.244.244 0 01-.09.14.093.093 0 00-.032.036 1.856 1.856 0 01-.366.517l-.044.056c-.024.031-.055.038-.091.02a.073.073 0 01-.038-.047.076.076 0 01.01-.062l.388-.572a.396.396 0 00.085-.15.39.39 0 01.133-.195.067.067 0 01.046-.015zm-2.199.085a.085.085 0 000 0zm.21.052c.176.033.353.061.53.085.166-.014.333-.002.495.034a.565.565 0 010 0 1.667 1.667 0 00-.495-.034 9.777 9.777 0 01-.53-.085zm-1.397.033c.003 0 .006 0 .008.002l-.008-.002zm8.013.077c.062 0 .066.06.01.181a.05.05 0 01-.013.017.076.076 0 01-.021.013c-.045.019-.059.053-.043.103.022.069.005.124-.05.165a.034.034 0 00-.013.017.032.032 0 000 .02c.034.108.006.203-.086.284a.525.525 0 01-.199.103c.008-.156.046-.31.111-.452a.891.891 0 01.122-.347.202.202 0 01.1-.085.238.238 0 01.082-.02zm-2.878.04a.228.228 0 01.103.012.372.372 0 01-.06.127c-.128.209-.26.416-.395.621-.03.045-.053.042-.071-.008a.231.231 0 01.027-.212c.079-.181.179-.35.3-.505a.213.213 0 01.096-.036zm.167.034c-.013.018-.026.025-.036.021.01.004.022-.003.036-.02zm-4.22.04c.039-.014.061.003.067.049a.305.305 0 01-.075.249.786.786 0 00-.113.157c-.045.1-.089.2-.13.301-.02.049-.044.078-.07.09-.036.014-.079.012-.127-.008a.049.049 0 01-.027-.064 3 3 0 01.424-.732.123.123 0 01.052-.043zm8.917.133a.757.757 0 010 0zm-.695.38h.001zm-10.502.082a.096.096 0 010 0zm4.22 1.373a1.19 1.19 0 010 0z"/></svg>